SplineFontDB: 3.0
FontName: CoelacanthHeavy
FullName: Coelacanth Heavy
FamilyName: CoelacanthHeavy
Weight: Heavy

StartChar: a
Encoding: 97 97 0
Width: 412
VWidth: 1159
Flags: HMW
AnchorPoint: "Bottom" 217 -15 basechar 0
AnchorPoint: "Ogonek" 354 18 basechar 0
AnchorPoint: "Top" 217 465 basechar 0
LayerCount: 2
Fore
SplineSet
221 154 m 1
 205.6 154 193.15075 154.240234375 177 154 c 1
 166.837 153.609 158.051698232 143.88123729 155 140 c 0
 148.93 132.28 149 116.498 149 107 c 3
 149 96.7686 163.35 77.5 177.133 77.5 c 3
 194.693709023 77.5 211.571554519 82.6729 218 85 c 1
 218.25 91.5 218.715420776 101.182016772 219 111 c 0
 219.5 128.25 220.333 141.1 221 154 c 1
229 422 m 3
 255.303902326 422 338.02486393 372.469120382 350.5 355.5 c 0
 359 343.938 361 318.714 361 304 c 3
 361 238 356 175 356 111 c 3
 356 102.153 360.291412227 93.8546924892 364 88 c 0
 368.11488 81.5039 372.99976 81 375 81 c 3
 379.25187659 81 387.75562977 81.7061 394.1328125 82.5 c 1
 416 12 l 1
 367.033333333 -1.5 291.992133333 -23 286 -23 c 3
 277.511 -23 236.884 -8.5332 222 39 c 1
 179.579083333 6.93066 144.5 -21 98 -21 c 3
 35.7705 -21 25 17.7119 25 65 c 3
 25 94.9922 27.4364645043 121.293008659 32 140 c 0
 33.8623 147.634 40.3941495231 162.017714057 47.1328 165.5 c 0
 87.0040675211 186.104 156.920938495 210.896 225 220 c 1
 225 258 l 3
 225 299 223.789576025 315.195763167 213 321 c 0
 207.560818182 323.926 201.002181818 328 189.5 328 c 3
 176.1 328 173.5 324.686444444 173.5 315 c 3
 173.5 303.489 182 292.277 182 289.5 c 1
 57.1328 240.5 l 1
 49.4795 250.944 38 299.375 38 319 c 3
 38 333.171 46.7045846842 345.9962286 69.5 360.5 c 0
 134.725085911 402 211.663281787 422 229 422 c 3
EndSplineSet
Validated: 33
Substitution2: "case-1" A
Substitution2: "pcap-1" a.pcap
Substitution2: "smcp-1" a.smcp
EndChar

StartChar: b
Encoding: 98 98 1
Width: 515
VWidth: 1159
Flags: HMW
HStem: -15 90<153.363 288.167> 332 86<189.099 276.683>
VStem: 58 131<101.539 340 412 596.322> 339 138<143.754 258.216>
AnchorPoint: "Bottom" 258 -15 basechar 0
AnchorPoint: "Top" 114 749 basechar 0
LayerCount: 2
Fore
SplineSet
201 320 m 5
 202 246.111328125 200 203.888671875 200 130 c 7
 200 122.10546875 203.342773438 112.7265625 211 105 c 4
 228.67578125 87.1630859375 252.623046875 75 276 75 c 7
 324.984375 75 351 106.25 351 150 c 7
 351 235.724609375 320.747070312 332 233 332 c 7
 214.971679688 332 204.018554688 320 201 320 c 5
-6.5 687 m 5
 10 688 102.072265625 724.853515625 192 765 c 5
 234 733 l 5
 226 715 217.567382812 684.157226562 215 667 c 4
 204 593.494140625 201 505.420898438 201 403 c 5
 227 412 264.912109375 418 308 418 c 7
 413 418 489 324.592773438 489 236 c 7
 489 96.435546875 348.013671875 -15 203 -15 c 7
 158.627929688 -15 153.6171875 -2 130 -2 c 7
 92.4189453125 -2 80.1787109375 -12.080078125 71 -16 c 5
 23 24 l 5
 24.80078125 26.482421875 28.392578125 31.29296875 32 36 c 4
 47.4541015625 61.9248046875 64.8896484375 75.6318359375 66 155 c 4
 68 294.08203125 70 370.9140625 70 510 c 7
 70 557.916015625 66.669921875 583.3515625 62 602 c 4
 55 629.951171875 34 635 3.5 635 c 4
 3.5 635 l 5
 -6.5 687 l 5
EndSplineSet
Validated: 37
Substitution2: "case-1" B
Substitution2: "pcap-1" b.pcap
Substitution2: "smcp-1" b.smcp
EndChar

StartChar: c
Encoding: 99 99 2
Width: 421
VWidth: 1159
Flags: HMW
AnchorPoint: "Bottom" 232 -15 basechar 0
AnchorPoint: "Top" 235 465 basechar 0
LayerCount: 2
Fore
SplineSet
297 261 m 1
 267.581054688 277.428710938 227.323242188 307 201 307 c 3
 189.911132812 307 170 299.139648438 170 240 c 3
 170 170.79296875 202.008789062 81 316 81 c 3
 336.936523438 81 354.653320312 87.5 367 94 c 1
 399 42 l 1
 361.888671875 12.158203125 297.490234375 -21 232 -21 c 3
 181.01953125 -21 26 -16.796875 26 166 c 3
 26 305.791015625 145.575195312 423 277 423 c 3
 327.25 423 378.546875 400.673828125 411 375 c 1
 409 321 407 325 297 261 c 1
EndSplineSet
Validated: 1
Substitution2: "case-1" C
Substitution2: "pcap-1" c.pcap
Substitution2: "smcp-1" c.smcp
EndChar

StartChar: d
Encoding: 100 100 3
Width: 522
VWidth: 1159
Flags: HMW
AnchorPoint: "Bottom" 217 -15 basechar 0
AnchorPoint: "Top" 395 734 basechar 0
AnchorPoint: "TopRight" 508.5 581 basechar 0
LayerCount: 2
Fore
SplineSet
308 16 m 1
 269.963603604 6.98416 235.329009009 -11 190 -11 c 3
 82.6377 -11 15 75.8477 15 172 c 3
 15 254.139 65.7003703513 324.075322149 125 364 c 0
 172.045 395.674 229.318 411 260 411 c 3
 274.323023256 411 306.978953488 410.105 315 410 c 1
 315 493.584 309.340097002 544.213033448 297 580 c 0
 291 597.40033318 289.125 600.400390625 270 600.400390625 c 3
 265.901230769 600.400390625 257.792769231 600.400390625 242 600.400390625 c 1
 226 664.400390625 l 1
 302.649324444 678.805331766 389.616555556 715.474181935 453 760 c 1
 493 728 l 1
 482 714.538 472.044536469 688.477888749 470 678 c 0
 440.238 525.475 444 351.302 444 185 c 3
 444 148.974 447.347577981 131.104779343 459 79 c 0
 460.790612651 70.9931258131 465.735111159 71.8702295605 471 71 c 0
 484.2 68.8181818182 496.528659574 66.5 504 65 c 1
 522 11 l 1
 444.946298507 -9 353.353701493 -32 333 -32 c 3
 326 -32 319 -29.8672 315 -15 c 1
 315 -15 308 14.1749414286 308 16 c 1
195 330 m 3
 185.356923077 330 171.908052592 323.846447554 163 316 c 0
 151.286 305.682 143 290.024 143 269 c 3
 143 179.494 181.126131579 88 307 88 c 0
 307 88 l 1
 308.5 141.045 313 196.24 313 250 c 0
 313 312 260.189599883 330 205 330 c 0
 201.828456864 330 198.387975738 330 195 330 c 3
EndSplineSet
Validated: 37
Substitution2: "case-1" D
Substitution2: "pcap-1" d.pcap
Substitution2: "smcp-1" d.smcp
EndChar

StartChar: e
Encoding: 101 101 4
Width: 403
VWidth: 1159
Flags: HMW
AnchorPoint: "Bottom" 205 -15 basechar 0
AnchorPoint: "Ogonek" 298.65 23 basechar 0
AnchorPoint: "Top" 209 465 basechar 0
LayerCount: 2
Fore
SplineSet
205 417 m 7
 268.842 417 337.299 369.252 358 317 c 4
 360.372 311.012 379 300.5 387 299 c 5
 387 251 l 5
 317.683 240.611 232.871 222.47 166 204 c 5
 166 204 l 7
 166 115.65 226.002 80 268 80 c 7
 296.448 80 320.053 93.6889 337 108 c 5
 379 54 l 5
 334.053 18.0882 269.842 -20 196 -20 c 7
 81.3572 -20 16 65.6211 16 176 c 7
 16 355.468 168.695 417 205 417 c 7
185 323 m 7
 174.621 323 168.8 277.5 167 265.5 c 5
 225 276.5 l 4
 233 277.5 l 5
 231 295.3 206.447 323 185 323 c 7
EndSplineSet
Validated: 5
Substitution2: "case-1" E
Substitution2: "pcap-1" e.pcap
Substitution2: "smcp-1" e.smcp
EndChar

StartChar: f
Encoding: 102 102 5
Width: 357
VWidth: 1159
Flags: HMW
AnchorPoint: "Bottom" 148 -15 basechar 0
AnchorPoint: "Top" 254 748 basechar 0
LayerCount: 2
Fore
SplineSet
398 762 m 3
 430 762 480 751 505 729 c 1
 503 675 505 675 407 601 c 1
 362.638671875 611.857421875 336.3515625 652 298 652 c 3
 163.993164062 652 249.697265625 553.278320312 244 498 c 0
 243 488.296875 241 436.87109375 240 400 c 1
 275.469911986 404 307.530088014 404 343 408 c 1
 343 316 l 1
 307.078643799 320 273.921356201 322 238 326 c 1
 236 311.223632812 236 297.6328125 236 293 c 3
 236 219.577148438 231.40625 149.5859375 248 79 c 0
 249.939453125 70.7490234375 261.816821392 59.1573181282 271 59 c 0
 295.797252308 58.5751953125 319.000221946 60.5 344 62 c 1
 338 -12 l 1
 282 -7 202 -5 146 -5 c 3
 109.490417481 -5 53.5095825195 -8 17 -12 c 1
 15 60 l 1
 24.77734375 60 38.7087043525 56.0721851334 47 60 c 0
 69.6037279212 70.7080078125 76.8482931386 98.3154296875 78 106 c 0
 88 150.97265625 94 209.784179688 94 266 c 3
 94 278.645507812 93 302.3828125 93 326 c 1
 65.97265625 324 40.02734375 318 13 316 c 1
 13 408 l 1
 39.689453125 406 65.310546875 402 92 400 c 1
 92 437.78125 92 481.375 92 493 c 3
 92 604.071289062 145.911132812 657.729492188 237 710 c 0
 293.859375 742.627929688 327.63671875 762 398 762 c 3
EndSplineSet
Validated: 33
Substitution2: "salt-1" f.alt
Substitution2: "case-1" F
Substitution2: "pcap-1" f.pcap
Substitution2: "smcp-1" f.smcp
EndChar

StartChar: g
Encoding: 103 103 6
Width: 473
VWidth: 1159
Flags: HMW
AnchorPoint: "Bottom" 221 -318 basechar 0
AnchorPoint: "Top" 220 465 basechar 0
LayerCount: 2
Fore
SplineSet
196 12 m 3
 196 -1.2 214.500976562 -4 231 -4 c 3
 256.426757812 -4 278.573242188 6 304 6 c 3
 412.451171875 6 458 -69.1441 458 -133 c 3
 458 -274.877 281.993 -329 169 -329 c 3
 66.0042 -329 4 -257.513 4 -206 c 3
 4 -142.103 75.0205 -103.279 87 -96 c 1
 66.1461 -74.8254 40.0167 -27.3081 46 2 c 1
 65.2773 18.8 98.8573 35.6 120 44 c 1
 72.5 76.8 29 122.764 29 215 c 3
 29 342.957 198.5654 409 245 409 c 3
 284.361 409 322.713 395.316 354 369 c 1
 378.354479167 385.8 399.8985 397 428 397 c 3
 443 397 462 394 468 390 c 1
 452 276 l 1
 437.084814815 276 422.915185185 276 408 272 c 0
 408 272 l 1
 414.111 258.894 419 231.083 419 228 c 3
 419 123.596 309.626585794 93.0393135391 234 44 c 0
 201.286146789 22.7870245912 196 22.1053 196 12 c 3
188 327 m 3
 165.5 327 163 305.017 163 277 c 3
 163 184.303 221.972 116 240 116 c 3
 258.713666667 116 271 147.403 271 182 c 3
 271 247.573 230.792263889 327 188 327 c 3
97 -162 m 3
 97 -192.513 186 -197 239 -197 c 3
 260.337 -197 362 -183.938476562 362 -158 c 3
 362 -141.436523438 336.653320312 -134 306 -134 c 3
 279.318359375 -134 251.681640625 -148 225 -148 c 3
 184.690429688 -148 142.88671875 -140.333007812 119 -125 c 1
 102.563476562 -135 97 -153 97 -162 c 3
EndSplineSet
Validated: 37
Substitution2: "case-1" G
Substitution2: "pcap-1" g.pcap
Substitution2: "smcp-1" g.smcp
EndChar

StartChar: h
Encoding: 104 104 7
Width: 533
VWidth: 1159
Flags: HMW
AnchorPoint: "Bottom" 275 -15 basechar 0
AnchorPoint: "Top" 130 733 basechar 0
LayerCount: 2
Fore
SplineSet
228 299 m 1
 224 268.166666667 221 228.157802422 221 189 c 3
 221 140.946010926 220.958868675 120.99018554 231 79 c 0
 234 66.4545454545 240.431146857 56.0900642652 254 56 c 0
 260.316857942 55.9580713887 273.157894737 55.2 280 55 c 1
 272 -13 l 1
 226.324324324 -7 191.189189189 -2 142 -2 c 3
 105.125 -2 60.875 -7 24 -11 c 1
 18 55 l 1
 31.75 57 43.537795239 56.1315564466 53 60 c 0
 58.7591078714 62.3545023893 73.2733916878 92.853315401 75 101 c 0
 84.628897018 146.432184294 90 217.207070707 90 274 c 3
 90 494.167613636 92.5347343592 576.579902636 84 601 c 0
 77.1794873947 620.515262559 72.8166666667 623 51 623 c 3
 48.7138671875 623 41.8095238095 623 38 623 c 1
 22 687 l 1
 92.1161290323 698 173.019354839 726 231 760 c 1
 269 728 l 1
 263.428571429 716.692307692 258.446500653 694.742211167 256 686 c 0
 236 614.532934132 230 461.389221557 228 345 c 1
 273.473372781 384.06 336.964497041 408 373 408 c 3
 445.359649122 408 486 357.674207828 486 288 c 3
 486 269.972243623 486 229 481 183 c 3
 481 136.162790698 480 90.9689922481 480 77 c 0
 480 76 502.874422979 58.3990134936 509 55 c 0
 514.006986614 52.2216796875 530.913043478 55 537 55 c 1
 527 -13 l 1
 483.626168224 -4 454.710280374 -2 408 -2 c 3
 376.235294118 -2 345.529411765 -7 318 -13 c 1
 315.378811585 9.45553817118 311.321641138 32.9641298321 312 53 c 1
 320.555555555 54.2 329.271165667 52.6689649481 333 56 c 0
 338.233115776 60.674836832 341.532838729 87.170483864 342 99 c 0
 342.440201716 110.14684292 344 133.19398021 344 143 c 3
 344 181.15625 345.300260413 242.19520061 339 254 c 0
 321.140465117 287.463414634 312.686046512 310 266 310 c 3
 247.193576686 310 239.875 304 228 299 c 1
EndSplineSet
Validated: 33
Substitution2: "case-1" H
Substitution2: "pcap-1" h.pcap
Substitution2: "smcp-1" h.smcp
EndChar

StartChar: k
Encoding: 107 107 10
Width: 525
VWidth: 1159
Flags: HMW
AnchorPoint: "Bottom" 259 -15 basechar 0
AnchorPoint: "Top" 129 739 basechar 0
LayerCount: 2
Fore
SplineSet
206 245 m 1
 227.344726562 261.52734375 281.166132316 303.986081908 283 327 c 0
 284.823770939 349.887210114 270.704101562 353 266 353 c 3
 257 353 l 1
 261 407 l 1
 287 405 330 405 357 405 c 3
 393.666666667 405 437.444444444 403 477 409 c 1
 481 345 l 1
 424.902985074 336.288461538 349.23976208 290.492431379 300 258 c 2
 292 249 l 1
 361.672897196 193.39408867 408 145 476 83 c 0
 491.234067845 69.1101146117 517 60 527 56 c 1
 521 -12 l 1
 487 -6 441 -2 399 -2 c 3
 365.086914062 -2 324.913085938 -9 291 -11 c 1
 285 55 l 1
 291.893554688 59.5 299.893554688 62.900390625 300 66 c 1
 266.524414062 99.52734375 223.977900552 146.714285714 184 179 c 1
 210 199 l 1
 210 148 214 98.40625 222 79 c 0
 224.120117188 73.8564453125 232.341796875 60.69921875 241 58 c 0
 251.845703125 54.619140625 241.94140625 54.5 258 55 c 1
 248 -13 l 1
 198.96875 -7 193.568359375 -2 133 -2 c 3
 92.0625 -2 53.9375 -9 13 -11 c 1
 9 55 l 1
 20.6875 56 21.6122986877 57.9004203089 32 60 c 0
 47.6494140625 63.1630859375 60 90.376953125 64 101 c 0
 74 146.434570312 82 217.20703125 82 274 c 3
 82 510.36328125 78 564.909179688 74 594 c 0
 73.6865234375 596.276367188 64.875 617 39 617 c 3
 37.244140625 617 34 617 28 617 c 1
 12 681 l 1
 85.9480519481 692.904109589 158.850585938 723.205078125 220 760 c 1
 260 728 l 1
 254.428710938 716.692382812 248.827148438 694.81640625 247 686 c 0
 228 612.3359375 206 366.791015625 206 245 c 1
EndSplineSet
Validated: 37
Substitution2: "case-1" K
Substitution2: "pcap-1" k.pcap
Substitution2: "smcp-1" k.smcp
EndChar

StartChar: l
Encoding: 108 108 11
Width: 305
VWidth: 1159
Flags: HMW
AnchorPoint: "Bottom" 158 -15 basechar 0
AnchorPoint: "TopRight" 259 581 basechar 0
AnchorPoint: "Top" 149 734 basechar 0
LayerCount: 2
Fore
SplineSet
225 300 m 3
 225 227.006835938 224.999072479 114.432284258 237 81 c 0
 242.931640625 64.4755859375 246.783794681 61.6613606957 251 60 c 0
 267.48828125 53.5029296875 285 55 299 54 c 1
 289 -14 l 1
 238.456054688 -7.4541015625 181.431640625 -2 127 -2 c 3
 95.8676840572 -2 48.1323159428 -7 17 -11 c 1
 13 55 l 1
 22.2163211138 56 38.002868465 56.5283386582 44 60 c 0
 49.1064453125 62.9560546875 64.8941696842 87.1825936509 71 113 c 0
 81 155.283203125 87 221.146484375 87 274 c 3
 87 504.71875 84.0132881796 573.503762289 81 595 c 0
 78.5625 612.388671875 70.8798828125 616 55 616 c 3
 52.142578125 616 30.806640625 616 35 617 c 1
 19 681 l 1
 88.7802734375 692.904296875 169.296875 723.205078125 227 760 c 1
 265 728 l 1
 270.384765625 719.692382812 257.229431406 694.360367771 255 686 c 0
 235 611 225 424 225 300 c 3
EndSplineSet
Validated: 33
Substitution2: "case-1" L
Substitution2: "pcap-1" l.pcap
Substitution2: "smcp-1" l.smcp
EndChar

StartChar: m
Encoding: 109 109 12
Width: 803
VWidth: 1159
Flags: HMW
AnchorPoint: "Bottom" 395 -15 basechar 0
AnchorPoint: "Top" 412 465 basechar 0
LayerCount: 2
Fore
SplineSet
721 161 m 7
 721 123.766601562 724.717773438 89.4091796875 727 78 c 4
 729 68 744.204101562 57.591796875 751 56 c 4
 757.96484375 54.3681640625 781.245117188 55.400390625 789 55 c 5
 779 -13 l 5
 740.361328125 -4 713.611328125 -2 672 -2 c 7
 631.149414062 -2 579.404296875 -7 544 -13 c 5
 536 53 l 5
 541.15625 53.400390625 544.798828125 53.5322265625 551 54 c 4
 564.776367188 55.0390625 579.13671875 79.7724609375 582 97 c 4
 583.622070312 106.760742188 587 128.821289062 587 138 c 7
 587 181.98828125 581.668945312 230.91015625 575 247 c 4
 561.591796875 279.350585938 555.043945312 295 496 295 c 7
 489.69921875 295 480.009765625 292.038085938 473 288 c 5
 473 288 l 7
 473 263 471 219 471 183 c 7
 471 138.232421875 474 91.8369140625 477 78 c 4
 477.635742188 75.068359375 487.534179688 60.9560546875 498 56 c 4
 502.202148438 54.009765625 510.142578125 55.400390625 515 55 c 5
 505 -13 l 5
 462.305664062 -4 446.978515625 -2 401 -2 c 7
 371.305664062 -2 329.734375 -7 304 -13 c 5
 296 53 l 5
 299.865234375 53.400390625 303.869140625 52.0048828125 309 54 c 4
 317.000976562 57.111328125 319.75 73.9482421875 324 82 c 4
 330.967773438 95.19921875 337 129.34375 337 143 c 7
 337 187 332.924804688 255.41796875 323 271 c 4
 313 286.701171875 302.200195312 302 267 302 c 7
 252.599609375 302 240.900390625 291.909179688 231 278 c 5
 228.333007812 212.025390625 219 123.274414062 219 95 c 7
 219 78.76953125 230.139648438 59.412109375 243 57 c 4
 249.982421875 55.6904296875 263.631835938 55.400390625 271 55 c 5
 263 -13 l 5
 217.32421875 -7 182.189453125 -2 133 -2 c 7
 97.375 -2 54.625 -7 19 -11 c 5
 13 55 l 5
 21.642578125 57 26.5400390625 57.6904296875 35 60 c 4
 44.2578125 62.52734375 63.7451171875 87.0693359375 71 100 c 4
 85 124.951171875 88 173.262695312 88 199 c 7
 88 213.831054688 81.8515625 262.728515625 74 280 c 4
 61.8701171875 306.68359375 43.4501953125 312 22 312 c 4
 22 312 l 5
 18 370 l 5
 71.4111328125 377 124.822265625 381 197 422 c 5
 239 392 l 5
 234 376.28125 231 353.577148438 231 330 c 5
 267 363.657226562 312 406 357 406 c 7
 419.688476562 406 450.440429688 368.955078125 467 333 c 5
 500.982421875 357.538085938 550.649414062 391 616 391 c 7
 693.420898438 391 725 347.939453125 725 280 c 7
 725 243.638671875 721 201.768554688 721 161 c 7
EndSplineSet
Validated: 37
Substitution2: "case-1" M
Substitution2: "pcap-1" m.pcap
Substitution2: "smcp-1" m.smcp
EndChar

StartChar: n
Encoding: 110 110 13
Width: 541
VWidth: 1159
Flags: HMW
AnchorPoint: "Bottom" 288 -15 basechar 0
AnchorPoint: "Top" 291 465 basechar 0
LayerCount: 2
Fore
SplineSet
78 263 m 4
 68.650390625 307 58.8076171875 311 44 311 c 4
 17 312 l 5
 13 370 l 5
 72.37890625 377 131.7578125 381 212 422 c 5
 254 392 l 5
 246.5 379.32421875 242 361.013671875 242 342 c 5
 279.693359375 370.3046875 320.52734375 405 370 405 c 7
 444.237304688 405 490 357.811523438 490 295 c 7
 490 240.061523438 480 171.567382812 480 124 c 7
 480 104.116210938 480.041992188 85.7373046875 483 79 c 4
 486 72.166015625 499.411132812 59.388671875 505 57 c 4
 511.211914062 54.3447265625 527.682617188 55.7998046875 535 55 c 5
 525 -13 l 5
 481.029296875 -4 457.352539062 -2 410 -2 c 7
 382.423828125 -2 342.899414062 -7 319 -13 c 5
 311 53 l 5
 316.7890625 53.400390625 323.2421875 52.8876953125 331 54 c 4
 334.0625 54.439453125 343 80.37890625 343 89 c 4
 343 92.34375 343 99.2822265625 343 103 c 7
 343 160.0625 345.583984375 253.591796875 331 269 c 4
 313.370117188 287.626953125 309.814453125 301 265 301 c 7
 253.682617188 301 242.744140625 297.705078125 236 298 c 5
 227.83984375 240 219 186.05078125 219 166 c 7
 219 101.717773438 232.485351562 59.9296875 243 57 c 4
 251.485351562 54.6357421875 270.262695312 55.400390625 280 55 c 5
 272 -13 l 5
 228.432617188 -7 194.918945312 -2 148 -2 c 7
 109.25 -2 62.75 -7 24 -11 c 5
 18 55 l 5
 34.5 56.599609375 52.14453125 47.189453125 60 59 c 4
 63.9130859375 64.8837890625 76.625 86.419921875 80 101 c 4
 85.25 123.682617188 86 167.584960938 86 191 c 7
 86 204.2109375 82.6552734375 241.092773438 78 263 c 4
EndSplineSet
Validated: 33
Substitution2: "case-1" N
Substitution2: "pcap-1" n.pcap
Substitution2: "smcp-1" n.smcp
EndChar

StartChar: o
Encoding: 111 111 14
Width: 506
VWidth: 1159
Flags: W
HStem: -20 78<235.778 308.758> 332 90<188.399 264.494>
VStem: 20 152<144.954 286.531> 329 156<108.659 257.666>
AnchorPoint: "Middle" 256 206 basechar 0
AnchorPoint: "Bottom" 250 -15 basechar 0
AnchorPoint: "Ogonek" 342 19.6582 basechar 0
AnchorPoint: "Horn" 421.5 341.8 basechar 0
AnchorPoint: "Top" 252 465 basechar 0
LayerCount: 2
Fore
SplineSet
257 422 m 3
 399.5 422 485 314 485 208 c 3
 485 73.9443 385.802 -20 256 -20 c 3
 124.304 -20 20 62 20 185 c 3
 20 350.373 162.2 422 257 422 c 3
221 332 m 3
 193 332 172 297.644 172 251 c 3
 172 163.533 222.004 58 274 58 c 3
 308.692 58 329 107.333 329 160 c 3
 329 282.681 249.319 332 221 332 c 3
EndSplineSet
Validated: 1
Substitution2: "case-1" O
Substitution2: "pcap-1" o.pcap
Substitution2: "smcp-1" o.smcp
EndChar

StartChar: p
Encoding: 112 112 15
Width: 516
VWidth: 1159
Flags: W
HStem: -348 64<12.3438 45.3336> -342 68<232.067 318> -16 82<222.978 354.567> 314 94<232.141 368.864>
VStem: 370 132<115.612 244.403>
AnchorPoint: "Bottom" 295 -15 basechar 0
AnchorPoint: "Top" 260 465 basechar 0
LayerCount: 2
Fore
SplineSet
86 31 m 3xb8
 86 137.633 75.7425 242.374 66 260 c 0
 55.8961623116 278.279727287 38.7332428571 289 25 289 c 3
 22.38094 289 14 291 14 291 c 1
 6 345 l 1
 53.3382190476 353.38 126.264380952 383.31 180 430 c 1
 204 425.072 214 424.087 218 362 c 1
 245.823 382.553 284.647 408 317 408 c 3
 420.728 408 502 302.845 502 208 c 3
 502 71.3394 375.924 -16 253 -16 c 3
 241.954 -16 221.265 -12.1177 222 -29 c 1
 222 -95.5017 222 -228.993164062 232 -259 c 0
 233.361328125 -263.083007812 239.033203125 -266.495117188 252 -268 c 0
 274.116210938 -270.56640625 300.571289062 -272.5 320 -274 c 1
 318 -342 l 1x78
 264.72265625 -341 222.375 -339 165 -339 c 3
 122.778320312 -339 55.22265625 -344 13 -348 c 1
 7 -284 l 1
 21.2998046875 -282.799804688 31.7236328125 -280.516601562 46 -278 c 0
 51.7998046875 -276.9765625 64.005859375 -251.8828125 68 -233 c 0
 78 -185.7265625 86 -108.091 86 31 c 3xb8
248 314 m 3
 216.282 314 215.733 298.953 214 282 c 1
 218 85 l 1
 244.344 74.6364 273.882 66 313 66 c 3
 339.928 66 370 91.6403 370 132 c 3
 370 233.976 329.884 314 248 314 c 3
EndSplineSet
Validated: 33
Substitution2: "case-1" P
Substitution2: "pcap-1" p.pcap
Substitution2: "smcp-1" p.smcp
EndChar

StartChar: q
Encoding: 113 113 16
Width: 501
VWidth: 1159
Flags: HMW
AnchorPoint: "Bottom" 209 -15 basechar 0
AnchorPoint: "Top" 263 465 basechar 0
LayerCount: 2
Fore
SplineSet
296 83 m 0
 300 151 304 163.077148438 304 232 c 3
 304 245.551757812 294.59547463 271.450329537 289 283 c 0
 266.861989519 328.695270313 220.403320312 337 189 337 c 3
 168.38671875 337 159 295.2 159 249 c 3
 159 160.491712707 189.047851562 71 284 71 c 3
 291.221679688 71 295.584772601 75.9411342124 296 83 c 0
293 -1 m 1
 273.520833333 -6.6 243.416666667 -15 208 -15 c 3
 96.189189189 -15 11 86.0947368421 11 181 c 3
 11 313.25210084 135.492307692 425 283 425 c 3
 352.444444444 425 360.444444444 401 379 401 c 3
 413.5 401 425.5 425.75 436 434 c 1
 474 412 l 1
 472 408 466.879643191 390.581471337 463 380 c 0
 456.400390625 362 436 306.983398438 436 248 c 0
 436 222.919921875 435 135 435 93 c 3
 435 -109.63583815 445 -186.450258985 453 -220 c 0
 456.491482918 -234.642293456 469.940737181 -261.996796088 483 -265 c 0
 493.365345499 -267.383690916 516.641025641 -269 524 -269 c 1
 520 -341 l 1
 489.565656566 -340 444.575757576 -339 389 -339 c 3
 347.42519685 -339 254.57480315 -344 213 -348 c 1
 209 -284 l 1
 220 -283.25 226.216108935 -283.356692247 238 -281 c 0
 253.773560962 -277.845402879 274 -259 285 -227 c 0
 293.377215966 -202.629917189 293 -92.6643356643 293 -1 c 1
EndSplineSet
Validated: 33
Substitution2: "case-1" Q
Substitution2: "pcap-1" q.pcap
Substitution2: "smcp-1" q.smcp
EndChar

StartChar: r
Encoding: 114 114 17
Width: 372
VWidth: 1159
Flags: HMW
AnchorPoint: "Bottom" 150 -15 basechar 0
AnchorPoint: "Top" 170.5 465 basechar 0
LayerCount: 2
Fore
SplineSet
206 196 m 0
 207 165.395507812 212.627929688 95.0654296875 225 83 c 0
 237.050848202 71.2478309623 250.80232039 65.8169535939 265 65 c 0
 277.813476562 64.2626953125 292.625 66 304 64 c 1
 302 0 l 1
 263.000225361 1 190.999549279 4 149 4 c 3
 107.000500191 4 64.9994998095 -1 23 -5 c 1
 19 61 l 1
 26.21875 60.857421875 35.626953125 64.2568359375 40 66 c 0
 44.78515625 67.552734375 59.83984375 84.0869140625 62 107 c 0
 64.4599609375 126.794921875 68 197.69921875 68 218 c 3
 68 231.494140625 69.0078125 257.319335938 64 274 c 0
 61.599609375 287.32421875 50.7998046875 303 34 303 c 3
 32.021484375 303 25 302 25 302 c 1
 13 360 l 1
 62.8935546875 367 134.36328125 398 191 437 c 1
 212 431 222 431 222 417 c 3
 222 407.358398438 218 379.30859375 218 346 c 1
 247 381 274.7265625 409.865234375 291 423 c 1
 320.400390625 423 368 371.072265625 368 321 c 3
 368 259 318.102539062 217 251 217 c 1
 240.97265625 272.305612665 231.44140625 273 216 273 c 0
 216 273 l 0
 208 243.628865979 205.444335938 209.493294942 206 196 c 0
EndSplineSet
Validated: 37
Substitution2: "case-1" R
Substitution2: "pcap-1" r.pcap
Substitution2: "smcp-1" r.smcp
EndChar

StartChar: s
Encoding: 115 115 18
Width: 361
VWidth: 1159
Flags: HMW
AnchorPoint: "Bottom" 157 -15 basechar 0
AnchorPoint: "Top" 175.5 465 basechar 0
LayerCount: 2
Fore
SplineSet
57 150 m 5
 150.559570312 53.2998046875 178.626953125 65.2998046875 195 65.2998046875 c 7
 199 65.2998046875 207 69.6875 207 78 c 5
 207 108.870117188 172.153320312 122.48046875 151 134.700195312 c 4
 101.591796875 163.241210938 30 187.889648438 30 280 c 7
 30 347 103.125 414 192 414 c 5
 234.127929688 414 272.42578125 408 312 402 c 5
 312 402 322.461914062 331.548828125 329 285 c 5
 299 275 l 5
 272.0859375 270.293945312 206.965820312 334.299804688 187 334.299804688 c 7
 173.666992188 334.299804688 162 328.669921875 162 314 c 5
 162 300.233398438 176.642578125 289.74609375 219 272.700195312 c 4
 298.353515625 240.766601562 343 182.061523438 343 122 c 5
 343 27.1533203125 226.084960938 -15 152 -15 c 5
 97.9501953125 -15 55.400390625 -4 14 10 c 5
 18 25.953125 20 41.9072265625 20 59 c 5
 20 74.6611328125 18 120.338867188 13 136 c 5
 57 150 l 5
EndSplineSet
Validated: 33
Substitution2: "case-1" S
Substitution2: "pcap-1" s.pcap
Substitution2: "smcp-1" s.smcp
EndChar

StartChar: t
Encoding: 116 116 19
Width: 341
VWidth: 1159
Flags: HMW
AnchorPoint: "Bottom" 190 -15 basechar 0
AnchorPoint: "TopRight" 320 531 basechar 0
AnchorPoint: "Top" 150.5 508 basechar 0
LayerCount: 2
Fore
SplineSet
3 347 m 5
 47.3291 406.8 133.073 469 192 487 c 5
 222 481 l 5
 218 455 218 433 216 405 c 5
 251.534 409 293.466 407 329 411 c 5
 321 317 l 5
 285.873 317 245.127 321 210 323 c 5
 204.812 275.381 209 234.501 209 117 c 7
 209 98.7676 212.506 80 261 80 c 7
 284.059 80 291.5 83.7998 317 92 c 5
 317 92 329 66 339 46 c 5
 298.15 18.3213 229.35 -16 167 -16 c 7
 144.392 -16 63 -5.43945 63 97 c 7
 63 183.154 65 236.569 66 321 c 5
 66 321 31 315 9 315 c 5
 3 347 l 5
EndSplineSet
Validated: 33
Substitution2: "case-1" T
Substitution2: "pcap-1" t.pcap
Substitution2: "smcp-1" t.smcp
EndChar

StartChar: u
Encoding: 117 117 20
Width: 526
VWidth: 1159
Flags: HMW
AnchorPoint: "Bottom" 256 -15 basechar 0
AnchorPoint: "Ogonek" 392.65 -3 basechar 0
AnchorPoint: "Horn" 464.5 333 basechar 0
AnchorPoint: "Top" 265 465 basechar 0
LayerCount: 2
Fore
SplineSet
262 372 m 5
 339.543446602 382.882352941 420.012961165 397.029411765 480 409 c 5
 502 377 l 5
 477.818 334.76 464 173.48 464 137 c 7
 464 123.771141191 466.833926729 112.306471111 469.5 100.400390625 c 4
 471.016 93.6302773595 472.786 88 481 88 c 7
 483.24 88 497.8 82.75 509 79 c 5
 521 17 l 5
 468.752550265 6.45714 403.292880549 -11.579958877 357 -24 c 4
 353 -25 352 -28 347 -28 c 7
 327.682 -28 327.682 -6 322 46 c 5
 288.453008696 28 225.454886957 -17 178 -17 c 7
 135.044 -17 92.8483081205 1.1629360898 74 44 c 4
 63 69 58 95 58 143 c 7
 58 179.255 60.4375690183 221.822823086 60.5 254.4 c 4
 60.5128559725 261.108388683 51.6428 265.4 29.5 265.4 c 7
 26.527 265.4 20.2838 266.258 18.5 266.4 c 5
 0 348 l 5
 61.9489774648 359.892 143.540408451 397.73 207 428 c 5
 243 396 l 5
 219.429 339.45 210 273.205 210 211 c 7
 210 148.008 228.314210526 93 315 93 c 7
 316.529 93 318.719 104.585 320 112 c 5
 326.8 159.073123908 328.5 255.52437779 328.5 260.400390625 c 7
 328.5 282.423390625 316.109 294.400390625 271.5 286.400390625 c 5
 262 372 l 5
EndSplineSet
Validated: 33
Substitution2: "case-1" U
Substitution2: "pcap-1" u.pcap
Substitution2: "smcp-1" u.smcp
EndChar

StartChar: v
Encoding: 118 118 21
Width: 435
VWidth: 1159
Flags: HMW
AnchorPoint: "Bottom" 197 -15 basechar 0
AnchorPoint: "Top" 214 465 basechar 0
LayerCount: 2
Fore
SplineSet
443 354 m 1
 414.355932203 332 401.52041755 332.838697318 378 290 c 0
 348.510061356 236.288770053 332.913710603 182.667191208 298 128 c 0
 269.930487479 84.0493175439 237.683006536 29.2745098039 231 -31 c 1
 169 -31 l 1
 146.774193548 91.975274725 103.340279772 226.280483433 44 316 c 0
 38.111228937 324.90352548 30.82217888 331.497504913 23 338 c 0
 17.3147953476 342.726050872 7.41935483871 347.316239316 0 348 c 1
 6 406 l 1
 36.5731707317 402 84.4268292683 401 115 401 c 3
 150.47826087 401 201.608695652 404.636363636 235 409 c 1
 245 345 l 1
 241.218181818 342.777777778 232 341 232 341 c 2
 220.032623022 337.317730161 217.929835457 306.517065741 217.983763936 292.000001156 c 0
 218.00189784 287.118516377 218.734577545 282.093568177 220.028023637 277.000001212 c 0
 226.044523155 253.307136578 244.194159083 228.129588045 259 209 c 1
 278.673057338 233.84915669 292.024971039 255.344558922 297.403320312 284 c 0
 298.002630371 287.193078989 298.114257812 290.536329443 298.114257812 294 c 3
 298.114257812 311.092654237 299.370741478 341.70652337 273 351 c 1
 276 409 l 1
 300.111111111 405.5 311 405 325 405 c 3
 358.552631579 405 398.815789474 410 427 416 c 1
 443 354 l 1
EndSplineSet
Validated: 33
Substitution2: "case-1" V
Substitution2: "pcap-1" v.pcap
Substitution2: "smcp-1" v.smcp
EndChar

StartChar: w
Encoding: 119 119 22
Width: 669
VWidth: 1159
Flags: HMW
AnchorPoint: "Bottom" 296 -15 basechar 0
AnchorPoint: "Top" 325 465 basechar 0
LayerCount: 2
Fore
SplineSet
683 348 m 1
 642.7 323.671875 630.115191023 301.24110784 621 283 c 0
 595.259029151 231.487769046 546.35499295 181.250564541 519 128 c 0
 496.397052967 84 467.80007965 33 468 -25 c 1
 406 -25 l 1
 384.0116179 96.527027027 347.120051635 140.040540541 315 211 c 1
 297.268656717 174.412587413 282.10720893 139.575430822 261 102 c 0
 240.503728241 65.512170456 212.678580801 23.1437908497 217 -25 c 1
 145 -25 l 1
 149.85882353 83.274725275 70.7024160632 244.486909621 27 309 c 0
 23.7702974329 313.767656171 12.6711780368 323.271062251 9 328 c 0
 3.98852218619 334.455411962 -4.33333333333 340.888888889 -11 342 c 1
 -5 400 l 1
 27.8170731707 396 79.1829268293 395 112 395 c 3
 155.804874005 395 169.7719474 396 211 402 c 1
 219 338 l 1
 215.5 337 212 335 212 335 c 0
 206.909090909 332.9 204 328 204 324 c 3
 204 323 204.118038292 314.069443031 205 308 c 0
 207.12928297 293.346799566 216.613053613 241.829694322 248 209 c 1
 261.6 232.571428572 272.8 252.571428571 288 279 c 1
 281.928571429 290.058823529 276.790365992 298.6326434 271 307 c 0
 263.238934464 318.215111967 256.584548911 324.349969708 248 334 c 0
 245.711227701 336.572845964 241.125 340.222222222 238 342 c 1
 239 400 l 1
 266.259259259 396 307.740740741 395 335 395 c 3
 371.956521739 395 425.217391304 400 460 406 c 1
 470 344 l 1
 465.773584906 341.777777778 456 340 456 340 c 0
 449 337.909090909 444 335.818181818 444 328 c 3
 444 326.75 445.125838706 314.304231728 446 308 c 0
 449.767857143 280.827160494 467.337372449 241.407407407 492 215 c 1
 507.983255627 236.327272727 531.382629981 250.44366983 535 283 c 0
 536 292 535 294.559693491 535 305 c 3
 535 326.096797939 519.145129202 341.824929456 483 345 c 1
 499 407 l 1
 535.246153846 400 553.953846154 399 575 399 c 3
 604.72972973 399 638.027027027 404 663 410 c 1
 683 348 l 1
EndSplineSet
Validated: 33
Substitution2: "case-1" W
Substitution2: "pcap-1" w.pcap
Substitution2: "smcp-1" w.smcp
EndChar

StartChar: x
Encoding: 120 120 23
Width: 450
VWidth: 1159
Flags: W
HStem: -4 52<201.192 220 379.979 440> 340 66<11 91.9546 238 243.525>
AnchorPoint: "Bottom" 215 -15 basechar 0
AnchorPoint: "Top" 224 465 basechar 0
LayerCount: 2
Fore
SplineSet
0 52 m 1
 25.2115384615 68.2173913043 50.7202762541 78.9507248319 57 85 c 2
 166 190 l 1
 108 294 l 2
 83.2718018508 338.340217371 71.504950495 344 11 340 c 1
 11 406 l 1
 39.671641791 405 95.328358209 403 124 403 c 0
 162 403 207 405 243 409 c 1
 251 345 l 1
 238 345 238 341.222222222 238 340 c 3
 238 338.634893989 238.875396301 334.453680798 240 332 c 2
 262 284 l 1
 269 294 l 2
 276.497507715 304.710725307 279 317.366666667 279 332 c 3
 279 346.810606061 271.307692308 348.105263158 259 349 c 1
 267 407 l 1
 283 406 310 406 326 406 c 0
 359.673469388 406 413.428571429 408 436 409 c 1
 442 359 l 1
 420.884861407 341 383.513196365 318.999574776 377 313 c 0
 347.492549375 285.819465812 317.666666667 259 288 232 c 1
 314.896551724 182.666666667 336.015995127 125.615883917 366 84 c 0
 383.697441596 59.4370812634 403.314606742 61 447 52 c 1
 439 -4 l 1
 408.914285714 0 353.2 3 322 3 c 0
 285.181818182 3 244.272727273 0 202 -4 c 1
 196 48 l 1
 220 46.0357142857 220 56 220 58 c 3
 220 60.9903063575 219.753373684 67.2084208722 217 73 c 2
 188 134 l 1
 172 107 l 2
 164.205389885 93.8465954316 161 81 161 68 c 3
 161 59.5217391304 163.075471698 55.9318448884 171 55 c 1
 163 -5 l 1
 142.173333333 -3 113.773333333 0 92 0 c 0
 63.1038961039 0 29.5844155844 -3 3 -5 c 1
 0 52 l 1
EndSplineSet
Validated: 33
Substitution2: "case-1" X
Substitution2: "pcap-1" x.pcap
Substitution2: "smcp-1" x.smcp
EndChar

StartChar: y
Encoding: 121 121 24
Width: 460
VWidth: 1159
Flags: HMW
AnchorPoint: "Bottom" 291 -15 basechar 0
AnchorPoint: "Top" 232.5 465 basechar 0
LayerCount: 2
Fore
SplineSet
125 -348 m 1
 119.950819672 -348 95.9672131148 -345 48 -345 c 3
 13.8620689655 -345 5.89655172414 -347 -18 -348 c 1
 -18 -348 -16 -316 -20 -294 c 1
 106 -228 109.407508026 -142.034843206 141 -52 c 1
 129.347903657 79.7967479675 76.4656751591 299.960254935 36 325 c 0
 32.5222815964 327.151976506 25.7878988552 334.080822588 15 337 c 0
 7.7476037555 338.962479588 -1.93548387097 341.619047619 -10 341 c 1
 -2 401 l 1
 32.6419753086 397 85.3580246914 395 120 395 c 3
 160.872340426 395 194.531914894 396 233 402 c 1
 241 346 l 1
 237 346 233 344 233 344 c 0
 229.106036349 342.165579218 227.599053193 341.797159578 226 337 c 0
 225.292893219 334.878679656 226.480184285 338.653282876 224 331 c 0
 207.26599205 279.362669146 211.116722007 201.5 241 142 c 1
 284.664293966 182.905349794 311.014308691 238.820475239 312 284 c 0
 312.083428883 287.823993629 311 287.84 311 290 c 3
 311 320.297297297 300.800877193 336.810810811 256 346 c 1
 268 406 l 1
 297.652173913 399 338.782608696 395 356 395 c 3
 389.445945946 395 426.905405405 397 455 403 c 1
 465 343 l 1
 431.076923077 338 410.190209043 316.16923722 395 284 c 0
 380.291945387 252.851850785 304.714906129 117.154294793 235 -12 c 0
 185.180345518 -104.296220402 180 -226.610778443 125 -348 c 1
EndSplineSet
Validated: 33
Substitution2: "case-1" Y
Substitution2: "pcap-1" y.pcap
Substitution2: "smcp-1" y.smcp
EndChar

StartChar: z
Encoding: 122 122 25
Width: 458
VWidth: 1159
Flags: HMW
AnchorPoint: "Bottom" 222 -15 basechar 0
AnchorPoint: "Top" 228.5 465 basechar 0
LayerCount: 2
Fore
SplineSet
351 -6 m 2
 166 -6 l 2
 138.042553191 -6 40.7092198582 -14 20 -26 c 1
 6 34 l 1
 86.1952054795 124.276470588 158.70890411 227.7 205 332 c 1
 195 333 l 3
 164.391304348 333 137.609446402 331.793975835 107 325 c 0
 77.4465999111 318.440420862 56 298 50 295 c 1
 -2 311 l 1
 34 435 l 1
 57.4426229508 411 88.3442622951 401 229 401 c 3
 322.936842105 401 399.515789474 399 423 413 c 1
 443 373 l 1
 365.165540541 270.654285714 265.841216216 167.402857143 236 56 c 1
 279 58 l 2
 304.993812228 59.2090145222 321.382324805 66.451055285 341 77 c 0
 358.25803161 86.2801017208 372.148930587 99.1252172167 383 120 c 0
 388.48068704 130.543490886 393.181818182 141 399 156 c 1
 447 140 l 1
 412 -26 l 1
 412 -26 389.591836735 -6 351 -6 c 2
EndSplineSet
Validated: 33
Substitution2: "case-1" Z
Substitution2: "pcap-1" z.pcap
Substitution2: "smcp-1" z.smcp
EndChar

StartChar: A
Encoding: 65 65 26
Width: 730
VWidth: 1159
Flags: W
HStem: -20 88<251.357 319.5> -11 78<37.9981 92.3842 658.44 720.375> 692 20G<354 441.071>
VStem: 354 86<609.878 712>
AnchorPoint: "Bottom" 379 -15 basechar 0
AnchorPoint: "Ogonek" 549 27 basechar 0
AnchorPoint: "Top" 398 699 basechar 0
LayerCount: 2
Fore
SplineSet
304 293 m 1x30
 326.5 284 373.19921875 288 394 289 c 1
 376 328 361 350 338 386 c 1
 317 344 315.981445312 325.801757812 304 293 c 1x30
414 -20 m 9xb0
 414 -20 402 24 394 54 c 1
 418.841796875 62.1533203125 459.68359375 91.408203125 458 101 c 0
 442.689453125 148.57421875 436 160.5 426 195 c 1
 388.131835938 213.555664062 326.909179688 223.888671875 272 209 c 9
 258.612304688 173.682617188 241.379882812 155.859375 237.5 119 c 0
 233.5 81 280.07421875 72.8115234375 323.5 68 c 9
 319.5 -20 l 1xb0
 249.71484375 -6.48828125 107.87890625 -2 39 -11 c 9
 39 -11 31 39 29 67 c 1x70
 78.7451171875 86 116.279296875 89.994140625 125 113 c 0
 210.428710938 309.68359375 284.96484375 480.017578125 346 640 c 0
 360.717773438 675.259765625 354 676.450195312 354 712 c 9
 440 712 l 9
 442.142578125 685 431.98046875 677.98828125 446 642 c 0
 503.30859375 438.314453125 545.963867188 288.314453125 654 92 c 0
 665.564453125 65.494140625 705.666992188 60 724 62 c 9
 724 62 722 14 720 -10 c 1
 629.213867188 0 478.056640625 -1.6669921875 414 -20 c 9xb0
EndSplineSet
Validated: 33
Position2: "cpsp-1" dx=0 dy=0 dh=10 dv=20
Substitution2: "c2pc-1" a.pcap
Substitution2: "c2sc-1" a.smcp
EndChar

StartChar: B
Encoding: 66 66 27
Width: 633
VWidth: 1159
Flags: W
HStem: -10 76<28 103.216 286.757 383.494> 334 60<281 337.133> 612 88<288.006 327.228> 624 76<30 84.5712>
VStem: 118 159<81.3476 334 394 572.546> 355 180<450.098 591.801> 410 180<98.6932 262.124>
AnchorPoint: "Top" 278 699 basechar 0
AnchorPoint: "Bottom" 311 -15 basechar 0
LayerCount: 2
Fore
SplineSet
22 64 m 1xea
 39 64 109.857 66.2564 112 108 c 0
 112 112.201 118 194.539 118 292 c 3
 118 439.482 103.84 565.145 102 573 c 0
 100.5 566.844 94 602.779 85 610 c 0
 76.5233 613.498 24.625 622.6 16 624 c 1
 30 700 l 1xda
 40.5714 700 83.9143 690 141 690 c 3
 198.025 690 257.202 700 311 700 c 3
 488.142 700 535 580.045 535 518 c 3xec
 535 448.43 489.18 421.8 419 372 c 1
 491.5 375.8 590 279.548 590 181 c 3
 590 66.4 483.31 -10 317 -10 c 3
 260.025 -10 206.275 -4 145 -4 c 3
 82.8108 -4 35.3784 -8 28 -8 c 1
 22 64 l 1xea
311 396 m 0
 339.641 403.119 355 438 355 480 c 3
 355 512.571 347.492 612 306 612 c 3
 305.277 612 304.077 612.055 303.75 612 c 0xec
 295.861 611.5 286.763 605.746 286 594 c 0
 279.75 497.831 281 394 281 394 c 1
 305.849 394 307.97 395 311 396 c 0
287 334 m 0
 277 334 l 9
 279 255.368 279 178.34 283 131 c 0
 284.899 108.528 277.737 81.6545 303 72 c 0
 307.219 70.3878 324.728 66 335 66 c 3
 383.985 66 410 103.09 410 175 c 3xca
 410 253.105 374.508 334 287 334 c 0
EndSplineSet
Validated: 33
Position2: "cpsp-1" dx=0 dy=0 dh=10 dv=20
Substitution2: "c2pc-1" b.pcap
Substitution2: "c2sc-1" b.smcp
EndChar

StartChar: C
Encoding: 67 67 28
Width: 760
VWidth: 1159
Flags: W
HStem: -15 84<393.221 540.504> 625 80<350.015 508.328>
VStem: 38 206<250.664 467.933>
AnchorPoint: "Top" 433 699 basechar 0
AnchorPoint: "Bottom" 423 -15 basechar 0
LayerCount: 2
Fore
SplineSet
38 348 m 3
 38 522.94 165.683 705 454 705 c 3
 520.769 705 559.461 699.857 622 678 c 0
 660.342 665.559 649 701.8 668 692 c 1
 722 664 l 1
 684 605.412 685 569.282 685 547.8 c 0
 685 507.8 683 493.8 619 493.8 c 1
 591 493.8 581 535.8 561 561.8 c 0
 516.602 604.599 480.663 625 426 625 c 27
 324.537 625 244 539.485 244 388 c 3
 244 190.886 357.751 69 473 69 c 3
 530.571 69 621 135.8 671 201 c 9
 725 185 l 1
 714.138 130.95 704.483 101.05 690 47 c 1
 623.755 12.6786 542.79 -15 445 -15 c 3
 218.316 -15 38 136.504 38 348 c 3
EndSplineSet
Validated: 33
Position2: "cpsp-1" dx=0 dy=0 dh=10 dv=20
Substitution2: "c2pc-1" c.pcap
Substitution2: "c2sc-1" c.smcp
EndChar

StartChar: D
Encoding: 68 68 29
Width: 856
VWidth: 1159
Flags: W
HStem: -16 76<44.6316 108.834> -13 88<249.476 479.55> 605 82<42 108.73> 621 74<307.566 463.985>
VStem: 620 188<215.739 454.892>
AnchorPoint: "Bottom" 404 -15 basechar 0
AnchorPoint: "Top" 404 699 basechar 0
LayerCount: 2
Fore
SplineSet
375 75 m 3x58
 523.485351562 75 620 175.913085938 620 326 c 3
 620 517.747070312 509.359375 621 345 621 c 3
 335.627929688 621 332.680664062 617.677734375 321 613.900390625 c 0
 302.071289062 607.778320312 301.5 568.900390625 301.5 568.900390625 c 0
 301.5 415.049804688 291.5 283.299804688 304 132 c 0
 305.745117188 110.876953125 309.463867188 97.3134765625 335 84.900390625 c 0
 345.783203125 79.6591796875 359 75 375 75 c 3x58
42 687 m 25xa8
 91.97265625 685 121.02734375 681 171 681 c 27
 258 681 306 695 393 695 c 3
 614.40234375 695 808 557.637695312 808 346 c 3
 808 67.3427734375 578.733398438 -13 369 -13 c 3x58
 295 -13 252 -6 178 -6 c 3
 92.4169921875 -6 79.6953125 -11 45 -16 c 9
 41 60 l 1
 57.5 66.3427734375 119.46484375 66.376953125 124 107 c 0
 143.065429688 277.796875 130.109375 505.8046875 113 572 c 0
 103.696289062 607.997070312 77.5 607.3046875 40 605 c 9
 42 687 l 25xa8
EndSplineSet
Validated: 33
Position2: "cpsp-1" dx=0 dy=0 dh=10 dv=20
Substitution2: "c2pc-1" d.pcap
Substitution2: "c2sc-1" d.smcp
EndChar

StartChar: E
Encoding: 69 69 30
Width: 672
VWidth: 1159
Flags: W
HStem: -6 99<343.791 480.995> 316 72<279 442.523> 629 62<35 75.6067>
VStem: 478 72<230 279.035>
AnchorPoint: "Bottom" 332 -15 basechar 0
AnchorPoint: "Ogonek" 571 15 basechar 0
AnchorPoint: "Top" 335 699 basechar 0
LayerCount: 2
Fore
SplineSet
35 691 m 1
 245.349609375 671 563.516601562 685 591 697 c 1
 629 664.090820312 596 672.318359375 585 516 c 1
 525 510 l 1
 505 519.900390625 514.409179688 557.250976562 503 571 c 0
 471.737304688 608.471679688 374.9765625 617 318 597 c 0
 306.081054688 592.81640625 293.791015625 583.283203125 292 563 c 0
 286.799804688 504.094726562 280.299804688 443.614257812 279 388 c 1
 315.83984375 392 407.9453125 391.926757812 416 394 c 0
 455.37890625 404.1328125 473.5 456.700195312 484 471 c 1
 552 457 l 1
 535 380.936523438 539 306.063476562 550 230 c 1
 478 212 l 1
 456.5 274.700195312 463.07421875 296.7265625 416 306 c 0
 389.283203125 311.262695312 332.53515625 314 279 316 c 1
 277.799804688 242.188476562 282.795898438 174.0546875 297 125 c 0
 301.864257812 108.203125 313 93.900390625 333 93 c 0
 369.016497609 90.9052714051 399.563031832 92.7484809756 426 97.7215820792 c 0
 503.611397348 112.321188333 545.804823963 153.895517763 587 202 c 1
 643 188 l 1
 625.768554688 112.681640625 613.922851562 64.7529296875 601 -6 c 1
 399.200195312 -8 179.533203125 18 45 -24 c 1
 25 46 l 1
 65.4345703125 66.7001953125 86.537109375 82.423828125 105 121 c 0
 133.818359375 181.21484375 125.461914062 506.03125 106 572 c 0
 97.3623046875 601.280273438 95.24609375 602.536132812 25 629 c 1
 35 691 l 1
EndSplineSet
Validated: 33
Position2: "cpsp-1" dx=0 dy=0 dh=10 dv=20
Substitution2: "c2pc-1" e.pcap
Substitution2: "c2sc-1" e.smcp
EndChar

StartChar: F
Encoding: 70 70 31
Width: 587
VWidth: 1159
Flags: W
HStem: -15 70<31 69.677> 299 78<270 407.5> 629 62<13 53.6325> 695 20G<539.291 567.5>
VStem: 441 72<214 257.616> 494 62<493 531.83>
AnchorPoint: "Bottom" 185 -15 basechar 0
AnchorPoint: "Top" 323 699 basechar 0
LayerCount: 2
Fore
SplineSet
411 -20 m 1xf8
 269.007 6 204.097 6 31 -15 c 1
 11 55 l 1
 54 57 104 93.4118 104 118 c 1
 112 183.794 110 504.226 98 576 c 0
 96 602.88 68.8068 602.902 3 629 c 1
 13 691 l 1
 223.94 675 535.581 691 543 715 c 1
 592 688.253 567 670.868 556 493 c 1
 494 487 l 1xf4
 488.073 506.6 468.541 552.204 451 569 c 0
 410.417 607.86 345.235 624 293 604 c 0
 279.181 600 276.278 569.265 276 567 c 0
 267.879 500.926 270 438.158 270 377 c 1
 302.305 381 368.935 375 376 377 c 0
 420.273 385.384 432.746 429.751 447 460 c 1
 515 446 l 1
 498 368.262 502 291.738 513 214 c 1
 441 196 l 1
 416.363 261.507 424.265 282.174 376 289 c 0
 353.478 299 315.601 297 268 299 c 1
 278 219.314 270 168.541 294 122 c 0
 311.297 88.4564 332.073 80.6 423 76 c 1
 411 -20 l 1xf8
EndSplineSet
Validated: 33
Position2: "cpsp-1" dx=0 dy=0 dh=10 dv=20
Substitution2: "c2pc-1" f.pcap
Substitution2: "c2sc-1" f.smcp
EndChar

StartChar: G
Encoding: 71 71 32
Width: 811
VWidth: 1159
Flags: W
HStem: -15 74<418.349 544.07> 294 64<475 547.76> 638 76<351.533 548.002> 679 20G<641 696>
VStem: 26 198<265.76 465.432> 651 62<531.645 552.729>
AnchorPoint: "Bottom" 421 -15 basechar 0
AnchorPoint: "Top" 444 699 basechar 0
LayerCount: 2
Fore
SplineSet
26 353 m 7xec
 26 612.26171875 311.987304688 714 469 714 c 7xec
 574.66015625 714 606.197265625 684.966796875 626 684 c 4
 638.151367188 683.40625 638 688 644 699 c 5xdc
 696 697 l 5
 713 533 l 5
 651 521 l 5
 596 614 514.201171875 638 453 638 c 7
 253.452148438 638 224 458.76953125 224 375 c 7
 224 199 374.053185471 59 513 59 c 7
 536.194827009 59 540 72 546 84 c 4
 554.010756426 100.021512852 558.783202203 138.445079126 559 141 c 4
 561 164.569620253 563 203.64556962 563 239 c 4
 563 243 549.874749251 291.841160719 508 294 c 4
 493.829875487 294.730536229 484.609195402 297 471 294 c 5
 475 358 l 5
 590.574144487 348 717.479087452 349 773 355 c 5
 779 307 l 5
 758.846153846 297.2 739 281.378923506 737 268 c 4
 733 217.8125 730.740263727 172.656277215 727 136 c 4
 725.114350529 122.529010231 734.535714286 89.7954545455 758 75 c 5
 752 33 l 5
 669.808080808 19.2857142857 499.181818182 -15 443 -15 c 7
 208.244444444 -15 26 136.5078125 26 353 c 7xec
EndSplineSet
Validated: 33
Position2: "cpsp-1" dx=0 dy=0 dh=10 dv=20
Substitution2: "c2pc-1" g.pcap
Substitution2: "c2sc-1" g.smcp
EndChar

StartChar: H
Encoding: 72 72 33
Width: 856
VWidth: 1159
Flags: W
HStem: -21 70<516.28 572.381> 290 80<270 604> 630 68<510 568.856> 685 20G<769.06 837.243>
AnchorPoint: "Bottom" 438 -15 basechar 0
AnchorPoint: "Top" 438 699 basechar 0
LayerCount: 2
Fore
SplineSet
20 698 m 1xe0
 135.447470817 687 228.073929961 682 365 694 c 1
 369 620 l 1
 393.333333333 628.421052632 287.82733478 610.213051192 286 603 c 0
 278 571.421544776 272.666666667 460.469205224 270 370 c 1
 604 370 l 1
 604 433.458032389 600.628446847 569.358508829 586 599 c 0
 581.073429698 608.982665395 506.530864198 632.638297872 500 630 c 1
 510 698 l 1xe0
 631.5 682 704.120689655 682 834 705 c 1xd0
 846 631 l 1
 809.168880455 635.947368421 787.227457475 613.037243794 786 596 c 0
 776.755094556 467.679702829 753.172966645 153.361616954 792 77 c 0
 802.304791298 56.7334367864 835.38028169 42 847 50 c 1
 847 50 837 10 839 -18 c 1
 740.337662338 -3 636.116883117 -1 518 -21 c 1
 518 -21 506 25 502 49 c 1
 526 45 584.808089637 68.2974643797 588 86 c 0
 601.725 162.119713208 604.2 210.074339623 606 290 c 1
 270 290 l 1
 266 222.415194656 263.578890884 150.320159583 274 91 c 0
 280 56.8461538462 383 46 371 54 c 1
 371 54 363 8 361 -20 c 1
 231.709677419 -4 133.39516129 -1 27 -18 c 1
 27 -18 17 30 13 66 c 1
 14.6144578313 52 78.8633920361 85.0535942907 80 91 c 0
 99.2228212443 191.568267712 113.919990435 539.853210947 78 598 c 0
 67.2421188706 615.414710781 15.9844155844 627.555555556 14 622 c 1
 20 698 l 1xe0
EndSplineSet
Validated: 37
Position2: "cpsp-1" dx=0 dy=0 dh=10 dv=20
Substitution2: "c2pc-1" h.pcap
Substitution2: "c2sc-1" h.smcp
EndChar

StartChar: I
Encoding: 73 73 34
Width: 387
VWidth: 1159
Flags: W
HStem: -10 78<289.856 364>
AnchorPoint: "Bottom" 191 -15 basechar 0
AnchorPoint: "Ogonek" 258 15 basechar 0
AnchorPoint: "Top" 195 699 basechar 0
LayerCount: 2
Fore
SplineSet
34 695 m 5
 159.128 674 230.321 677 363 692 c 13
 365.5 613.5 l 5
 305.816 617.5 299.966 607.554 298 598 c 4
 272.094 472.136 272.955 283.976 285 96 c 4
 286.943 65.6785 351.226 68.4 366 68 c 13
 364 -10 l 5
 255.206 -2.68732 122.714 2.92916 29 -11 c 5
 19 69 l 5
 35.7522 68.4 99.7613 66.777 105 107 c 4
 122.544 241.706 125.996 470.453 99.5 587.5 c 4
 94.9285 607.694 76.1565 612.072 30 609 c 13
 34 695 l 5
EndSplineSet
Validated: 33
Position2: "cpsp-1" dx=0 dy=0 dh=10 dv=20
Substitution2: "c2pc-1" i.pcap
Substitution2: "c2sc-1" i.smcp
EndChar

StartChar: J
Encoding: 74 74 35
Width: 350
VWidth: 1356
Flags: HMW
AnchorPoint: "Bottom" 196 -138.8 basechar 0
AnchorPoint: "Top" 179 699 basechar 0
LayerCount: 2
Fore
SplineSet
81 587 m 0
 72.0804702665 607.343399772 15.8596491228 624 2 618 c 1
 10 698 l 1
 135.127868852 677 206.321311475 683 339 698 c 1
 343 612 l 1
 328.411764706 616 286.931304958 619.645075617 281 589 c 0
 259.711280284 479.008281467 267 367.431289006 267 225 c 3
 267 77.0888888889 278 17.9170035899 278 -31 c 3
 278 -91.684516129 181.296868124 -159.515479393 84 -218 c 0
 58.906400123 -233.083601224 37 -243.764705882 15 -257 c 1
 -35 -191 l 1
 -12 -181.222222222 6.56416657421 -171.152848579 23 -159 c 0
 28 -156.090909091 33.5849890553 -154.39502407 37 -151 c 0
 97.2777777778 -89 107 -2.83050847458 107 97 c 3
 107 131.74566274 95.087890625 554.868755474 81 587 c 0
EndSplineSet
Validated: 33
Position2: "cpsp-1" dx=0 dy=0 dh=10 dv=20
Substitution2: "c2pc-1" j.pcap
Substitution2: "c2sc-1" j.smcp
EndChar

StartChar: K
Encoding: 75 75 36
Width: 717
VWidth: 1159
Flags: W
HStem: -14 58<311.046 355.69 429.31 446.661> -11 66<6 61.7426> 626 72<610.754 649.75> 631 64<15 55.9197 290.506 336.656 382 441.982>
AnchorPoint: "Bottom" 377 -15 basechar 0
AnchorPoint: "Top" 362 699 basechar 0
LayerCount: 2
Fore
SplineSet
382 689 m 1x50
 449.60546875 682 576.168945312 684 648 698 c 1
 666 626 l 1
 643 625 573.857181357 585.138850968 569 580 c 0
 507.142198081 514.555042952 440.982078853 452.127572016 378 387 c 1
 647 106 l 0
 657 96 691 64 715 41 c 1
 707 -7 l 1
 679 -5 629 -2 601 -2 c 0
 564.299065421 -2 465.588867188 -9 430 -14 c 1
 422 44 l 1
 460 46 449.05078125 63.7265625 440 77 c 0
 427.014161295 96.044402209 319.220447284 217.279069767 256 285 c 1
 256 222.797468354 258 145.23628692 266 103 c 0
 270 83.0464865001 334.462365591 50 363 44 c 1xa0
 355 -16 l 1
 250.435797665 -4 141.79766537 1 6 -11 c 1
 0 55 l 1
 34.0886075949 53.9302325581 78.1217891777 80.5707845871 82 95 c 0
 101.611352916 245.283203716 103.523436693 408.053071326 89 565 c 0
 84.7628377444 591.154896262 55 627 3 632 c 1
 15 694 l 1
 125 682 227.375 685 336 695 c 1
 342 631 l 1
 306 636 283 608.943350942 273 584 c 0
 263 511.378486056 255 442.215139442 256 367 c 1
 312.228571429 432.955947137 374.186542822 492.750353617 424 564 c 0
 435.161911769 579.965209234 445.05859375 596.814453125 445 613 c 0
 444.936523438 630.630859375 404 630 380 630 c 1
 382 689 l 1x50
EndSplineSet
Validated: 33
Position2: "cpsp-1" dx=0 dy=0 dh=10 dv=20
Substitution2: "c2pc-1" k.pcap
Substitution2: "c2sc-1" k.smcp
EndChar

StartChar: L
Encoding: 76 76 37
Width: 658
VWidth: 1159
Flags: W
HStem: -13 88<25 94.0769> -4 101<289.807 483.761> 678 20G<20.1395 77.7405>
VStem: 104 176<99.1063 584.528>
AnchorPoint: "Bottom" 320 -15 basechar 0
AnchorPoint: "TopRight" 368.5 581 basechar 0
AnchorPoint: "Top" 177 699 basechar 0
LayerCount: 2
Fore
SplineSet
372 695 m 5xb0
 380 615 l 5
 348.73 613.87 293.005 609.422 286 540 c 4
 282.384 504.165 280 217 280 217 c 4
 280 175.002 283.065 99 306 97 c 4
 328.844 98 440.526 97.4836 458 100 c 4
 489.158 104.487 549.879 218.437 561 242 c 5
 631 228 l 5
 635.983 145.35 614.693 174.35 578 -33 c 5
 556 -21.3 550 -9.6 506 -7 c 4
 495 -7 406 -4 304 -4 c 4x70
 74.1724 -4 36.7586 -13 25 -13 c 5
 15 75 l 5
 70.7703 81.9983 98.8514 83.2051 100 115 c 4
 100 118.304 104 199.241 104 300 c 4
 104 437.257 94 569.131 92 579 c 4
 88.1951 594.34 63.3905 609.433 14 612 c 5
 22 698 l 5
 133.481 677 273.481 684 372 695 c 5xb0
EndSplineSet
Validated: 33
Position2: "cpsp-1" dx=0 dy=0 dh=10 dv=20
Substitution2: "c2pc-1" l.pcap
Substitution2: "c2sc-1" l.smcp
EndChar

StartChar: M
Encoding: 77 77 38
Width: 997
VWidth: 1159
Flags: W
HStem: -16 82<274.072 336> 617 88<33.7273 107.429> 617 80<908.652 971>
AnchorPoint: "Bottom" 483 -15 basechar 0
AnchorPoint: "Top" 517 699 basechar 0
LayerCount: 2
Fore
SplineSet
975 -5 m 1xa0
 875.352941176 9 752.411764706 10 623 -8 c 1
 613 68 l 1
 674 64 718.679824218 128.69899671 723 159 c 0
 735.642759027 247.674235086 729 334.48935109 709 417 c 1
 644.252734142 321.911159794 595.759877713 217.320895893 557 122 c 0
 543.514555877 88.8356896066 530.309859155 44.3125 534 9 c 1
 450 9 l 1
 454 53.3075595018 442.681354465 96.3915933308 424 131 c 2
 268 420 l 1
 240.286132812 334.3359375 232.519217531 248.604065036 240 151 c 0
 244.841902959 87.8262059166 285 75 346 66 c 1
 336 -16 l 1
 247.616858238 -5 128.965517241 0 20 -16 c 1
 16 66 l 1
 90 67 127.745661802 126.492909308 129 143 c 2
 154 472 l 2
 156.882477189 509.933399801 153.358450542 531.933743491 133 567 c 0
 113.822429907 600.032258065 87.1869158879 621.887096774 19 617 c 1xa0
 35 705 l 1xc0
 122.305263158 694.923076923 225.087057147 678.079354974 321 690 c 0
 339.14178039 692.254771022 343.952310625 677.395306609 348 665 c 0
 390.772908367 534.015810106 444.358565737 410.341112097 538 302 c 1
 727 687 l 0
 732 696 740.838405298 700.023938478 747 699 c 0
 819.210526316 687 898.789473684 691 971 697 c 1
 979 617 l 1
 930 628 874.822255708 574.237074574 874 548 c 0
 869.819964759 414.620693161 868.796630074 280.830329337 883 153 c 0
 889 99 932 62 977 81 c 1
 975 -5 l 1xa0
EndSplineSet
Validated: 33
Position2: "cpsp-1" dx=0 dy=0 dh=10 dv=20
Substitution2: "c2pc-1" m.pcap
Substitution2: "c2sc-1" m.smcp
EndChar

StartChar: N
Encoding: 78 78 39
Width: 831
VWidth: 1159
Flags: W
HStem: -16 88<20 68.9079> 624 74<764.908 820> 687 20G<543.895 600.563>
AnchorPoint: "Bottom" 439 -15 basechar 0
AnchorPoint: "Top" 435 699 basechar 0
LayerCount: 2
Fore
SplineSet
10 698 m 1xc0
 68.5 693 146.507376722 689 208 688 c 0
 223.017801942 688.730576039 223.901653739 683.903016439 231 677 c 0
 360.15 521.683375723 474.875 384.416992188 644 279 c 1
 652.099609375 353.956054688 644.002929688 429.14453125 643 508 c 0
 640.866210938 635.1640625 537 637 538 631 c 1
 546 707 l 1xa0
 655.125976562 693 735.783203125 694 820 698 c 1
 830 624 l 1
 777.689453125 617.217773438 759.09375 619.259765625 751 572 c 0
 729.845703125 403.227539062 733.22265625 219.760742188 736 28 c 0
 736 15.697265625 745.208007812 -5.697265625 749 -18 c 1
 675 -40 l 1
 654.87890625 0.6689453125 645.647460938 25.521484375 619 47 c 0
 475.749023438 182.809570312 367.704896364 312.066929772 213 433 c 1
 195 187 l 2
 192.499050903 152.820362345 211 76 293 71 c 1
 277 -21 l 1
 177.346938776 10 91.330612245 -9 20 -16 c 1
 10 72 l 1
 48 60 81 96.1227121749 85 126 c 0
 103 257.584198745 105 396.710939331 101 535 c 0
 99 533 20 624 6 610 c 1
 10 698 l 1xc0
EndSplineSet
Validated: 37
Position2: "cpsp-1" dx=0 dy=0 dh=10 dv=20
Substitution2: "c2pc-1" n.pcap
Substitution2: "c2sc-1" n.smcp
EndChar

StartChar: O
Encoding: 79 79 40
Width: 847
VWidth: 1159
Flags: W
HStem: -13 100<390.056 532.953> 617 98<300.65 441.145>
VStem: 32 186<306.148 461.539> 613 202<227.118 419.153>
AnchorPoint: "Horn" 714.5 573 basechar 0
AnchorPoint: "Middle" 424.697 364.853 basechar 0
AnchorPoint: "Bottom" 423 -15 basechar 0
AnchorPoint: "Ogonek" 487 11 basechar 0
AnchorPoint: "Top" 427 699 basechar 0
LayerCount: 2
Fore
SplineSet
355 617 m 3
 279.247070312 617 218 560.999023438 218 426 c 3
 218 247.560546875 348.490234375 87 469 87 c 3
 558.998046875 87 613 186.909179688 613 304 c 3
 613 460.985351562 496.484375 617 355 617 c 3
429 715 m 3
 642.641601562 715 815 550.30078125 815 344 c 3
 815 144.686523438 651.903320312 -13 431 -13 c 3
 210.364257812 -13 32 143.669921875 32 344 c 3
 32 544.203125 212.455078125 715 429 715 c 3
EndSplineSet
Validated: 1
Position2: "cpsp-1" dx=0 dy=0 dh=10 dv=20
Substitution2: "c2pc-1" o.pcap
Substitution2: "c2sc-1" o.smcp
EndChar

StartChar: P
Encoding: 80 80 41
Width: 637
VWidth: 1159
Flags: W
HStem: -23 76<57.4211 86.5051> -16 85<317.151 403> 619 78<299.29 359.833>
VStem: 117 182<316.325 595.234> 424 178<376.219 536.863>
AnchorPoint: "Bottom" 235 -15 basechar 0
AnchorPoint: "Top" 320 699 basechar 0
LayerCount: 2
Fore
SplineSet
309.999997123 314.785683551 m 0x38
 375.602423918 320.987048131 424 364.015104079 424 448 c 3
 424 526.20703125 369.760949032 606.796750582 330 616 c 0
 319.21875 617.975585938 313.048177083 619 306 619 c 3
 305.963169643 619 298.498717604 614.546053177 298 605 c 0
 292.58203125 541.180664062 295.5 427.263671875 293 314 c 1
 298.777207086 314 304.450168017 314.261060983 309.999997123 314.785683551 c 0x38
39 690 m 1
 62.3740234375 688 92.939453125 686 128 686 c 3
 203.70703125 686 245.29296875 697 321 697 c 3
 493.360351562 697 602 575.880859375 602 464 c 3
 602 348.944317202 506.883543755 247.19869919 314 242.1928513 c 0
 309.064039237 242.064749813 304.064054044 242 299 242 c 1
 303 185.9375 302.793177481 123.819759339 312 99 c 0
 324 66.650390625 351 79 411 69 c 1
 403 -16 l 1x78
 265.538085938 2 206.625976562 5 60 -23 c 1
 32 53 l 1xb8
 108.596679688 88.3515625 124.042260892 76.5722464441 126 104 c 0
 135.260742188 233.7421875 125.649059924 425.03817877 117 574 c 0
 116.189453125 587.959960938 84.15234375 607 36 608 c 1
 39 690 l 1
EndSplineSet
Validated: 33
Position2: "cpsp-1" dx=0 dy=0 dh=10 dv=20
Substitution2: "c2pc-1" p.pcap
Substitution2: "c2sc-1" p.smcp
EndChar

StartChar: Q
Encoding: 81 81 42
Width: 813
VWidth: 1361
Flags: W
HStem: -175 84<700.391 883.713> 650 64<322.327 453.761>
VStem: 47 196<262.988 491.386> 565 204<241.464 482.138>
AnchorPoint: "Middle" 408.697 364.853 basechar 0
AnchorPoint: "Top" 411 699 basechar 0
AnchorPoint: "Bottom" 359 -15 basechar 0
LayerCount: 2
Fore
SplineSet
383 650 m 3
 301.481445312 650 243 556.599609375 243 415 c 3
 243 246.259765625 315.197265625 91 431 91 c 3
 524.826171875 91 565 185.006835938 565 323 c 3
 565 549.990234375 480.625 650 383 650 c 3
602 47 m 1
 683.573242188 -44.6064453125 796.904296875 -91 857 -91 c 3
 866.811523438 -91 875.641601562 -95 883 -90 c 1
 893 -150 l 1
 849 -168.75 807 -175 765 -175 c 3
 635.78125 -175 510.763671875 -113.5 391 -11 c 1
 185.583007812 2 47 157.756835938 47 361 c 3
 47 583.743164062 207.375976562 714 405 714 c 3
 603.545898438 714 769 566.438476562 769 363 c 3
 769 188.29296875 646.4609375 73.5029296875 602 47 c 1
EndSplineSet
Validated: 1
Position2: "cpsp-1" dx=0 dy=0 dh=10 dv=20
Substitution2: "salt-1" Q.alt
Substitution2: "c2pc-1" q.pcap
Substitution2: "c2sc-1" q.smcp
EndChar

StartChar: R
Encoding: 82 82 43
Width: 761
VWidth: 1159
Flags: W
HStem: -39 74<738.442 804> -16 88<52 112.188 345.845 401.273> 287.034 85.9659<302.593 334.432> 618 74<41 110.093> 630 84<309.06 368.192>
VStem: 434 174<425.159 556.625>
AnchorPoint: "Bottom" 410 -15 basechar 0
AnchorPoint: "Top" 337 699 basechar 0
LayerCount: 2
Fore
SplineSet
302 377 m 1x2c
 314.73828125 376 321.26171875 373 334 373 c 3
 417.428710938 373 434 444.7734375 434 488 c 3
 434 542.967773438 380.610351562 630 311 630 c 3
 309.1015625 630 307.671875 618.381835938 305 565 c 0
 301.978515625 504.627929688 300 436.041015625 302 377 c 1x2c
41 692 m 1x74
 88.6484375 691 116.3515625 690 164 690 c 3
 237.677734375 690 268.64453125 714 353 714 c 1
 492.568359375 714 608 622.967773438 608 510 c 1
 608 417.068359375 526 338 492 322 c 1
 623.424804688 150.138671875 698.109375 36.693359375 818 35 c 1
 804 -39 l 1xac
 605.108398438 -43.5791015625 391.999023438 131.326171875 328 287 c 1
 327.314154649 287 326.648402176 287.011846071 326 287.034064161 c 0
 317.09555661 287.339183013 311.46325046 289.600387942 302 290 c 1
 312 218.975585938 310.705078125 167.8828125 326 108 c 0
 327.881835938 100.633789062 380 72 416 72 c 1
 400 -16 l 1
 284.481445312 1 168.962890625 3 52 -13 c 1
 38 69 l 1
 84 75.22265625 117.755859375 74.572265625 122 111 c 0
 146 317 140.971679688 386.684570312 128 555 c 0
 124.913085938 596.321289062 95.3798828125 616.529296875 41 618 c 1
 41 692 l 1x74
EndSplineSet
Validated: 33
Position2: "cpsp-1" dx=0 dy=0 dh=10 dv=20
Substitution2: "salt-1" R.alt
Substitution2: "c2pc-1" r.pcap
Substitution2: "c2sc-1" r.smcp
EndChar

StartChar: S
Encoding: 83 83 44
Width: 586
VWidth: 1159
Flags: W
HStem: -16 86<227.428 363.395> -14 21G<57 130.852> 640 76<258.045 380.587>
VStem: 67 164<476.08 590.057> 392 160<103.326 228.199> 471 66<522.346 559.485>
AnchorPoint: "Bottom" 297 -15 basechar 0
AnchorPoint: "Top" 319 699 basechar 0
LayerCount: 2
Fore
SplineSet
28 206 m 1x78
 96 218 l 1
 96 218 115.844544923 193.245930978 136 164 c 0
 172.255736655 111.39226836 252.892307692 70 310 70 c 3
 368.775166556 70 392 122.534351145 392 163 c 3xb8
 392 253.594675771 305.995874105 280.427326062 230 304.163085938 c 0
 116.352136061 339.6586762 67 416.219049416 67 499 c 3
 67 602.075 148.867768595 716 321 716 c 3
 367.759689922 716 408.09082941 708.29010788 425 699 c 0
 442.879752073 689.176642625 455.136363636 673.5 476 716 c 1
 536 698 l 1
 508 621.955223881 522.868254886 628.461107898 537 579 c 0
 549 537 537 501 471 513 c 1xb4
 463.809526407 539.56509286 448.877964937 563.653815212 429.000001756 583.536033703 c 0
 394.404863534 618.138577767 344.827519443 640 295 640 c 3
 281.925170068 640 231 623.605633803 231 543 c 3
 231 460.832513155 284.486079528 449.826620356 368 427.790039062 c 0
 469.401664531 401.033469485 552 309.204396266 552 197 c 3
 552 107.785340314 494.327935223 -16 293 -16 c 3xb8
 254.369566352 -16 195.349209243 12.5794974413 161.00000098 16.7431995863 c 0
 128.353232624 20.7005373623 140.704831597 5.91948117839 121 -14 c 1
 57 -6 l 1
 58.0357142857 69.4020618557 54.9285714286 89.0721649485 28 206 c 1x78
EndSplineSet
Validated: 33
Position2: "cpsp-1" dx=0 dy=0 dh=10 dv=20
Substitution2: "c2pc-1" s.pcap
Substitution2: "c2sc-1" s.smcp
EndChar

StartChar: T
Encoding: 84 84 45
Width: 744
VWidth: 1159
Flags: W
HStem: 588 101<138.947 282.754 478.892 577.25> 692 20G<680.395 722.5>
VStem: 618 74<501 557.497>
AnchorPoint: "Bottom" 371 -15 basechar 0
AnchorPoint: "Top" 371 699 basechar 0
LayerCount: 2
Fore
SplineSet
151 689 m 0
 312.018899601 685.185546875 473.021708777 686 635 686 c 0
 656.052734375 686 675.7890625 696.400390625 685 712 c 1
 745 680 l 1
 722.515625 624.09765625 695.211914062 561.983398438 692 489 c 1
 618 501 l 1
 618 513.333007812 617.169186192 490.826672332 622 518 c 0
 630 563 542 581 480 586 c 1
 468 435.666992188 461.885742188 288.672851562 470 135 c 0
 471.961914062 97.837890625 478 60 540 71 c 1
 526 -17 l 1
 440 3 297 -4 216 -27 c 1
 200 75 l 1
 276 60 274.534179688 99.349609375 276 112 c 0
 288 215.58984375 304 534.920898438 276 588 c 1
 230.958007812 592.659179688 193.229492188 585.305664062 156 572.809570312 c 0
 118.053710938 560.073242188 89.845703125 542.142578125 77 500 c 1
 -1 538 l 1
 19 587.864257812 48 688.87109375 59 717 c 1
 105.651367188 709 141.416924838 689.294921875 151 689 c 0
EndSplineSet
Validated: 33
Position2: "cpsp-1" dx=0 dy=0 dh=10 dv=20
Substitution2: "c2pc-1" t.pcap
Substitution2: "c2sc-1" t.smcp
EndChar

StartChar: comma
Encoding: 44 44 47
Width: 200
VWidth: 1159
Flags: W
VStem: -11.2998 225.6<17.9528 71.9716>
LayerCount: 2
Fore
SplineSet
22.5 -182.08984375 m 1
 -9.5 -132.08984375 l 1
 29.357421875 -108.8359375 78.5 -62.3271484375 62.5 -28 c 0
 50.6884765625 -4.6708984375 24.7041015625 11.2353515625 -0.099609375 22.900390625 c 0
 -8.099609375 26.1005859375 -11.2998046875 37.30078125 -11.2998046875 46.900390625 c 3
 -11.2998046875 56.5 -8.099609375 64.5 -0.099609375 67.7001953125 c 0
 33.5 85.2998046875 59.1005859375 110.900390625 76.7001953125 144.5 c 0
 79.900390625 152.5 89.5 158.900390625 99.099609375 158.900390625 c 3
 108.700195312 158.900390625 118.299804688 152.5 121.5 144.5 c 0
 139.099609375 110.900390625 167.900390625 85.2998046875 201.5 67.7001953125 c 0
 209.5 64.5 214.299804688 56.5 214.299804688 46.900390625 c 3
 214.299804688 37.9725002385 181 -130 22.5 -182.08984375 c 1
EndSplineSet
Validated: 33
Position2: "cpsp-1" dx=0 dy=0 dh=10 dv=20
EndChar

StartChar: period
Encoding: 46 46 49
Width: 200
VWidth: 1159
Flags: W
HStem: -63 224<73.3063 124.93>
VStem: -11.2998 225.6<19.1843 74.0714>
LayerCount: 2
Fore
SplineSet
201.5 23.4004 m 0
 167.9 5.7998 139.1 -16.5996 121.5 -50.2002 c 0
 118.3 -58.2002 110.3 -63 100.7 -63 c 3
 91.0996 -63 79.9004 -58.2002 76.7002 -50.2002 c 0
 59.0996 -16.5996 33.5 5.7998 -0.0996094 23.4004 c 0
 -8.09961 26.5996 -11.2998 39.4004 -11.2998 49 c 3
 -11.2998 58.5996 -8.09961 66.5996 -0.0996094 69.7998 c 0
 33.5 87.4004 59.0996 113 76.7002 146.6 c 0
 79.9004 154.6 91.0996 161 100.7 161 c 3
 110.3 161 118.3 154.6 121.5 146.6 c 0
 139.1 113 167.9 87.4004 201.5 69.7998 c 0
 209.5 66.5996 214.3 58.5996 214.3 49 c 3
 214.3 39.4004 209.5 26.5996 201.5 23.4004 c 0
EndSplineSet
Validated: 1
Position2: "cpsp-1" dx=0 dy=0 dh=10 dv=20
EndChar

StartChar: uni0307
Encoding: 775 775 50
Width: 0
VWidth: 1159
Flags: W
HStem: 414.025 175.949<-255.497 -140.503>
VStem: -287.7 179.4<445.75 558.25>
AnchorPoint: "TopMark" -200.5 405 mark 0
AnchorPoint: "TopMark" -198.5 539 basemark 0
AnchorPoint: "Top" -198.5 389 mark 0
LayerCount: 2
Fore
SplineSet
-198 589.975 m 0
 -149.7 589.975 -108.3 552.025 -108.3 503.725 c 0
 -108.3 451.975 -151.425 414.025 -198 414.025 c 0
 -246.3 414.025 -287.7 448.525 -287.7 500.275 c 0
 -287.7 552.025 -244.575 589.975 -198 589.975 c 0
EndSplineSet
Validated: 1
EndChar

StartChar: dotlessi
Encoding: 305 305 51
Width: 265
VWidth: 1159
Flags: HMW
AnchorPoint: "Top" 118 465 basechar 0
LayerCount: 2
Fore
SplineSet
191 196 m 7
 191 165.514 198.5 113.922 209 85 c 4
 214.813 68.9892 219.353 64.1622 226 61 c 4
 240.044 54.3184 249 55.6667 262 55 c 5
 254 -13 l 5
 209.384 -7 159.048 -2 111 -2 c 7
 75.375 -2 32.625 -9 -3 -13 c 5
 -8.99609 52.9951 l 5
 0.555403 54.9961 14.3086 59.3537 24 63 c 4
 33.2793 66.4913 38.8857 83.3425 43 107 c 4
 46 124.25 49 146.988 49 176 c 7
 49 248.285 47.5 272.2 41 301 c 5
 41.5 306.2 34.3315 309.2 24.5 309.2 c 7
 21.3 309.2 24.5 308.902 8.5 308.8 c 5
 -5.5 372.8 l 5
 17.3146 374 87.09 395.6 177 437 c 5
 223.5 399.2 l 5
 223.5 399.2 218.174 384.291 215.002 371.6 c 4
 199.004 307.6 191 213.875 191 196 c 7
EndSplineSet
Validated: 1
Substitution2: "case-1" I
EndChar

StartChar: uniFB01
Encoding: 64257 64257 52
Width: 576
VWidth: 1159
Flags: W
HStem: -12 72<10 67.517 261.428 287.514 327.647 366.931 537.373 559.896> 326 74<236 361.362> 388 20G<21 34.3446> 652 110<233.497 407.196>
VStem: 88 144<82.3083 325.308 400 609.174> 377 130<65.9078 313.33>
LayerCount: 2
Fore
SplineSet
336 326 m 0xdc
 306 326 308.1171875 326 234 326 c 1
 232 311.223632812 232 297.6328125 232 293 c 3
 232 219.577148438 227.40625 149.5859375 244 79 c 0
 245.939453125 70.7490234375 251.87109375 60.0078125 261 59 c 0
 270.05859375 58 283.8671875 58 293 58 c 1
 287 -12 l 1
 241.63671875 -7 199.362837838 -5 154 -5 c 3
 113.245283019 -5 50.7547169811 -8 10 -12 c 1
 8 60 l 1
 17.7777777778 60 31.3378385452 56.9762123071 40 60 c 0
 73.540540541 71.7083333333 72.291015625 98.3154296875 74 106 c 0
 84 150.97265625 90 209.784179688 90 266 c 3
 90 278.645507812 88 302.3828125 88 326 c 1xdc
 61.310546875 324 47.6891891892 318 21 316 c 1
 21 408 l 1xbc
 47.6891891892 406 61.310546875 402 88 400 c 1
 88 437.78125 88 481.375 88 493 c 3
 88 604.071289062 106.633698701 630.616365047 220 710 c 0
 267.260456763 743.093668968 373.807407407 762 394 762 c 3
 420.392523364 762 504.130841121 733 531 715 c 1
 529 661 527 661 429 587 c 1
 383.878554651 597.857142857 381.181640625 652 277 652 c 3
 189.994253063 652 250 575 244 498 c 0
 243.078125 486.163085938 238 436.87109375 236 400 c 1
 256.266601562 400 321.033112586 400 349 400 c 1
 371.179541664 399.983221666 399.856889447 399.270557967 504 437 c 1
 544 405 l 1
 545.654029465 402.05078125 536.9277997 388.977420177 532.001953125 371.599609375 c 0
 514.144218488 308.599609447 507 213.875 507 196 c 3
 507 165.513671875 514.539297071 114.469873971 519 85 c 0
 521.571428571 68.01171875 533.926384068 61.271348085 537 59 c 0
 544.814182524 53.2254566257 561.815429688 55.6669921875 569 55 c 1
 559 -13 l 1
 510.328125 -7 449.415703782 -2 397 -2 c 3
 376.7875 -2 348.212890625 -7.0908203125 328 -10 c 1
 324.00390625 55.9951171875 l 1
 331.48046875 56.396484375 349.622678031 57.464455225 351 58 c 0
 364 63.0547963613 369.821666415 88.9894430171 373 107 c 0
 376 124 377 178.059570312 377 196 c 3
 377 206.24 375.018964766 247.295139451 373 270 c 0
 372.725949145 273.081919282 362.400757565 326 336 326 c 0xdc
EndSplineSet
Validated: 33
LCarets2: 1 298 
Ligature2: "liga-1" f i
EndChar

StartChar: uni0237
Encoding: 567 567 53
Width: 265
VWidth: 1159
Flags: HMW
AnchorPoint: "Top" 120 465 basechar 0
LayerCount: 2
Fore
SplineSet
-39 -336 m 5
 -34 -279.055 -27 -253.745 3 -220 c 4
 22.7544 -197.779 45 -166 54 -140 c 4
 63.1248 -113.639 76 -55 76 96 c 7
 76 205.054 66 233.088 58 275 c 4
 55.5696 287.733 47.6154 298 28 298 c 7
 24.6 298 11 299 11 299 c 5
 -3 363 l 5
 72.8027 375 126.74 389 204 437 c 5
 244 405 l 5
 237.538 393.692 232.593 371.766 230 363 c 4
 217.143 319.527 212 218.749 212 198 c 7
 212 87.6857 210 -34.8857 212 -88 c 7
 212 -151.725 194.744 -192.252 172 -218 c 4
 143.82 -249.901 98.9888 -273.358 58 -294 c 4
 40.7743 -302.675 16.2647 -325.353 15 -346 c 5
 -39 -336 l 5
EndSplineSet
Validated: 33
EndChar

StartChar: U
Encoding: 85 85 54
Width: 827
VWidth: 1159
Flags: W
HStem: -16 108<370.737 573.379> 614 80<19 95.3232 539 622.348> 622 72<306.267 383>
VStem: 103 174<176.265 576.611> 108 180<257.384 597.57>
AnchorPoint: "Horn" 738 544 basechar 0
AnchorPoint: "Bottom" 426 -15 basechar 0
AnchorPoint: "Ogonek" 496 11 basechar 0
AnchorPoint: "Top" 447 699 basechar 0
LayerCount: 2
Fore
SplineSet
19 694 m 5xc8
 98.7080078125 687 275.393554688 687 383 694 c 5
 391 622 l 5
 340.482421875 620 289.040039062 611 288 559 c 4xa8
 288.1015625 552.606445312 277 282.864257812 277 254 c 4
 277 211.97265625 291.801757812 179.334960938 318 150 c 4
 351.46875 112.5234375 407.71875 92 500 92 c 7
 515.193359375 92 562.693359375 92.642578125 597 128 c 4
 625.3984375 157.266601562 629.080078125 177.848632812 638 259 c 4
 647.483398438 345.271484375 643.8203125 487.578125 633 575 c 4
 629.228515625 607.744140625 582.309570312 628 535 614 c 5
 539 694 l 5
 604.731445312 687 790.549804688 683 831 692 c 5
 837 614 l 5
 804.1796875 630.12109375 758.280273438 610.23828125 755 585 c 4
 753 574.888671875 753 466.420898438 748 255 c 4
 746.940429688 175.448242188 721.506835938 112.424804688 677 68 c 4
 621.055664062 11 532.99609375 -16 418 -16 c 7
 311.591796875 -16 238.200195312 11 192 56 c 4
 135.62109375 110.915039062 103 172.091796875 103 256 c 4xd0
 103 281.787109375 108 549.106445312 108 562 c 4
 108 594.857421875 87.45703125 605.642578125 9 614 c 5
 19 694 l 5xc8
EndSplineSet
Validated: 33
Position2: "cpsp-1" dx=0 dy=0 dh=10 dv=20
Substitution2: "c2pc-1" u.pcap
Substitution2: "c2sc-1" u.smcp
EndChar

StartChar: V
Encoding: 86 86 55
Width: 858
VWidth: 1159
Flags: W
HStem: 621 72<301.734 378 559 632.885> 679 20G<559 860.381>
VStem: 390 92<-33 61.1414>
AnchorPoint: "Bottom" 433 -15 basechar 0
AnchorPoint: "Top" 447 699 basechar 0
LayerCount: 2
Fore
SplineSet
378 693 m 1xa0
 378 621 l 1xa0
 348.6 625 326.685122407 625.278565498 315 623 c 0
 284 615.333333333 301.489722679 578.656679688 298 583 c 2
 492 225 l 1
 631 577 l 2
 639.882024786 599.49260953 629.929288824 620.999723281 611 623 c 0
 604.908839948 623.643658922 562.094339623 619 557 619 c 1
 559 699 l 1
 655.69787234 684 798.2 687 858 699 c 1x60
 868 615 l 1
 873.194444444 637 789.676079933 594.479963388 755 558 c 0
 728.188464212 525.647394163 558.937033139 203.696759069 495 54 c 0
 485.519682245 29.345507394 481.657142857 -6 482 -33 c 1
 390 -33 l 1
 392.857142857 -6 385.831190652 16.9275293939 374 51 c 0
 335.697228911 157.511605839 225.984505922 375.628868027 99 575 c 0
 75.8094387954 612.299698141 28.3069306931 624.826086957 17 619 c 1
 27 695 l 1
 175.290697674 677 225.627906977 688 378 693 c 1xa0
EndSplineSet
Validated: 37
Position2: "cpsp-1" dx=0 dy=0 dh=10 dv=20
Substitution2: "c2pc-1" v.pcap
Substitution2: "c2sc-1" v.smcp
EndChar

StartChar: W
Encoding: 87 87 56
Width: 1141
VWidth: 1159
Flags: W
HStem: 631 68<309.467 351.282 672.995 746.8 812 877.188 1121.4 1145.25> 681 20G<7.22222 47.6196>
VStem: 368 74<-27 56.6149> 744 72<-21 37.4985>
AnchorPoint: "Bottom" 585 -15 basechar 0
AnchorPoint: "Top" 590 699 basechar 0
LayerCount: 2
Fore
SplineSet
1144 699 m 1xb0
 1156 632 l 1
 1064.74150182 586.808657541 1044.05664062 511.34765625 990 389 c 0
 880.703125 141.626953125 852.281010136 67.2850612985 837 36 c 0
 825.971156427 13.4204686624 816 1 816 -21 c 1
 744 -23 l 1
 745.25 -3.54054054054 747.383446851 15.6400923624 729 57 c 0
 685.890946501 153.988692354 635.424651316 251 590 348 c 1
 494.512849057 125.081632653 456.849228368 48.6972951429 449 17 c 0
 444.172871441 -2.49324334306 439 -10 442 -27 c 1
 368 -27 l 1
 366.935400517 -5.90909090909 365.645403617 22.159658629 340 89 c 0
 247.916707748 328.999291122 126.912388982 522.299632048 119 537 c 0
 112.295125953 549.456935039 93.0488541088 576.375240506 74 593 c 0
 51.8352372337 612.344147849 23 629 0 629 c 1
 10 701 l 1x70
 85.2391169796 680 266.266144007 681 350 699 c 1
 353.546466658 680.815327838 360.584172291 653.695582221 366 631 c 1
 319.368382081 633.509868421 302 615.553847458 302 589 c 3
 302 568.685323662 309.648003091 542.066346419 322 516 c 2
 458 229 l 1
 546 440 l 1
 493.785577628 557.6375 485 561 438 609 c 0
 424.5606466 622.725297089 388 642.833333333 398 638 c 1
 406.597061079 688.514188 410.58639177 700.073613116 410 696 c 1
 501.411764706 685 641 683 746 699 c 1
 754 629 l 1
 748.387096774 629.785714286 704.741492144 632.281817422 696 631 c 0
 659 625.574468085 667 580 667 580 c 2
 830 223 l 1
 852.545086272 284.345588235 857.885742188 301.274414062 889 418 c 0
 914.52734375 513.765625 911.512020052 656.941792191 812 629 c 1
 812 694 l 1
 883.950819672 687 1022.81967213 685 1144 699 c 1xb0
EndSplineSet
Validated: 33
Position2: "cpsp-1" dx=0 dy=0 dh=10 dv=20
Substitution2: "c2pc-1" w.pcap
Substitution2: "c2sc-1" w.smcp
EndChar

StartChar: X
Encoding: 88 88 57
Width: 819
VWidth: 1159
Flags: W
HStem: -13 22G<14.7879 58 383.182 420.018> -11 62<281.319 338> -6 76<715.3 763> 626 72<332.98 360 411 453.264>
LayerCount: 2
Fore
SplineSet
10 691 m 1x90
 116.56167979 685 262.624671916 683 360 698 c 1
 362 630 l 1
 360.65 627.6 356.784295552 627.040640515 353 626 c 0
 328.2734375 619.200461648 330.880092589 599.053726862 337 581 c 0
 357 522 403 439 403 439 c 1
 443.9020625 505.347125 450.267571817 527.856229815 455 543 c 0
 460.920589564 561.945886604 469.114577466 595.965361112 447 611 c 0
 442.71032915 613.916341145 405.524590164 626.380952381 401 628 c 1
 411 692 l 1
 491.146788991 683 642.853211009 685 723 695 c 1
 727 625 l 1
 713 616 674.397466389 610.496677156 615 564 c 0
 596.164507812 549.25546875 621.197757812 585.300195312 443 390 c 1
 498 325.85453125 643.881298229 153.293696557 664 131 c 0
 701 90 752 75 777 70 c 1
 763 -6 l 1x30
 696.802030457 8 455.035532995 4 385 -12 c 1
 379 54 l 1
 386.615384615 61 406.585935847 65.1886147334 415 72 c 0
 436 89 426.981672231 122.630360308 422 142 c 0
 414.406779661 171.523809524 390.542372881 228.603174603 358 266 c 1
 291.08045977 179.236765008 276.986538178 127.83845813 276 116 c 0
 274.754317802 101.051813626 274.226163896 63.4492884697 290 60 c 0
 303.99609375 56.939453125 328 52 338 51 c 1
 338 -11 l 1x50
 246 -5 100 -2 16 -13 c 1
 12 53 l 1
 19 68 71.8878864217 76.8740490212 118 114 c 0
 137 129.297348438 109 92.574804688 309 320 c 1
 101 583.327875 116.487054325 567.064347445 99 581 c 0
 50.606445312 619.565429688 23 620 8 639 c 1
 10 691 l 1x90
EndSplineSet
Validated: 33
Position2: "cpsp-1" dx=0 dy=0 dh=10 dv=20
Substitution2: "c2pc-1" x.pcap
Substitution2: "c2sc-1" x.smcp
EndChar

StartChar: Y
Encoding: 89 89 58
Width: 749
VWidth: 1159
Flags: W
HStem: -17 84<229 258.106> -11 86<508.262 561> 609 82<-16 34.8909 414.737 482.032 670.042 751>
VStem: 305 165<113.927 299.376>
AnchorPoint: "Bottom" 397 -15 basechar 0
AnchorPoint: "Top" 373 699 basechar 0
LayerCount: 2
Fore
SplineSet
361 609 m 1xb0
 361 609 328.893554688 609.850585938 307 610 c 0
 288.791015625 610.124023438 288.883789062 597.495117188 295 583 c 0
 343.397460938 468.310546875 406.908203125 403.765625 410 400 c 1
 445.258789062 475 478.787109375 547.2265625 480 550 c 0
 487 567.666666667 485.50390625 594.260477702 472 603 c 0
 456.981445312 611.802734375 431.765625 612.333007812 411 615 c 1
 415 693 l 1
 466.90234375 687 662.219726562 676 751 692 c 1
 751 610 l 1
 707 611.113636364 634.950195312 571.848166726 621 561 c 0
 551.692382812 515.90234375 502 409.85546875 470 334 c 1
 468.666992188 292.431640625 446.439453125 247.077148438 488 122 c 0
 500.547851562 84.236328125 540.485351562 84 571 75 c 1
 561 -11 l 1x70
 446.168945312 3 348.060546875 9 231 -17 c 1
 207 67 l 1
 236.495117188 70 304.6953125 105.991210938 305 142 c 2
 306 260 l 1
 299.268554688 271.3671875 215.659179688 444.627929688 80 569 c 0
 72.6181640625 575.767578125 17 592 -24 609 c 1
 -16 691 l 1
 64.7685546875 685 268.814453125 678 351 689 c 1
 361 609 l 1xb0
EndSplineSet
Validated: 33
Position2: "cpsp-1" dx=0 dy=0 dh=10 dv=20
Substitution2: "c2pc-1" y.pcap
Substitution2: "c2sc-1" y.smcp
EndChar

StartChar: Z
Encoding: 90 90 59
Width: 739
VWidth: 1159
Flags: W
HStem: -5 80<316 496.95> -5 54<38 62.8321> 602 86<158.317 424>
LayerCount: 2
Fore
SplineSet
21 539 m 1x60
 68 666.403445693 58 715.311610487 85 727 c 1
 122 707.867924528 140.968556516 689.321051938 153 688 c 0
 185.525632812 684.428687021 542.07650452 681.761350963 649 685.532796875 c 0
 660.414960938 685.935429688 668.981578125 686.421101562 674 687 c 1
 698 643 l 1
 678.572757812 620.100390625 l 0
 316 75 l 1xa0
 343.545851528 76 371.453811074 71.8234001525 399 72 c 0
 478.46019933 72.5094228868 624 149 653 203 c 1
 707 175 l 1
 670 60.1666666666 658 14.738095238 633 -37 c 1
 612 -22.92 595.905108952 -8.88964081234 512 -5 c 0
 361 2 117 -1 38 -5 c 1
 18 49 l 1
 65.9195402299 63.4666388657 95.0609226064 95.9134546484 115 125 c 0
 220.392857143 278.744030303 321.964285714 439.352 420 597 c 0
 424 601 l 1
 185 602 l 2
 175.995923089 602.037673962 78 506.96 77 503 c 1
 21 539 l 1x60
EndSplineSet
Validated: 33
Position2: "cpsp-1" dx=0 dy=0 dh=10 dv=20
Substitution2: "c2pc-1" z.pcap
Substitution2: "c2sc-1" z.smcp
EndChar

StartChar: parenleft
Encoding: 40 40 60
Width: 383
VWidth: 1515
Flags: W
VStem: 25 120<49.1932 379.521>
LayerCount: 2
Fore
SplineSet
337 730 m 13
 379 660 l 5
 221.207 573.617 145 430.478 145 214 c 7
 145 -6.1465 209.889 -129.312 377 -231 c 13
 339 -307 l 5
 137.291 -198.753 25 -20.7029 25 214 c 31
 25 447.718 141.48 631.859 337 730 c 13
EndSplineSet
Validated: 1
Position2: "cpsp-1" dx=0 dy=0 dh=10 dv=20
Position2: "'case' vertical ajustments for all-caps-1" dx=0 dy=125 dh=0 dv=0
EndChar

StartChar: parenright
Encoding: 41 41 61
Width: 380
VWidth: 1516
Flags: W
VStem: 236 120<46.51 379.525>
LayerCount: 2
Fore
SplineSet
46 730 m 17
 241.57 631.859 356 447.718 356 214 c 27
 356 -20.7029 244.734 -198.753 43 -307 c 1
 7 -231 l 17
 173.224 -129.312 236 -18.4582 236 214 c 3
 236 430.498 161.653 573.617 4 660 c 1
 46 730 l 17
EndSplineSet
Validated: 1
Position2: "cpsp-1" dx=0 dy=0 dh=10 dv=20
Position2: "'case' vertical ajustments for all-caps-1" dx=0 dy=125 dh=0 dv=0
EndChar

StartChar: zero
Encoding: 48 48 64
Width: 503
VWidth: 1159
Flags: W
HStem: -5 66<225.126 288.762> 334 72<194.414 260.724>
VStem: 37 146<117.22 286.74> 297 156<104.74 287.374>
LayerCount: 2
Fore
SplineSet
220 334 m 3
 198.656562759 334 183 301.916347826 183 272 c 3
 183 145.942571429 209.950953981 61 264 61 c 7
 288.421833333 61 297 91.5905495495 297 114 c 3
 297 248.004211598 280.256781332 334 220 334 c 3
248 406 m 3
 361.653 406 453 310.905 453 197 c 3
 453 86.0570321608 366.938 -5 249 -5 c 3
 131.34 -5 37 86.0570321608 37 197 c 3
 37 308.815 133.487 406 248 406 c 3
EndSplineSet
Validated: 1
Substitution2: "dnom-1" zero.denom
Substitution2: "numr-1" zero.numerator
Substitution2: "lnum-1" zero.proportionallining
Substitution2: "tnum-1" zero.tabulartext
EndChar

StartChar: one
Encoding: 49 49 65
Width: 370
VWidth: 1159
Flags: W
HStem: -6 54<52 96.4167 257.617 306> 352 46<62 101.604> 362 46<269.48 300.609>
VStem: 121 122<73.3983 319.56>
LayerCount: 2
Fore
SplineSet
62 398 m 1xd0
 125.013 393.886 232.8 394.838 300 408 c 9
 304 362 l 1xb0
 260.615 352.308 268.5 332 257 320 c 0
 255.095 311.496 243 246.299 243 200 c 27
 243 149.261 252.846 78.2265 257 69 c 0
 269.5 50 324.5 44 308 48 c 9
 306 -6 l 1
 219.209 0.477541 139.066 1.29004 52 -6 c 9
 48 46 l 1
 22.5 45 78.5 52 101 73 c 0
 108.627 81.2898 121 102.449 121 200 c 3
 120 292.512 111.939 312.336 110 318 c 0
 98.5 330 108.507 348.909 60 352 c 9
 62 398 l 1xd0
EndSplineSet
Validated: 37
Substitution2: "dnom-1" one.denom
Substitution2: "numr-1" one.numerator
Substitution2: "tnum-1" one.tabulartext
Substitution2: "lnum-1" one.proportionallining
EndChar

StartChar: two
Encoding: 50 50 66
Width: 445
VWidth: 1159
Flags: W
HStem: -4 130<190 357.953> 358 106<111.947 210.709>
VStem: 217 136<273.143 349.191>
LayerCount: 2
Fore
SplineSet
37 367 m 1
 69.1756 417.434 116.766 464 199 464 c 1
 283.812 464 353 408.415 353 335 c 3
 353 248.204 203.386 143.87 190 126 c 9
 321 130 l 2
 360.459 129.838 387 146 400 173 c 1
 440 139 l 1
 440 139 368.923 34.0152 363 -30 c 1
 329 2 254 -4 180 -4 c 1
 82.987 -4 19.3896 -6 14 -6 c 1
 2 30 l 1
 40.7555 82.9153 217 186.889 217 315 c 3
 217 345.637 187.044 358 159 358 c 1
 118.441 358 94.6345 349.231 77 339 c 1
 37 367 l 1
EndSplineSet
Validated: 33
Substitution2: "dnom-1" two.denom
Substitution2: "numr-1" two.numerator
Substitution2: "tnum-1" two.tabulartext
Substitution2: "lnum-1" two.proportionallining
EndChar

StartChar: three
Encoding: 51 51 67
Width: 388
VWidth: 1159
Flags: W
HStem: -240 52<79.3077 101.035> 110.8 52<79 110.987> 356 104<132.596 242.718>
VStem: 198 134<260.329 354.461> 208 144<-73.2887 71.8797>
LayerCount: 2
Fore
SplineSet
62 -188 m 1xe8
 199.623 -121.409 208 -83.6418 208 -4 c 3xe8
 208 57.8749 171.827 97.4748 142 114.8 c 1
 137.333 114.8 108.585 109.467 79 110.8 c 1
 61 162.8 l 1
 115.079 178.065 198 226.406 198 318 c 3
 198 349.042 179.129 356 172 356 c 3
 149.081 356 128.6 354.8 88 344 c 1
 60 380 l 1
 73.158 416.757 162.631 460 210 460 c 3
 275.436 460 332 412.545 332 344 c 3xf0
 332 255.144 260 194 252 184.8 c 1
 293.322 165.412 352 101.863 352 6 c 3
 352 -145.7 135.513 -232.825 82 -240 c 1
 62 -188 l 1xe8
EndSplineSet
Validated: 33
Substitution2: "dnom-1" three.denom
Substitution2: "numr-1" three.numerator
Substitution2: "tnum-1" three.tabulartext
Substitution2: "lnum-1" three.proportionallining
EndChar

StartChar: four
Encoding: 52 52 68
Width: 463
VWidth: 1159
Flags: W
HStem: -7 120.5<349.762 422.612> 0 91.5<98 224>
VStem: 224 129<-188.146 0> 226 120<91.5 207.778>
LayerCount: 2
Fore
SplineSet
226 91.5 m 1x50
 226 133.609913794 226 180.034706897 226 208.5 c 1
 226 208.5 152.390606452 134.250387931 98 91.5 c 1
 226 91.5 l 1x50
360.5 402.700195312 m 1
 361.085 379.222119141 355.281727199 357.868053062 354 342.5 c 0
 346 246.579101562 346.02 200.266666667 346 91.5 c 1x50
 346.285714286 90.9406779661 380.428571429 92.686440678 414 113.5 c 1
 414 113.5 446.64 100.1796 456 95.5 c 1
 456 95.5 431.55 32.9746 414 -7 c 1
 371.067183673 2.5918 281.270367347 1.06055 346 1 c 1x90
 345.794 36.3457 348.566 -129.472 353 -179.5 c 1
 295.28 -203 262.72 -227 242 -252.5 c 1
 242 -252.5 195.02 -226.2 188 -214.5 c 1
 241.117647059 -181.434689507 223.569058824 20.1560342612 224 0 c 1x60
 131.589641434 0 53.6494023904 1 12 -17 c 1
 12 -17 -19.8594 14.41992 -30 23 c 1
 -14.6879643388 38.4657837467 291.927383358 375.619869425 313.5 428.300195313 c 1
 360.5 402.700195312 l 1
EndSplineSet
Validated: 37
Substitution2: "dnom-1" four.denom
Substitution2: "numr-1" four.numerator
Substitution2: "tnum-1" four.tabulartext
Substitution2: "lnum-1" four.proportionallining
EndChar

StartChar: five
Encoding: 53 53 69
Width: 362
VWidth: 1159
Flags: W
HStem: 259.5 140<128 283.537>
VStem: 77 51<222.154 259.5> 188 126<-39.356 60.7493>
LayerCount: 2
Fore
SplineSet
77 399.5 m 1
 150.71 401.45 248.3901023 401.177074318 266 404.5 c 0
 280.729769231 408.2488 288.369038462 430.9968 295 448.5 c 1
 295 448.5 333.64 425.18 343 420.5 c 1
 317.65 375.1 294.25094236 260.424577244 278 260.5 c 0
 246.423448276 260.790666667 192.148275862 259.5 128 259.5 c 1
 128 259.5 128 236.043396226 128 217.5 c 1
 206.692307692 224 314 176.166 314 48.5 c 3
 314 -98.8768165085 143.818181818 -211.795066414 26 -221 c 1
 26 -221 26.6796 -168.7 22 -157 c 1
 103.689655172 -154.661137441 188 -86.1329322275 188 7.5 c 3
 188 47.1303758065 153.708571429 108.14516129 42 86.5 c 1
 55.3 159.079710145 71.90316 285.006803313 77 399.5 c 1
EndSplineSet
Validated: 33
Substitution2: "dnom-1" five.denom
Substitution2: "numr-1" five.numerator
Substitution2: "tnum-1" five.tabulartext
Substitution2: "lnum-1" five.proportionallining
EndChar

StartChar: six
Encoding: 54 54 70
Width: 496
VWidth: 1159
Flags: W
HStem: -16 72.7998<187.391 312.067> 282.8 87.2<231 277.823> 590 46<357.554 368.968>
VStem: 56 144<149.629 350.119> 316 132<94.609 228.861>
LayerCount: 2
Fore
SplineSet
366 636 m 1
 366 636 382.2 600.92 390 590 c 1
 263 516 200 421.366 200 274 c 3
 200 171.007641333 248.976321839 56.7998046875 295 56.7998046875 c 3
 307.054 56.7998046875 316 76.340753337 316 103 c 3
 316 207.370259259 279.709949903 282 248 282 c 3
 231 282.8 l 1
 223 344 l 1
 235.051 359.294 265.075 370 302 370 c 3
 389.045 370 448 279.886 448 178 c 3
 448 72.6943 347.827 -16 254 -16 c 3
 120.781 -16 56 119.446 56 214 c 3
 56 416.45 184.993 577.164 366 636 c 1
EndSplineSet
Validated: 1
Substitution2: "dnom-1" six.denom
Substitution2: "numr-1" six.numerator
Substitution2: "tnum-1" six.tabulartext
Substitution2: "lnum-1" six.proportionallining
EndChar

StartChar: seven
Encoding: 55 55 71
Width: 420
VWidth: 1159
Flags: W
HStem: 387 20G<416.955 433.524> 406 20G<42 93>
VStem: 0 54<230.953 247.697> 45 48<404.3 416>
LayerCount: 2
Fore
SplineSet
93 416 m 1x50
 92.090909091 406.25 93.1185481242 404.703700176 114 403 c 0
 234.800357143 393.144 409.909090909 399 424 407 c 1
 424 407 437.76 372.8 444 365 c 1
 379.063066465 314.360287517 174 -96.9779411765 185 -172 c 1
 185 -172 91.3594 -166.44 43 -168 c 1
 135.182366621 -25.6329896907 204.628004916 68.6731638904 285 243 c 0
 288.073632677 249.737169328 283.570086236 259.716 278 261 c 0
 223.904232673 273.242 217.092416226 277 135 269 c 0
 113.482632097 266.903107849 64 258.499915541 54 213 c 1
 54 213 12.48046875 229.879882812 0 233 c 1xa0
 0 233 39 389.657584173 45 426 c 1
 93 416 l 1x50
EndSplineSet
Validated: 33
Substitution2: "dnom-1" seven.denom
Substitution2: "numr-1" seven.numerator
Substitution2: "tnum-1" seven.tabulartext
Substitution2: "lnum-1" seven.proportionallining
EndChar

StartChar: eight
Encoding: 56 56 72
Width: 461
VWidth: 1159
UnlinkRmOvrlpSave: 1
Flags: W
HStem: -13 68<170.433 286.425> 577 60<169.327 236.757>
VStem: 43 132<124.835 223.168> 74 92<470.342 561.146> 268 114<427.2 539.876> 295 132<77.642 207.086>
LayerCount: 2
Fore
SplineSet
200 577 m 3xe8
 183.086 577 166 558.949 166 544 c 3
 166 381.988 427 344.762 427 155 c 27xd4
 427 54.0155 335.927 -13 215 -13 c 3
 125.866 -13 43 37.5867 43 133 c 3
 43 321.857 268 344.84 268 455 c 3
 268 487.175 248.128 577 200 577 c 3xe8
223 637 m 3
 271.882 637 307.794 627.522 342 590.771 c 0
 361.566 571.863 382 541.537 382 497 c 3
 382 357.606 175 321.101 175 213 c 3xe8
 175 134.812 229.291 55 271 55 c 3
 285.318 55 295 94.1826 295 111 c 3
 295 181.372 276.051 219.344 229.142 260.8 c 0
 154.128 325.271 74 386.862 74 484 c 3
 74 568.047 143.994 637 223 637 c 3
EndSplineSet
Substitution2: "dnom-1" eight.denom
Substitution2: "numr-1" eight.numerator
Substitution2: "lnum-1" eight.proportionallining
Substitution2: "tnum-1" eight.tabulartext
EndChar

StartChar: uniFB00
Encoding: 64256 64256 74
Width: 642
VWidth: 1159
Flags: W
HStem: -14 21G<254.596 283.096> -12 72<16 67.755 329.611 368.4 531.098 623.568> 324 79.999<242.006 378.048 523 626.682> 388 20G<13 26.5135 604.14 629> 620 110<277.781 405.756> 652 110<514.891 728.292>
VStem: 93 152<401.213 534.59> 93 144<88.6969 325.308> 377 154<401.737 585.245> 381 138<82.3083 325.308>
LayerCount: 2
Fore
SplineSet
381 400 m 1x2a40
 381 437.78125 377 481.375 377 493 c 3x2880
 377 534.333984375 380.117867807 558.447265625 397.853515625 588 c 1
 359.026612661 610.857421875 321.318563233 620 288 620 c 3
 160.14312066 620 245 507.448296261 245 459 c 3
 245 450.780056577 243 425.897689769 241 400 c 1
 221.869606923 401.999685702 283.671110734 403.999023438 311 403.999023438 c 1
 325.865255153 403.999023438 399.801009807 402 381 400 c 1x2a40
511.853515625 704 m 1
 516.522204416 704.821777344 521.954419364 710.250502957 530 715 c 0
 596.896565083 754.490628756 645.028247676 762 683 762 c 3
 715 762 765 751 790 729 c 1
 788 675 790 675 692 601 c 1
 646.370845734 611.857421875 627.102926587 652 574 652 c 3
 455.781066547 652 531 542.125976562 531 498 c 3x0680
 531 486.296875 525 436.87109375 523 400 c 1
 572.719625539 404 579.280374461 404 629 408 c 1
 629 316 l 1
 578.901449947 320 571.098550053 322 521 326 c 1
 519 311.223632812 519 297.6328125 519 293 c 3x1440
 519 219.577148438 514.40821678 149.586090849 531 79 c 0
 532.939453125 70.7490234375 544.81618242 59.0730865065 554 59 c 0
 607.379603795 58.5751953125 575.184430804 60.5 629 62 c 1
 623 -12 l 1
 553.625 -7 507.375 -5 438 -5 c 3
 399.048430586 -5 368.951569414 -8 330 -12 c 1
 326 60 l 1
 335.77734375 60 337.101929964 57.7658385019 346 60 c 0
 364.750740841 64.7080078125 376.649082164 98.1091463892 377 106 c 0x5480
 379 150.97265625 381 209.784179688 381 266 c 3
 381 278.645507812 379 302.3828125 379 326 c 1
 358.827956989 324 330.010752688 324 312 324 c 1
 277.734693878 324 304.551020408 324 239 326 c 1
 237 311.223632812 237 297.632812007 237 293 c 3
 237 219.577405858 226.160213214 147.819074197 249 79 c 0
 251.738341831 70.7490407674 260.052992468 59.6166254203 273 59 c 0
 278.946289062 59 281.931640625 59 286 59 c 1
 282 -14 l 1xa140
 227.191489362 -9 208.808510638 -5 154 -5 c 3
 114.943396227 -5 55.0566037736 -8 16 -12 c 1
 14 60 l 1
 21.9444444445 60 32.9169467748 57.0836559971 40 60 c 0
 68.4365452413 71.7083333333 77.3026569702 98.3665437796 79 106 c 0
 89 150.972972973 95 209.783783784 95 266 c 3
 95 278.645902066 93 302.382978723 93 326 c 1
 65.9729729732 324 40.027027027 318 13 316 c 1
 13 408 l 1
 40.027027027 406 65.9729729732 402 93 400 c 1x5140
 93 437.78125 93 467.375 93 479 c 3x52
 93 590.071090047 126.169902135 614.138759502 221 678 c 0
 270.005057147 711.001376257 325.846572317 730 387 730 c 3
 424.511002445 730 478.093613425 724 511.853515625 704 c 1
EndSplineSet
Validated: 37
LCarets2: 1 311 
Ligature2: "liga-1" f f
EndChar

StartChar: question
Encoding: 63 63 75
Width: 378
VWidth: 1159
Flags: W
HStem: -63 224<91.3063 142.93> 477.6 174.2<81.3484 198.039> 694.8 20G<7.0713 77.5>
VStem: 6.7002 225.6<19.1843 74.0714> 93 51<187.443 231.036> 259 54<405.453 458.878>
LayerCount: 2
Fore
SplineSet
26 477.6 m 1xec
 56.8571 697.735 -48.8574 696.028 63 714.8 c 1
 92 655.6 80.5172 651.8 110 651.8 c 3
 212.172 651.8 313 572.633 313 452.8 c 3
 313 278.967 234.385 268.82 224 263.8 c 0
 174.345 239.8 142.85 231.22 144 188 c 9
 144 188 106.599 184.8 93 184.8 c 1
 74.4545 298.845 58.6651 381.92 144 419.8 c 0
 183.517 440.606 259 361.171 259 434.8 c 3
 259 466.058 196.164 477.037 26 477.6 c 1xec
EndSplineSet
Refer: 49 46 N 1 0 0 1 18 0 2
Validated: 33
Position2: "cpsp-1" dx=0 dy=0 dh=10 dv=20
EndChar

StartChar: exclam
Encoding: 33 33 76
Width: 266
VWidth: 1159
Flags: W
HStem: -63 224<96.3063 147.93>
VStem: 11.7002 225.6<19.1843 74.0714> 87 88<209 378.454>
LayerCount: 2
Fore
SplineSet
87 209 m 21xa0
 85.6667 339 81 437 67 533 c 4
 59 580.777 11 605.174 15 656 c 5
 177 676 263 733 273 671 c 5
 241 632.188 245 607.391 233 533 c 4
 211 408 175 342 175 208 c 13
 87 209 l 21xa0
EndSplineSet
Refer: 49 46 S 1 0 0 1 23 0 2
Validated: 33
Position2: "cpsp-1" dx=0 dy=0 dh=10 dv=20
EndChar

StartChar: paragraph
Encoding: 182 182 77
Width: 605
VWidth: 1159
Flags: W
HStem: -16 21G<356.891 470.704>
VStem: 331 76<68 415.583> 339 80<309.417 665>
LayerCount: 2
Fore
SplineSet
339 665 m 1xa0
 419 681 l 1xa0
 407 44 l 1
 331 68 l 1xc0
 339 665 l 1xa0
540 749 m 5
 544 639 l 5
 508.511627907 638.25 364.233559197 647.788542546 326 627 c 0
 289.17647134 606.015536248 288 593.08564578 288 205 c 3
 288 135.7 300.770976571 118.295659764 312 106 c 0
 321.861395647 97.2380952381 468.522300469 84.3333333333 487 92 c 1
 467 -16 l 1
 246.782710053 27.3043478261 203.029213044 60.4157242396 144 123 c 0
 86 191.490566038 58.308008219 276.891200643 41 343 c 0
 35.5443009018 363.838314408 32.3255994229 378.427847135 40 399 c 0
 70 479.418604651 120.132342829 594.092120989 222 665 c 0
 327.311688312 736 540 749 540 749 c 5
EndSplineSet
Validated: 37
Position2: "cpsp-1" dx=0 dy=0 dh=10 dv=20
EndChar

StartChar: ampersand
Encoding: 38 38 79
Width: 676
VWidth: 1159
Flags: W
HStem: -17 114<135.577 322.517> -11 92<490.615 610.454> 431 70<617.469 672>
VStem: 5 144<154.965 264.171> 69 76<483.354 548.681> 250.5 124<453.094 518.901>
LayerCount: 2
Fore
SplineSet
186.5 317.4 m 1xb4
 162.938 305.442 149 269.303 149 260 c 3
 149 159.324 184.64 97 285 97 c 3
 312.951 97 329.323 114.324 342.5 125.4 c 1
 282.5 277.4 218.717 303.045 186.5 317.4 c 1xb4
160.5 549.4 m 1
 154.34 549.4 145 547.365 145 544 c 3x2c
 145 481.46 197.83 453.9 232.5 427.4 c 1
 244.594 441.426 250.5 454.413 250.5 467.4 c 3
 250.5 507.596 213.326 549.4 160.5 549.4 c 1
672 431 m 1
 624.826 431 596.659 399.642 576.5 349.4 c 0
 541.763 293.46 511.851 248.05 466.5 195.4 c 1
 512.5 117.4 555.167 81 590 81 c 3
 605.579 81 616.105 113.463 622 134 c 1
 684 108 l 1
 655.042 35.3363 636.491 -11 520 -11 c 3x6c
 461.23 -11 412.44 15.7258 382.5 49.4004 c 1
 354.133 32.6609 338.401 -17 199 -17 c 3
 72.1538 -17 5 82.1475 5 172 c 3xb4
 5 261.82 58.9506 324.341 120.5 353.4 c 1
 81.4091 383.397 69 436.853 69 506 c 3
 69 596.551 150 630.898 231 659 c 1
 332.646 624.239 374.5 568.621 374.5 479.4 c 3
 374.5 465.825 304.547 414.771 302.5 395.4 c 1
 344.572 379.062 399.928 323.652 426.5 265.4 c 1
 456.745 304.255 501.357 369.013 504.5 405.4 c 0
 511.6 441.314 472.074 464.2 453 474 c 1
 475 540 l 1
 526.672 518.483 616.484 499.655 678 501 c 1
 672 431 l 1
EndSplineSet
Validated: 33
Position2: "cpsp-1" dx=0 dy=0 dh=10 dv=20
EndChar

StartChar: quotesingle
Encoding: 39 39 80
Width: 201
VWidth: 1159
Flags: W
HStem: 439.7 266<60 140>
VStem: 34 132<502.528 705.7> 60 80<439.7 647.119>
LayerCount: 2
Fore
SplineSet
34 705.7 m 9xc0
 166 705.7 l 17xc0
 165.04 633.476 142.476 535.349 140 439.7 c 9
 60 439.7 l 17xa0
 57.4098 535.22 35.1044 633.639 34 705.7 c 9xc0
EndSplineSet
Validated: 1
Position2: "cpsp-1" dx=0 dy=0 dh=10 dv=20
EndChar

StartChar: bracketleft
Encoding: 91 91 86
Width: 246
VWidth: 1515
Flags: W
HStem: 703 20G<25 219>
VStem: 25 194<-236 -170 659 723> 25 108<-140 627>
LayerCount: 2
Fore
SplineSet
133 627 m 1xa0
 133 -140 l 1xa0
 219 -170 l 1
 219 -236 l 1
 25 -236 l 1
 25 723 l 1
 219 723 l 1
 219 659 l 1xc0
 133 627 l 1xa0
EndSplineSet
Validated: 1
Position2: "cpsp-1" dx=0 dy=0 dh=10 dv=20
Position2: "'case' vertical ajustments for all-caps-1" dx=0 dy=90 dh=0 dv=0
EndChar

StartChar: asterisk
Encoding: 42 42 88
Width: 362
VWidth: 1159
Flags: W
HStem: 533.693 136.732<275.223 346.004>
VStem: 41.5625 146.921<393.371 471.105>
LayerCount: 2
Fore
SplineSet
188.483398438 512.368164062 m 1
 164.48046875 446.979492188 198.014648438 376.772460938 156.6640625 358.225585938 c 1
 106.258789062 344.9921875 35.8447265625 398.211914062 41.5625 443.087890625 c 1
 54.7021484375 490.091796875 107.154296875 470.243164062 160.357421875 529.919921875 c 1
 90.7529296875 532.54296875 34.3447265625 478.955078125 3.927734375 512.549804688 c 1
 -24.234375 556.3984375 4.6201171875 639.811523438 49.0673828125 648.2421875 c 1
 97.8310546875 650.270507812 95.162109375 594.251953125 168.359375 562.09375 c 1
 149.344726562 629.1015625 80.9482421875 666.189453125 103.5 705.5 c 1
 136.5 745.833007812 224.747070312 744.166992188 246.5 704.5 c 1
 263.498046875 658.75 209.396484375 643.977539062 201.431640625 564.42578125 c 1
 259.283203125 603.216796875 273.420898438 679.725585938 317.776367188 670.42578125 c 1
 366.333007812 651.50390625 392.017578125 567.060546875 361.014648438 534.115234375 c 1
 322.756835938 503.8125 291.98828125 550.700195312 213.868164062 533.693359375 c 1
 268.637695312 490.659179688 345.771484375 500.85546875 350.6328125 455.798828125 c 1
 347.642578125 403.771484375 275.26953125 353.249023438 234.35546875 372.553710938 c 1
 193.712890625 399.575195312 228.798828125 443.327148438 188.483398438 512.368164062 c 1
EndSplineSet
Validated: 33
EndChar

StartChar: acutecomb
Encoding: 769 769 93
Width: 0
VWidth: 1159
Flags: W
HStem: 415.902 251.034
VStem: -248.222 211.644
AnchorPoint: "TopMark" -216 403 mark 0
AnchorPoint: "Top" -198.5 402 mark 0
AnchorPoint: "TopMark" -191 616 basemark 0
LayerCount: 2
Fore
SplineSet
-248.222 457.25 m 17
 -226.846 519.169 -182.416 608.888 -152.688 666.936 c 9
 -152.688 666.936 -79.6934 633.772 -36.5782 597.24 c 1
 -85.6851 558.578 -141.993 493.422 -192.882 415.902 c 9
 -248.222 457.25 l 17
EndSplineSet
Validated: 1
EndChar

StartChar: uni0302
Encoding: 770 770 94
Width: 0
VWidth: 1159
Flags: W
HStem: 415.601 191.799
VStem: -325.05 255.1
AnchorPoint: "TopMark" -198.5 587 basemark 0
AnchorPoint: "TopMark" -200.5 384 mark 0
AnchorPoint: "Top" -198.5 401 mark 0
LayerCount: 2
Fore
SplineSet
-69.9502 450 m 1
 -109.55 415.601 l 1
 -197.55 481.762 l 5
 -285.45 415.601 l 1
 -325.05 450 l 1
 -229.45 607.4 l 1
 -165.55 607.4 l 1
 -69.9502 450 l 1
EndSplineSet
Validated: 1
EndChar

StartChar: gravecomb
Encoding: 768 768 95
Width: 0
VWidth: 1159
Flags: W
HStem: 430.175 225.516
VStem: -337.486 169.82
AnchorPoint: "TopMark" -195 625 basemark 0
AnchorPoint: "Top" -198.5 409 mark 0
AnchorPoint: "TopMark" -196 410 mark 0
LayerCount: 2
Fore
SplineSet
-155.332 461.698 m 9
 -210.67 420.35 l 17
 -261.559 497.868 -317.867 563.025 -366.972 601.688 c 1
 -323.858 638.218 -250.866 671.382 -250.866 671.382 c 17
 -221.136 613.336 -176.71 523.618 -155.332 461.698 c 9
EndSplineSet
Validated: 1
EndChar

StartChar: uni030A
Encoding: 778 778 99
Width: 0
VWidth: 1159
Flags: W
HStem: 409.361 63.397<-225.75 -170.766> 529.242 63.397<-225.234 -170.328>
VStem: -291.436 64.64<474.434 528.111> -169.204 64.64<473.889 528.01>
AnchorPoint: "TopMark" -200.5 382 mark 0
AnchorPoint: "TopMark" -198.5 562 basemark 0
AnchorPoint: "Top" -198.5 395 mark 0
LayerCount: 2
Fore
SplineSet
-198 529.242 m 0
 -212.952 529.242 -226.796 517.06 -226.796 500.447 c 0
 -226.796 483.833 -213.505 472.758 -198 472.758 c 0
 -183.048 472.758 -169.204 484.94 -169.204 501.553 c 0
 -169.204 517.059 -182.495 529.242 -198 529.242 c 0
-198 592.639 m 0
 -147.688 592.639 -104.564 553.107 -104.564 502.797 c 0
 -104.564 448.892 -149.485 409.361 -198 409.361 c 0
 -248.312 409.361 -291.436 445.298 -291.436 499.203 c 0
 -291.436 553.107 -246.515 592.639 -198 592.639 c 0
EndSplineSet
Validated: 1
EndChar

StartChar: uni031B
Encoding: 795 795 100
Width: 0
VWidth: 1159
Flags: W
HStem: 318.188 36<-95.5 -48.2695>
VStem: -34.2357 125.486<383.12 475.632>
AnchorPoint: "Horn" -73.5 341.8 mark 0
LayerCount: 2
Fore
SplineSet
-34.2357 391.771 m 3
 -34.2357 419.193 -55.9879 440.802 -91.4882 463.446 c 1
 -72.901 514.513 -35.6791 546.645 4.41339 546.645 c 3
 56.8433 546.645 91.2502 499.713 91.2502 451.55 c 3
 91.2502 398.6 -14.7213 318.685 -95.5 318.188 c 1
 -96.5 354.188 l 1
 -61.5086 358.927 -34.2357 374.468 -34.2357 391.771 c 3
EndSplineSet
Validated: 1
EndChar

StartChar: tildecomb
Encoding: 771 771 101
Width: 0
VWidth: 1159
Flags: W
HStem: 406.054 120<-221.083 -124.438> 439.945 118.892<-292.432 -195.375>
VStem: -360.352 303.533
AnchorPoint: "TopMark" -214 389 mark 0
AnchorPoint: "TopMark" -198.5 538 basemark 0
AnchorPoint: "Top" -210 382 mark 0
LayerCount: 2
Fore
SplineSet
-360.352 434.208 m 5x60
 -327.691 505.023 -278.363 558.837 -270.11 558.837 c 7x60
 -230.17 558.837 -184.534 526.054 -145.658 526.054 c 7
 -135.95 526.054 -124.098 541.705 -119.389 562.109 c 5
 -56.8193 535.539 l 5
 -80.2293 470.133 -125.022 406.054 -138.992 406.054 c 7xa0
 -178.881 406.054 -240.776 439.945 -275.437 439.945 c 7
 -284.989 439.945 -293 416.293 -297.52 406.79 c 5
 -360.352 434.208 l 5x60
EndSplineSet
Validated: 1
EndChar

StartChar: uni0304
Encoding: 772 772 102
Width: 0
VWidth: 1159
Flags: W
HStem: 421.601 98.199<-336.399 -57.5996>
VStem: -336.399 278.799<421.601 519.8>
AnchorPoint: "TopMark" -200.5 397 mark 0
AnchorPoint: "TopMark" -198.5 495 basemark 0
AnchorPoint: "Top" -198.5 393 mark 0
LayerCount: 2
Fore
SplineSet
-336.399 421.601 m 5
 -336.399 519.8 l 5
 -57.5996 519.8 l 5
 -57.5996 421.601 l 5
 -336.399 421.601 l 5
EndSplineSet
Validated: 1
EndChar

StartChar: uni0306
Encoding: 774 774 106
Width: 0
VWidth: 1159
Flags: W
HStem: 430.274 101.438<-276.584 -119.011>
VStem: -344.258 293.518
AnchorPoint: "TopMark" -200.5 396 mark 0
AnchorPoint: "TopMark" -202 541 basemark 0
AnchorPoint: "Top" -198.5 393 mark 0
LayerCount: 2
Fore
SplineSet
-344.258 538.888 m 1
 -288.098 566.41 l 1
 -275.155 543.302 -236.515 531.712 -197.748 531.712 c 0
 -159.136 531.712 -120.4 543.254 -106.902 566.41 c 1
 -50.7402 538.888 l 1
 -72.0861 466.478 -135.153 430.274 -198.026 430.274 c 0
 -260.946 430.274 -323.673 466.478 -344.258 538.888 c 1
EndSplineSet
Validated: 1
EndChar

StartChar: uni030D
Encoding: 781 781 107
Width: 0
VWidth: 1159
Flags: W
HStem: 434 216.399<-242.2 -153.8>
VStem: -242.2 88.4<434 650.399>
AnchorPoint: "TopMark" -200.5 396 mark 0
AnchorPoint: "TopMark" -198.5 641 basemark 0
AnchorPoint: "Top" -198.5 393 mark 0
LayerCount: 2
Fore
SplineSet
-242.2 650.399 m 1
 -153.8 650.399 l 1
 -153.8 434 l 1
 -242.2 434 l 1
 -242.2 650.399 l 1
EndSplineSet
Validated: 1
EndChar

StartChar: uni0305
Encoding: 773 773 111
Width: 0
VWidth: 1159
Flags: W
HStem: 745 66<-533 0>
LayerCount: 2
Fore
SplineSet
-533 745 m 1
 -533 811 l 1
 0 811 l 1
 0 745 l 1
 -533 745 l 1
EndSplineSet
Validated: 1
EndChar

StartChar: uni0315
Encoding: 789 789 114
Width: 0
VWidth: 1159
Flags: W
HStem: 430.494 232.751
VStem: -126 188.25
AnchorPoint: "TopRight" -110.5 531 mark 0
LayerCount: 2
Fore
SplineSet
-59.75 663.245 m 9
 62.25 627.245 l 1
 42.6698 562.461 0.712219 483.28 -86 430.494 c 9
 -126 458.494 l 1
 -87.0294 519.431 -68.2984 589.535 -59.75 663.245 c 9
EndSplineSet
Validated: 1
EndChar

StartChar: Circumflex
Encoding: 65538 -1 160
Width: 281
VWidth: 1159
Flags: HMW
AnchorPoint: "Top" 140 699 mark 0
LayerCount: 2
Fore
SplineSet
306.504882812 758.360351562 m 5
 251.689453125 731.348632812 l 5
 140.154296875 774.125976562 l 5
 29.3115234375 731.348632812 l 5
 -25.5048828125 758.360351562 l 5
 102.846679688 889.399414062 l 5
 177.153320312 889.399414062 l 5
 306.504882812 758.360351562 l 5
EndSplineSet
Validated: 1
EndChar

StartChar: Breve
Encoding: 65541 -1 163
Width: 321
VWidth: 1159
Flags: W
VStem: 4.76465 311.471
AnchorPoint: "Top" 162 699 mark 0
LayerCount: 2
Fore
SplineSet
4.7646484375 830.463867188 m 5
 65.6064453125 859.131835938 l 5
 92.328125 825.5078125 226.705078125 823.368164062 255.392578125 859.131835938 c 5
 316.235351562 830.463867188 l 5
 270.655273438 692.376953125 48.1875 693.83984375 4.7646484375 830.463867188 c 5
EndSplineSet
Validated: 33
EndChar

StartChar: Ring
Encoding: 65544 -1 166
Width: 281
VWidth: 1159
Flags: W
HStem: 736.972 38.3723<100.526 176.371> 868.246 38.3722<102.629 177.208>
VStem: 53.0137 39.124<783.978 858.53> 186.862 39.1243<785.059 858.629>
AnchorPoint: "Top" 132 699 mark 0
LayerCount: 2
Fore
SplineSet
139.5 868.246 m 0
 114.908 868.246 92.1377 848.208 92.1377 820.884 c 0
 92.1377 793.56 113.998 775.344 139.5 775.344 c 0
 164.092 775.344 186.862 795.382 186.862 822.706 c 0
 186.862 848.208 165.002 868.246 139.5 868.246 c 0
139.5 932.064 m 0
 200.041 932.064 251.932 884.496 251.932 823.957 c 0
 251.932 759.091 197.878 711.525 139.5 711.525 c 0
 78.9594 711.525 27.0684 754.768 27.0684 819.633 c 0
 27.0684 884.496 81.1222 932.064 139.5 932.064 c 0
EndSplineSet
Validated: 1
EndChar

StartChar: Uni030B
Encoding: 65545 -1 167
Width: 300
VWidth: 1159
Flags: W
HStem: 713.839 211.161
VStem: -3 315.517
AnchorPoint: "Top" 87 699 mark 0
LayerCount: 2
Fore
SplineSet
-3 765.599609375 m 1
 7 800.599609375 27 874 60 925 c 1
 60 925 126.879882812 892.120117188 169 865.599609375 c 1
 120 831.599609375 106 810.599609375 51 725.599609375 c 1
 -3 765.599609375 l 1
120.94140625 767.87890625 m 1
 139.688476562 799.342773438 179.854492188 864.204101562 225.64453125 904.145507812 c 1
 225.64453125 904.145507812 279.989257812 853.147460938 312.516601562 815.473632812 c 1
 256.432617188 796.418945312 237.2578125 779.986328125 160.884765625 713.838867188 c 1
 120.94140625 767.87890625 l 1
EndSplineSet
Validated: 1
EndChar

StartChar: eogonek
Encoding: 281 281 254
Width: 403
VWidth: 1159
UnlinkRmOvrlpSave: 1
HStem: -347.158 120.256<239.931 342.675>
VStem: 155.124 138.418<-267.233 -136.496>
AnchorPoint: "Top" 209 465 basechar 0
LayerCount: 2
Fore
SplineSet
366.26171875 46.0859375 m 1
 314.350541572 -30.5840549889 293.541992188 -87.1433648297 293.541992188 -173.158203125 c 3
 293.541992188 -206.8971596 311.989257812 -226.90234375 335.33203125 -226.90234375 c 3
 344.0234375 -226.90234375 358.166992188 -224.333984375 365.166992188 -220.333984375 c 1
 365.166992188 -220.333984375 391.23046875 -245.2109375 397.54296875 -264.658203125 c 1
 367.458984375 -321.9609375 316.775390625 -347.158203125 270.541992188 -347.158203125 c 3
 209.3203125 -347.158203125 155.124023438 -303.637980983 155.124023438 -230.828125 c 3
 155.124023438 -163.666128279 202.246673361 -33.7469766533 337 71 c 1
 366.26171875 46.0859375 l 1
EndSplineSet
Refer: 4 101 N 1 0 0 1 0 0 3
Substitution2: "case-1" Eogonek
EndChar

StartChar: uni0328
Encoding: 808 808 255
Width: 0
VWidth: 1159
Flags: W
HStem: -302.5 120.256<-210.069 -107.325>
VStem: -294.876 138.418<-228.072 -115.226>
AnchorPoint: "Ogonek" -104.35 35.6582 mark 0
LayerCount: 2
Fore
SplineSet
-91.3691 18.543 m 1
 -137.833 -35.6762 -156.458 -75.673 -156.458 -136.5 c 3
 -156.458 -165.217 -138.011 -182.244 -114.668 -182.244 c 3
 -105.977 -182.244 -91.8333 -179.676 -84.833 -175.676 c 9
 -84.833 -175.676 -58.7692 -200.553 -52.457 -220 c 1
 -82.5406 -277.303 -133.225 -302.5 -179.458 -302.5 c 3
 -240.68 -302.5 -294.876 -261.973 -294.876 -194.17 c 3
 -294.876 -137.395 -245.62 -27.5671 -104.767 60.9805 c 1
 -91.3691 18.543 l 1
EndSplineSet
Validated: 1
EndChar

StartChar: Aogonek
Encoding: 260 260 256
Width: 730
VWidth: 0
HStem: -346.802 72.7783<509.644 579.002> 245 42<247 437.657> 692 20G<358 405.73>
VStem: 360 43<632.023 712> 417.273 71.958<-253.556 -112.611>
LayerCount: 2
Fore
SplineSet
247 287 m 1
 300 282 410 283 459 283 c 1
 420 383 394 443 352 545 c 9
 311 444 284 378 247 287 c 1
515.106 9.30371 m 0
 528.580338516 25.1898171388 540.25 48 535 76 c 0
 512 139 498 173 475 236 c 1
 415 246 318 252 231 245 c 9
 204.87 183.38 185 147 164 87 c 0
 152 51 176 29 247 34 c 9
 245 -10 l 1
 190 1 82 4 27 -5 c 9
 27 -5 23 20 22 34 c 1
 71 48 95 57 106 80 c 0
 198 289 276 470 344 640 c 0
 359 678 356 679 360 712 c 9
 403 712 l 9
 408.46 684.7 403 681 417 642 c 0
 489.318 423.284 532.922 291.261 632 78.1982 c 0
 640 60.9938 671.846 35.0799 702 32 c 9
 702 32 701 8 700 -4 c 1
 648.463 32.9972 584.223 32.6444 544 -14 c 0
 498.216367131 -67.0927599884 489.231445312 -140.721568606 489.231445312 -196.747070312 c 3
 489.231445312 -237.611373161 518.631004142 -274.0234375 550.14453125 -274.0234375 c 3
 569.969724697 -274.0234375 593.77495698 -267.592408263 618.200195312 -253.40234375 c 9
 618.200195312 -253.40234375 629.310038072 -263.730014861 632 -271.801757812 c 1
 605.823 -315.298757812 555.232 -346.801757812 515 -346.801757812 c 3
 465.302222486 -346.801757812 417.2734375 -298.236689929 417.2734375 -235.232421875 c 3
 417.2734375 -105.15651352 478.973157111 -33.2965417808 515.106 9.30371 c 0
EndSplineSet
Validated: 33
Position2: "cpsp-1" dx=0 dy=0 dh=10 dv=20
EndChar

StartChar: aogonek
Encoding: 261 261 257
Width: 412
VWidth: 0
UnlinkRmOvrlpSave: 1
Flags: W
VStem: 131.773 138.42<-273.73 -160.131>
LayerCount: 2
Fore
SplineSet
366.26171875 -0.23046875 m 1
 268.960480891 -88.388690229 270.193359375 -135.192495121 270.193359375 -182.158203125 c 7
 270.193359375 -210.875976562 288.639648438 -227.90234375 311.982421875 -227.90234375 c 7
 322.064453125 -227.90234375 326.421875 -220.525390625 346.595703125 -228.857421875 c 5
 346.595703125 -228.857421875 368.8125 -249.51171875 374.193359375 -265.658203125 c 5
 344.109375 -322.9609375 293.42578125 -348.158203125 247.193359375 -348.158203125 c 7
 185.969726562 -348.158203125 131.7734375 -307.631835938 131.7734375 -239.828125 c 7
 131.7734375 -183.883742069 178.641367092 -81.2883988638 308.69140625 10 c 1
 366.26171875 -0.23046875 l 1
EndSplineSet
Refer: 0 97 N 1 0 0 1 0 0 3
Substitution2: "case-1" Aogonek
EndChar

StartChar: Uni0328
Encoding: 65547 -1 258
Width: 0
VWidth: 1159
Flags: W
HStem: -310.23 147.438<-187.293 -104.132>
VStem: -287.584 143.75<-233.522 -101.946>
AnchorPoint: "Ogonek" -105.35 23.6582 mark 0
LayerCount: 2
Fore
SplineSet
-79.6934 0.949263 m 1
 -121.295 -29.8733 -143.834 -104.986 -143.834 -122.207 c 3
 -143.834 -143.912 -127.364 -162.792 -109.245 -162.792 c 3
 -99.0213 -162.792 -94.6434 -161.237 -74.1504 -157.892 c 9
 -74.1504 -157.892 -35.9609 -193.265 -26.7158 -220.911 c 1
 -60.9214 -272.084 -127.215 -310.23 -179.785 -310.23 c 3
 -235.125 -310.23 -287.584 -263.188 -287.584 -203.855 c 3
 -287.584 -120.98 -250.087 -16.7833 -93.0918 66.3867 c 1
 -79.6934 0.949263 l 1
EndSplineSet
Validated: 1
EndChar

StartChar: Eogonek
Encoding: 280 280 259
Width: 672
VWidth: 0
UnlinkRmOvrlpSave: 1
HStem: -348.263 147.439<445.721 547.334> -3.95605 96.9561<304.564 453.511> 316 72<279 442.523> 629 62<35 75.6067>
VStem: 349.982 143.75<-248.479 -117.166> 478 72<230 279.035>
AnchorPoint: "Top" 330 699 basechar 0
LayerCount: 2
Fore
SplineSet
35 691 m 1xf8
 245.349609375 671 563.516601562 685 591 697 c 1
 629 664.090820312 596 672.318359375 585 516 c 1
 525 510 l 1
 505 519.900390625 514.409179688 557.250976562 503 571 c 0
 471.737304688 608.471679688 374.9765625 617 318 597 c 0
 306.081054688 592.81640625 293.791015625 583.283203125 292 563 c 0
 286.799804688 504.094726562 280.299804688 443.614257812 279 388 c 1
 315.83984375 392 407.9453125 391.926757812 416 394 c 0
 455.37890625 404.1328125 473.5 456.700195312 484 471 c 1
 552 457 l 1
 535 380.936523438 539 306.063476562 550 230 c 1
 478 212 l 1xf4
 456.5 274.700195312 463.07421875 296.7265625 416 306 c 0
 389.283203125 311.262695312 332.53515625 314 279 316 c 1
 277.799804688 242.188476562 282.795898438 174.0546875 297 125 c 0
 301.864257812 108.203125 313 93.900390625 333 93 c 0
 369.016601562 90.9052734375 399.563476562 92.748046875 426 97.7216796875 c 0
 503.611328125 112.321289062 545.8046875 153.895507812 587 202 c 1
 643 188 l 1
 628.905749215 126.394265457 611.293945312 39.0908203125 578.85546875 7.46875 c 0
 540.102539062 -30.30859375 493.732421875 -88.595703125 493.732421875 -148.239257812 c 0
 493.732421875 -176.362304688 516.392578125 -200.823242188 541.322265625 -200.823242188 c 0
 548.803710938 -200.823242188 557.78515625 -198.384765625 567 -193 c 1
 567 -193 610.57421875 -226.802734375 621.123046875 -253.22265625 c 1
 589.31640625 -307.67578125 527.66796875 -348.262695312 478.78125 -348.262695312 c 0
 412.661132812 -348.262695312 349.982421875 -287.0703125 349.982421875 -209.887695312 c 0
 349.982421875 -144.4765625 384.629882812 -68.857421875 454.973632812 -3.9560546875 c 5
 299.26953125 0.533203125 147.449797479 7.9838626694 45 -24 c 1
 25 46 l 1
 65.4345703125 66.7001953125 86.537109375 82.423828125 105 121 c 0
 133.818359375 181.21484375 125.461914062 506.03125 106 572 c 0
 97.3623046875 601.280273438 95.24609375 602.536132812 25 629 c 1
 35 691 l 1xf8
EndSplineSet
Position2: "cpsp-1" dx=0 dy=0 dh=10 dv=20
EndChar

StartChar: Iogonek
Encoding: 302 302 260
Width: 387
VWidth: 0
UnlinkRmOvrlpSave: 1
HStem: -348.263 147.439<173.721 275.334> -10 78<289.856 364>
VStem: 77.9824 143.75<-248.479 -97.3378>
LayerCount: 2
Fore
SplineSet
255.85546875 7.46875 m 5
 240.320824661 -30.3088527724 221.732421875 -88.5961696853 221.732421875 -148.239257812 c 7
 221.732421875 -176.361908141 244.39255059 -200.823242188 269.322265625 -200.823242188 c 7
 276.803388845 -200.823242188 285.785252804 -198.384740193 295 -193 c 5
 295 -193 338.574223729 -226.802930287 349.123046875 -253.22265625 c 5
 317.316272061 -307.675522877 255.667885948 -348.262695312 206.78125 -348.262695312 c 7
 140.660895055 -348.262695312 77.982421875 -287.070694631 77.982421875 -209.887695312 c 7
 77.982421875 -116.034567317 123.000124832 -1.16482872151 242.45703125 72.90625 c 5
 255.85546875 7.46875 l 5
EndSplineSet
Refer: 34 73 N 1 0 0 1 0 0 3
Position2: "cpsp-1" dx=0 dy=0 dh=10 dv=20
EndChar

StartChar: iogonek
Encoding: 303 303 261
Width: 279
VWidth: 0
UnlinkRmOvrlpSave: 1
HStem: -348.158 120.256<109.931 212.675> 535.025 175.949<97.503 212.497>
VStem: 25.124 138.418<-273.729 -132.424> 65.3 179.4<566.75 679.25>
LayerCount: 2
Fore
SplineSet
198.616210938 16.849609375 m 1xe0
 173.578383239 -52.7437099543 163.541992188 -104.082571261 163.541992188 -182.158203125 c 3
 163.541992188 -210.875 181.989257812 -227.90234375 205.33203125 -227.90234375 c 3
 214.0234375 -227.90234375 228.166992188 -225.333984375 235.166992188 -221.333984375 c 1
 235.166992188 -221.333984375 261.23046875 -246.2109375 267.54296875 -265.658203125 c 1
 237.458984375 -322.9609375 186.775390625 -348.158203125 140.541992188 -348.158203125 c 3
 79.3203125 -348.158203125 25.1240234375 -307.630859375 25.1240234375 -239.828125 c 3
 25.1240234375 -173.269793532 62.4575925306 -44.5183808249 169.217773438 59.287109375 c 1
 198.616210938 16.849609375 l 1xe0
EndSplineSet
Refer: 8 105 N 1 0 0 1 0 0 3
Substitution2: "case-1" Iogonek
EndChar

StartChar: Uogonek
Encoding: 370 370 262
Width: 827
VWidth: 0
UnlinkRmOvrlpSave: 1
HStem: -348.263 147.439<433.721 535.334> -16 108<370.737 573.379> 614 80<19 95.3232 539 622.348> 622 72<306.267 383>
VStem: 103 174<176.265 576.611> 108 180<257.384 597.57> 337.982 143.75<-248.479 -97.3378>
LayerCount: 2
Fore
SplineSet
515.85546875 7.46875 m 5xc2
 500.320824661 -30.3088527724 481.732421875 -88.5961696853 481.732421875 -148.239257812 c 7
 481.732421875 -176.361908141 504.39255059 -200.823242188 529.322265625 -200.823242188 c 7
 536.803388845 -200.823242188 545.785252804 -198.384740193 555 -193 c 5
 555 -193 598.574223729 -226.802930287 609.123046875 -253.22265625 c 5
 577.316272061 -307.675522877 515.667885948 -348.262695312 466.78125 -348.262695312 c 7
 400.660895055 -348.262695312 337.982421875 -287.070694631 337.982421875 -209.887695312 c 7
 337.982421875 -116.034567317 383.000124832 -1.16482872151 502.45703125 72.90625 c 5
 515.85546875 7.46875 l 5xc2
EndSplineSet
Refer: 54 85 N 1 0 0 1 0 0 3
Position2: "cpsp-1" dx=0 dy=0 dh=10 dv=20
EndChar

StartChar: uogonek
Encoding: 371 371 263
Width: 526
VWidth: 0
UnlinkRmOvrlpSave: 1
HStem: -348.158 120.256<286.931 389.675>
VStem: 202.124 138.418<-273.729 -151.906>
LayerCount: 2
Fore
SplineSet
405.630859375 -7.115234375 m 1
 359.166992188 -58.328013248 340.541992188 -113.484565559 340.541992188 -182.158203125 c 3
 340.541992188 -210.875 358.989257812 -227.90234375 382.33203125 -227.90234375 c 3
 391.0234375 -227.90234375 405.166992188 -225.333984375 412.166992188 -221.333984375 c 9
 412.166992188 -221.333984375 438.23046875 -246.2109375 444.54296875 -265.658203125 c 1
 414.458984375 -322.9609375 363.775390625 -348.158203125 317.541992188 -348.158203125 c 3
 256.3203125 -348.158203125 202.124023438 -307.630859375 202.124023438 -239.828125 c 3
 202.124023438 -178.60238723 251.379882812 -50.1664219947 392.233398438 35.322265625 c 1
 405.630859375 -7.115234375 l 1
EndSplineSet
Refer: 20 117 N 1 0 0 1 0 0 3
Substitution2: "case-1" Uogonek
EndChar

StartChar: uni0327
Encoding: 807 807 269
Width: 0
VWidth: 1159
UnlinkRmOvrlpSave: 1
Flags: W
VStem: -229.373 108.801<-153.251 -92.7587>
AnchorPoint: "Bottom" -193 -15 mark 0
LayerCount: 2
Fore
SplineSet
-301.175 -206.003 m 1
 -293.107 -161.621 l 1
 -258.373 -159.158 -229.373 -151.123 -229.373 -127.158 c 3
 -229.373 -113.123 -247.373 -112.158 -259.373 -119.158 c 1
 -268.346 -73.8262 l 1
 -258.514 -68.7163 -245.633 -65.6873 -237.373 -60.1582 c 0
 -231.6 -52.076 -218.018 -10.237 -215.624 -2.56738 c 1
 -145.624 13.4326 l 1
 -145.624 13.4326 -167.352 -39.3218 -175.072 -48.9287 c 1
 -145.158 -54.1171 -120.572 -74.0885 -120.572 -111.429 c 3
 -120.572 -184.912 -221.468 -237.418 -301.175 -206.003 c 1
EndSplineSet
EndChar

StartChar: cedillafloating
Encoding: 65548 -1 270
Width: 0
VWidth: 1159
Flags: W
VStem: -301.175 181.301
AnchorPoint: "Bottom" -193 -15 mark 0
LayerCount: 2
Fore
SplineSet
-301.175 -206.003 m 1
 -293.107 -161.621 l 1
 -267.806 -157.454 -255.292 -154.032 -246.274 -151.595 c 0
 -227.774 -146.595 -217.274 -124.595 -242.774 -117.595 c 1
 -251.748 -72.2627 l 1
 -201.038 -38.1353 -119.874 -43.7176 -119.874 -109.35 c 3
 -119.874 -184.448 -221.159 -238.109 -301.175 -206.003 c 1
EndSplineSet
Validated: 33
EndChar

StartChar: Uni0327
Encoding: 65549 -1 282
Width: 0
VWidth: 1159
Flags: W
HStem: -133.801 53.0393<-271.571 -253.496>
VStem: -252.571 140.54<-179.838 -121.772>
AnchorPoint: "Bottom" -191 -15 mark 0
LayerCount: 2
Fore
SplineSet
-307.009 -239.727 m 1
 -297.571 -187.801 l 1
 -274.572 -183.801 -252.571 -174.701 -252.571 -144.801 c 3
 -252.571 -138.767 -256.572 -132.801 -271.571 -133.801 c 1
 -282.021 -80.7617 l 1
 -273.342 -76.7758 -262.434 -76.8466 -254.571 -70.8008 c 0
 -231.337 -52.9361 -227.367 -20.6317 -220.571 -3.55664 c 1
 -130.571 12.4434 l 1
 -130.571 12.4434 -143.109 -34.5192 -169.391 -63.6678 c 1
 -137.443 -70.9768 -112.031 -92.7398 -112.031 -124.709 c 1
 -112.031 -214.075 -220.958 -277.933 -307.009 -239.727 c 1
EndSplineSet
Validated: 33
EndChar

StartChar: Cedillafloating
Encoding: 65550 -1 283
Width: 0
VWidth: 1159
Flags: W
VStem: -302.112 190.081
AnchorPoint: "Bottom" -193 -15 mark 0
LayerCount: 2
Fore
SplineSet
-302.112 -232.844 m 1
 -292.674 -180.918 l 1
 -274.5 -178 -261.994 -173.011 -252.5 -168 c 0
 -234.5 -158.5 -219 -131 -246 -130.5 c 1
 -256.5 -77.4609 l 1
 -200.946 -33.9825 -112.031 -58.289 -112.031 -124.709 c 3
 -112.031 -208.728 -218.222 -268.764 -302.112 -232.844 c 1
EndSplineSet
Validated: 33
EndChar

StartChar: Uni030F
Encoding: 65554 -1 296
Width: 300
VWidth: 1159
Flags: W
HStem: 712.709 212.291
VStem: -141.476 317.477
AnchorPoint: "Top" 87 699 mark 0
LayerCount: 2
Fore
SplineSet
176.000976562 765.599609375 m 1
 122.000976562 725.599609375 l 1
 67.0009765625 810.599609375 53.0009765625 831.599609375 4.0009765625 865.599609375 c 1
 46.1201171875 892.120117188 113.000976562 925 113.000976562 925 c 1
 146.000976562 874 166.000976562 800.599609375 176.000976562 765.599609375 c 1
50.09765625 766.750976562 m 1
 10.15234375 712.708984375 l 1
 -66.2197265625 778.858398438 -85.3935546875 795.288085938 -141.475585938 814.34375 c 1
 -108.953125 852.01953125 -54.607421875 903.015625 -54.607421875 903.015625 c 1
 -8.8154296875 863.076171875 31.349609375 798.21484375 50.09765625 766.750976562 c 1
EndSplineSet
Validated: 1
EndChar

StartChar: uni01EA
Encoding: 490 490 309
Width: 847
VWidth: 0
UnlinkRmOvrlpSave: 1
Flags: W
HStem: -348.263 147.439<428.721 530.334> -13 100<390.056 532.953> 617 98<300.65 441.145>
VStem: 32 186<306.148 461.539> 332.982 143.75<-248.479 -97.3378> 613 202<227.118 419.153>
AnchorPoint: "Middle" 417.697 364.853 basechar 0
AnchorPoint: "Top" 420 699 basechar 0
LayerCount: 2
Fore
SplineSet
510.85546875 7.46875 m 1
 495.320824661 -30.3088527724 476.732421875 -88.5961696853 476.732421875 -148.239257812 c 3
 476.732421875 -176.361908141 499.39255059 -200.823242188 524.322265625 -200.823242188 c 3
 531.803388845 -200.823242188 540.785252804 -198.384740193 550 -193 c 1
 550 -193 593.574223729 -226.802930287 604.123046875 -253.22265625 c 1
 572.316272061 -307.675522877 510.667885948 -348.262695312 461.78125 -348.262695312 c 3
 395.660895055 -348.262695312 332.982421875 -287.070694631 332.982421875 -209.887695312 c 3
 332.982421875 -116.034567317 378.000124832 -1.16482872151 497.45703125 72.90625 c 1
 510.85546875 7.46875 l 1
EndSplineSet
Refer: 40 79 N 1 0 0 1 0 0 3
Position2: "cpsp-1" dx=0 dy=0 dh=10 dv=20
EndChar

StartChar: uni01EB
Encoding: 491 491 310
Width: 506
VWidth: 0
UnlinkRmOvrlpSave: 1
Flags: W
HStem: -348.158 120.256<238.931 341.675> -20 78<235.778 308.758> 332 90<188.399 264.494>
VStem: 20 152<144.954 286.531> 154.124 138.418<-273.729 -149.065> 329 156<108.659 257.666>
AnchorPoint: "Top" 251 465 basechar 0
AnchorPoint: "Middle" 255 206 basechar 0
LayerCount: 2
Fore
SplineSet
337.630859375 -4.115234375 m 5xec
 305.444047295 -66.377117579 292.541992188 -112.30759219 292.541992188 -182.158203125 c 3
 292.541992188 -210.875 310.989257812 -227.90234375 334.33203125 -227.90234375 c 3
 343.0234375 -227.90234375 357.166992188 -225.333984375 364.166992188 -221.333984375 c 9
 364.166992188 -221.333984375 390.23046875 -246.2109375 396.54296875 -265.658203125 c 1
 366.458984375 -322.9609375 315.775390625 -348.158203125 269.541992188 -348.158203125 c 3
 208.3203125 -348.158203125 154.124023438 -307.630859375 154.124023438 -239.828125 c 3
 154.124023438 -177.934835158 198.198038479 -58.2075474032 324.233398438 38.322265625 c 5
 337.630859375 -4.115234375 l 5xec
EndSplineSet
Refer: 14 111 N 1 0 0 1 0 0 3
Substitution2: "case-1" uni01EA
EndChar

StartChar: thorn
Encoding: 254 254 318
Width: 515
VWidth: 1159
Flags: W
HStem: -348 32<8.34375 55.6963> -342 34<151.753 229> -10 46<184.803 329.513> 369 43<198.188 323.819> 654 29<16 45.5305>
VStem: 67 82<-302.037 -18.4171> 80 65<-197.411 7 69.4004 345.78 368 599.495> 406 69<130.435 275.055>
LayerCount: 2
Fore
SplineSet
145 332 m 9x3b
 144 241 143 189 143 98 c 3
 143 92 147 85 154 79 c 0
 185 52 227 36 268 36 c 3
 345 36 406 96 406 180 c 3
 406 270 352 369 251 369 c 3
 207 369 155 342 145 332 c 9x3b
76 31 m 24
 79.1289 217.79 80 367 80 510 c 3
 80 570 80 607 76 627 c 0
 71 654 64 656 46 656 c 3
 36 656 25 654 16 654 c 1
 11 683 l 1
 48 690 104 718 154 759 c 1
 175 743 l 1
 165 717 157 687 156 667 c 0
 151 599 145 484 145 368 c 1xbb
 178 382 234 412 294 412 c 3
 399 412 475 315 475 223 c 3
 475 94 363.004 -10 225 -10 c 3
 198 -10 170 -2 144 7 c 1
 144 -75 144 -247 149 -284 c 0
 151 -299 170 -303 181 -304 c 0
 197 -305 216 -307 230 -308 c 1
 229 -342 l 1x7d
 190 -341 159 -339 117 -339 c 3
 87 -339 39 -344 9 -348 c 1
 6 -316 l 1
 17 -315 25 -313 36 -311 c 0
 59 -305 65 -294 67 -266 c 0xbd
 72 -214 74.0589 -84.8672 76 31 c 24
EndSplineSet
Validated: 1
Substitution2: "case-1" Thorn
EndChar

StartChar: Thorn
Encoding: 222 222 319
Width: 587
VWidth: 1159
Flags: W
HStem: -9 35<49 91.6309> 175 45<203.142 405.091> 516 42<202.8 387.894> 645.244 37.799<211.888 312> 654 31<31 95.7781>
VStem: 117 86.142<54.7783 179.945 223.958 511.181 551.895 633.551> 479 87<296.251 428.707>
LayerCount: 2
Fore
SplineSet
314 645.244 m 1xf6
 283.541 645.769 253.069 641.465 225 634 c 0
 207.498 629.345 204 615 203 597 c 0
 202.24 581.604 201.66 566.606 201.22 551.895 c 1
 237.962 554.526 273.919 558 323 558 c 3
 456 558 566 475 566 372 c 3
 566 255.263 431.193 175 306 175 c 3
 265.72 175 242.813 178.861 203.142 179.945 c 1
 204.32 143.366 206.447 105.541 212 75 c 0
 215.801 58.8486 223.212 38.1826 320 36.1611 c 1
 316 -10.61 l 1
 220.463 11.9565 171.172 11.0439 49 -9 c 1
 39 26 l 1
 92 36 117 49 117 77 c 1
 121 154 120 529 114 613 c 0
 113 640 99 640 26 654 c 1
 31 685 l 1xee
 117.191 680.669 220 674 312 683.043 c 1
 314 645.244 l 1xf6
203.073 223.958 m 1
 242.562 222.396 263.367 220 304 220 c 3
 450 220 479 308 479 361 c 3
 479 421 418 516 302 516 c 3
 280.519 516 230.749 513.6 201.262 507.467 c 1
 199.977 414.948 201.341 310.534 203.073 223.958 c 1
EndSplineSet
Validated: 33
Position2: "cpsp-1" dx=0 dy=0 dh=10 dv=20
EndChar

StartChar: AE
Encoding: 198 198 320
Width: 1067
VWidth: 1159
Flags: W
HStem: -18 76<248.281 280.373> -6 96<727.256 857.574> 316 72<650 825.361>
VStem: 491.492 158.508<102.937 205.298 289.991 316 388 573.911> 863 72<230 275.691> 910 60<516 567.308> 972 56<172.322 189.75>
AnchorPoint: "Top" 580.585 699 basechar 0
AnchorPoint: "Bottom" 569.957 -15 basechar 0
LayerCount: 2
Fore
SplineSet
343 693 m 1xba
 472.918447581 665 949.357300403 683 976 697 c 1
 1014 664.091 981 672.318 970 516 c 1
 910 510 l 1xb6
 900 518 911.702950548 553.236364816 888 571 c 0
 836.076478114 609.912898137 708.4463904 598 686 598 c 0
 674 598 666.496839503 567.572864204 666 563 c 0
 659.6 504.095 651.6 443.614 650 388 c 1
 694.796235608 392 791.295772788 391.502909309 801 394 c 0
 840.379 404.133 858.5 456.7 869 471 c 1
 937 457 l 1
 920 380.937 924 306.063 935 230 c 1
 863 212 l 1
 841.5 274.7 846.228977016 291.314242167 801 306 c 0
 770.202149776 316 715.09617328 314 650 316 c 1
 649.066666667 239.482848168 653.24471993 139.51056014 664 118 c 0
 672 102 673.968374756 91.5751152704 698 90 c 0
 749.473389703 86.6262572209 769.719614151 86.0134978913 830 103 c 0
 922.455722105 129.053239315 934 146.043478261 972 202 c 1
 1028 188 l 1
 1010.769 112.6823 998.923 64.7529 986 -6 c 1x7a
 784.2 -8 560.533 18 426 -24 c 1
 406 46 l 1
 434 64 485 93.82354 485 121 c 1
 488.407719855 133.9880126 490.638406856 164.330503482 491.4921875 200.184570312 c 1
 437.964635658 216.866231824 338.907541667 223.880162376 266.959 211 c 1
 253.698549912 182.53 244.832337542 179.001397207 232.958007812 138 c 0
 222.736551497 102.705882353 233.958642675 74.4705882353 288 58 c 1
 279.599367187 -18 l 1
 214.005995685 -7 80.8359320497 -4 10.546925 -13 c 1
 10.546925 -13 2.019525 37 5.326125 65 c 1
 37.1778 79 108.588479876 114.333693274 114.304 124 c 0
 213.780956089 292.239241377 306.069517741 463.875428572 383.047125 606.924171875 c 1
 368.508543316 614.135356897 351.336124872 621.047488076 333 631 c 1
 343 693 l 1xba
458.909125 589.608171875 m 1
 439.796557823 550.166750623 349.362144391 363.675022016 314.875 295 c 1
 353.411265559 285.670562316 452.435419932 289.756501978 493.770507812 289.991210938 c 1
 494.31399064 403.10282072 484.033414664 553.766097353 481 575 c 0
 479.846807381 583.07234833 463.50867094 584.257595491 458.909125 589.608171875 c 1
EndSplineSet
Validated: 33
Position2: "cpsp-1" dx=0 dy=0 dh=10 dv=20
EndChar

StartChar: uni0337
Encoding: 823 823 322
Width: 0
VWidth: 1159
Flags: W
HStem: 401.747 20G<-97.813 -57.0928>
AnchorPoint: "Middle" -251 206 mark 0
LayerCount: 2
Fore
SplineSet
-78.1973 421.747 m 25
 -36.585 382.312 l 25
 -439.803 -27.7119 l 25
 -479.397 12.6865 l 25
 -78.1973 421.747 l 25
EndSplineSet
Validated: 1
EndChar

StartChar: ae
Encoding: 230 230 323
Width: 578
VWidth: 1159
Flags: W
HStem: -15 43<55.5195 159.444> -14 50<352.222 471.185> 364 52<125.933 201.869 343.725 424.068>
VStem: 20.5195 62<37.6209 130.135> 33.5195 77<303.417 356.65> 232.563 66.1328<95.5239 181.689>
AnchorPoint: "Top" 283.52 465 basechar 0
AnchorPoint: "Bottom" 280.52 -15 basechar 0
LayerCount: 2
Fore
SplineSet
358 323 m 3x24
 345.927 323 345.4 277.5 344 265.5 c 1
 363.466 269.367 381.524 274.643 402 277.5 c 1
 400.167 295.3 377.66 323 358 323 c 3x24
343 204 m 1
 343 115.65 398.296 80 437 80 c 3
 465.448 80 489.053 93.6889 506 108 c 1
 548 54 l 1
 503.053 18.0882 438.842 -20 365 -20 c 3
 303.325 -20 258.748 7.76039 228.071 52.0449 c 1
 181.42 12.7849 142.422 -21 91 -21 c 3
 28.7705 -21 18 17.7119 18 65 c 3
 18 94.9922 20.4365 121.293 25 140 c 0
 26.8623 147.634 33.667 161.534 40.1328 165.5 c 0
 75.5209 187.995 147.438 214 198 225 c 1
 198 258 l 2
 198 299 192.551 312.404 178 321 c 0
 176.727 322.254 175.192 324 172.5 324 c 0
 167.475 324 166.5 321.706 166.5 315 c 0
 166.5 303.489 175 292.277 175 289.5 c 1
 50.1328 240.5 l 1
 42.4795 250.944 31 299.375 31 319 c 3
 31 333.171 39.0205 347.132 62.5 360.5 c 1
 122 402 192.185 422 208 422 c 3
 223.395 422 260.557 400.268 287.196 380.683 c 1
 323.364 406.264 358.835 417 374 417 c 3
 437.842 417 506.299 369.252 527 317 c 0
 529.372 311.012 548 300.5 556 299 c 1
 556 251 l 1
 489.192 240.611 407.45 222.47 343 204 c 1
198 165 m 1
 184.377 161.293 162.087 153.912 155 145 c 0
 147.93 136.111 149 117.937 149 107 c 3
 149 96.7686 163.35 77.5 177.133 77.5 c 3
 190.827 77.5 203.986 87.8457 209 92.5 c 1
 204.225 112.033 199.297 140.677 198 165 c 1
EndSplineSet
Validated: 33
Substitution2: "case-1" AE
EndChar

StartChar: bar
Encoding: 124 124 326
Width: 158
VWidth: 1515
Flags: W
HStem: 684 20G<41 117>
VStem: 41 76<-223 704>
LayerCount: 2
Fore
SplineSet
41 704 m 17
 117 704 l 9
 117 -223 l 1
 41 -223 l 1
 41 704 l 17
EndSplineSet
Validated: 1
Position2: "cpsp-1" dx=0 dy=0 dh=10 dv=20
Position2: "'case' vertical ajustments for all-caps-1" dx=0 dy=90 dh=0 dv=0
EndChar

StartChar: germandbls
Encoding: 223 223 328
Width: 579
VWidth: 1159
Flags: W
HStem: -15 78<17 72.0382 231.258 267.545 360.369 425.67> -5 64<18.3376 51.5924> 660 102<246.253 307.303>
VStem: 87 131<71.8083 316.199 396.781 546.021> 301 44<78.718 107.227> 350.273 116.572<477.402 615.66> 427 124<63.449 158.09>
LayerCount: 2
Fore
SplineSet
312 762 m 0x7c
 420.267572369 762 466.845273438 682.882407165 466.845273438 588.778703125 c 0x7c
 466.845273438 450.70087446 381 391.786906712 381 353 c 0
 381 328.333333333 407.794205008 295.42930758 440 279 c 0
 510 243.290540541 551 188.180641892 551 128 c 0
 551 29.0004737226 463.466534351 -15 408 -15 c 0xba
 369.699560976 -15 332.401317073 -4 300 10 c 1
 304 25.9534883721 306 41.9069767442 306 59 c 0x7a
 306 68.3555 304.571 95.6445 301 105 c 1
 345 119 l 1
 352 70 396.734177215 63 406 63 c 3
 417.054553107 63 427 72.9088973076 427 84 c 3xba
 427 123.199924528 377.105755148 145.550465293 360 156 c 0
 312.36180281 185.101141143 247 209.8125 247 303 c 0
 247 315.348487781 350.273273438 409.202424927 350.273273438 554.626703125 c 0
 350.273273438 615.315341087 297.234938951 659.326291098 244 660 c 0
 175.828842968 660.862732563 236 534 231 454 c 0
 226 374 218 295.312341058 218 249 c 0
 218 191.702728205 207.356994747 133.850127591 231 82 c 0
 232.562360638 78.5736759116 239.898152689 59.8338399854 248 59 c 0
 256.486424538 58.126579428 264.438636364 58.5 273 62 c 1
 267 -12 l 1
 223.25 -7 160.75 -5 117 -5 c 0
 88.6983333333 -5 45.3016666667 -8 17 -12 c 1
 15 60 l 1
 26.3055555556 59.3333333333 43.437529355 58.6578790413 52 61 c 1
 76.1017533019 72.5507340474 82.3247167568 108.55895946 85 142 c 0
 87.4 172 88.6011550356 193.896019947 88 222 c 0
 87.4417664587 248.097401469 87.2154682528 282.456917998 87.123634375 316.19921875 c 1
 28 316 l 1
 28 376 l 1
 47.9401778244 383.919612416 67.0950565221 399.628017728 87.009634375 407.80121875 c 1
 87 422.262995647 87 436.16700604 87 449 c 0
 87 579.533 139.345016486 640.034904065 205 704 c 0
 235.911 734.115384615 265.237 762 312 762 c 0x7c
EndSplineSet
Validated: 33
MultipleSubs2: "case-2" S S
Substitution2: "case-1" uni1E9E
EndChar

StartChar: minus
Encoding: 8722 8722 331
Width: 463
VWidth: 0
Flags: W
HStem: 162 108<21.2002 439.8>
LayerCount: 2
Fore
SplineSet
21.2002 270 m 25
 439.8 270 l 9
 439.8 162 l 9
 21.2002 162 l 9
 21.2002 270 l 25
EndSplineSet
Validated: 1
EndChar

StartChar: greater
Encoding: 62 62 334
Width: 463
VWidth: 0
Flags: W
HStem: -13 21G<58.4615 102.778> 398 20G<102.56 145.558>
LayerCount: 2
Fore
SplineSet
50 325.2 m 25
 117 418 l 25
 424 203 l 25
 70 -13 l 25
 40 39 l 25
 265 172.2 l 25
 50 325.2 l 25
EndSplineSet
Validated: 1
EndChar

StartChar: braceleft
Encoding: 123 123 337
Width: 266
VWidth: 1515
Flags: W
HStem: -235.7 62<205.169 257.5> 660.3 62<205.169 257.5>
VStem: 71.5 119<-150.21 7.33796 480.639 636.691> 94 132<-14.2935 156.686 329.864 501.085>
LayerCount: 2
Fore
SplineSet
257.5 722.3 m 5xe0
 257.5 722.3 257.5 684.48 257.5 660.3 c 5
 215.738 659.657 190.5 649.196 190.5 575.7 c 7xe0
 190.5 496.003 226 490.935 226 393 c 7
 226 336.699 156.705 266.522 141.5 243.3 c 5
 156.705 219.679 226 149.901 226 93.5996 c 7xd0
 226 -3.08966 190.5 -9.40374 190.5 -89.1006 c 7
 190.5 -164.036 215.754 -171.66 257.5 -173.7 c 5
 257.5 -235.7 l 5
 162.798 -239.203 71.5 -195.77 71.5 -39.7002 c 7xe0
 71.5 20.2272 94 52.5951 94 99.5996 c 7
 94 141.866 65.9751 197.769 5.5 217.3 c 5
 5.5 269.3 l 5
 65.9751 288.83 94 344.733 94 387 c 7xd0
 94 434.004 71.5 466.372 71.5 526.3 c 7
 71.5 682.369 162.798 725.803 257.5 722.3 c 5xe0
EndSplineSet
Validated: 33
Position2: "cpsp-1" dx=0 dy=0 dh=10 dv=20
Position2: "'case' vertical ajustments for all-caps-1" dx=0 dy=90 dh=0 dv=0
EndChar

StartChar: underscore
Encoding: 95 95 339
Width: 463
VWidth: 0
Flags: W
HStem: -260 88<0 463>
LayerCount: 2
Fore
SplineSet
0 -260 m 25
 0 -172 l 25
 463 -172 l 25
 463 -260 l 25
 0 -260 l 25
EndSplineSet
Validated: 1
EndChar

StartChar: asciitilde
Encoding: 126 126 340
Width: 394
VWidth: 0
Flags: W
HStem: 158.054 128<196.108 308.123> 199.393 126.891<90.2849 202.752>
LayerCount: 2
Fore
SplineSet
6.13381 175.354 m 5x40
 41.0603 253.445 105.41 326.284 114.235 326.284 c 7x40
 157.057 326.284 247.773 286.054 289.451 286.054 c 7
 295.305 286.054 314.543 309.2 320.216 343.109 c 5
 388 316.539 l 5
 360.745 244.783 310.373 158.054 296.675 158.054 c 7x80
 253.878 158.054 144.949 199.393 104.465 199.393 c 7
 96.6675 199.393 78.4511 167.719 70.2022 147.936 c 5
 6.13381 175.354 l 5x40
EndSplineSet
Validated: 1
Position2: "cpsp-1" dx=0 dy=0 dh=10 dv=20
Position2: "'case' vertical ajustments for all-caps-1" dx=0 dy=90 dh=0 dv=0
EndChar

StartChar: kgreenlandic
Encoding: 312 312 346
Width: 525
VWidth: 1159
Flags: W
HStem: -18 25.8994<461.79 501> -7 21G<208 227.941> -5 33<33.5758 85.0934> 374 27<269 299.949> 395 20G<145.5 187>
VStem: 105 64<41.8162 177 211 337.203>
LayerCount: 2
Fore
SplineSet
179 185 m 1x94
 169 177 l 1
 169 124.725 171 73.9876 175 54 c 0
 177 39 186 38 196 33 c 0
 206 29 216 28 230 27 c 1
 225 -7 l 1x44
 191 -1 172 4 130 4 c 3
 100 4 64 -3 34 -5 c 1
 32 28 l 1
 43 29 54 31 64 33 c 0
 87 40 94 48 96 76 c 0
 101 128 105 170 105 235 c 3
 105 251.155 103 276 101 308 c 0
 100 324 94 338 77 338 c 3
 71 338 51 335 41 334 c 1
 36 363 l 1
 88 374 124 381 167 415 c 1x2c
 187 399 l 1
 181 385 174.291 357.97 173 347 c 0
 171 325.982 168 264.163 167 211 c 1
 202.172 243.143 253.931 289.428 287 328 c 0
 292.772 334.732 301 348 301 355 c 3
 301 373 277 372 267 374 c 1
 269 401 l 1
 295 399 330 399 357 399 c 3
 390 399 433 399 465 403 c 1
 467 373 l 1
 404 365.731 362.85 347.417 333 319 c 2
 243.5 236.952 l 17
 355.5 173.635 404.57 9.25076 505.9 7.89941 c 1
 501 -18 l 5
 315.95 -45.3387 265.5 174.952 179 185 c 1x94
EndSplineSet
Validated: 33
MultipleSubs2: "case-2" K quoteleft
EndChar

StartChar: OE
Encoding: 338 338 347
Width: 1081
VWidth: 1159
Flags: HW
LayerCount: 2
Fore
SplineSet
348 619 m 3
 272.247058824 619 211 556.031866666 211 420 c 3
 211 244.682075076 341.002283093 83 462 83 c 3
 496.547777778 83 521 118.063010075 521 157 c 1
 529 155.2403125 521.774846111 440.85023658 519 494 c 0
 513.256348985 604.014638803 422.53960274 619 348 619 c 3
424 -15 m 3
 203.364341085 -15 25 142.109844574 25 338 c 3
 25 535.000264789 205.454545455 707 422 707 c 3
 507.490017004 707 461.789007914 697.96875 696.956054688 697.96875 c 3
 844.816251537 697.96875 977.781753169 702.186881304 995 706 c 1
 1023 662.762430939 998.333333333 681.181818182 991 524 c 1
 931 518 l 1
 910.571428571 550.553191489 929.640791658 590.881407666 879 603 c 0
 837.563303092 612.91600686 752.001334644 618.017235813 732 615 c 0
 710.75845788 610.994595938 696.067893159 585.380815515 694 552 c 0
 690.555555556 496.398305085 685 441.483050848 684 390 c 1
 720.302521008 394 810.732851802 392.956697286 819 396 c 0
 851.50899882 407.967213115 872.586206897 426.173333333 893 469 c 1
 961 455 l 1
 944 379.272251309 948 304.727748691 959 229 c 1
 887 211 l 1
 861.814814815 289.261363636 857.44600001 292.708977269 819 308 c 0
 793.857142857 318 736.142857143 316 683 318 c 1
 682.066666667 251.529880477 685.705238922 197.521204094 697 146 c 0
 703.498768667 116.355779591 716.373951805 94.4440959906 735 92 c 0
 780.725 86 808.106192173 92.0668276636 853 104 c 0
 932.907448806 125.240108685 945 147.050420168 997 201 c 1
 1053 187 l 1
 1034.53846154 111.294117647 1021.84615385 63.1176470588 1008 -8 c 1
 894.288591562 -8.54548813808 775.296862295 -4.9305525 667.928265625 -4.9305525 c 3
 487.932069619 -4.9305525 491.022072984 -15 424 -15 c 3
EndSplineSet
Position2: "cpsp-1" dx=0 dy=0 dh=10 dv=20
EndChar

StartChar: uni2605
Encoding: 9733 9733 348
Width: 821
VWidth: 0
Flags: W
LayerCount: 2
Fore
SplineSet
827.419921875 447.927539063 m 5
 569.83984375 260.332226562 l 5
 668.011914062 -41.9599609375 l 5
 410.431835937 145.636328125 l 5
 152.851757813 -41.9599609375 l 5
 251.023828125 261.304101563 l 5
 -6.55665 447.927539063 l 5
 311.287890625 446.955664062 l 5
 410.431835937 750.219726562 l 5
 508.60390625 447.927539063 l 5
 827.419921875 447.927539063 l 5
EndSplineSet
Validated: 1
EndChar

StartChar: uni2606
Encoding: 9734 9734 349
Width: 821
VWidth: 30
Flags: W
LayerCount: 2
Fore
SplineSet
648.805539062 392.644335938 m 1
 452.41353125 371.821335938 l 1
 410.510996094 565.763441406 l 1
 368.992523438 371.069410156 l 1
 172.439953125 392.551335937 l 1
 343.595992187 291.418128906 l 1
 263.198957031 111.531047656 l 1
 410.495996094 244.038753906 l 1
 557.752535156 111.560597656 l 1
 477.396 290.666203125 l 1
 648.805539062 392.644335938 l 1
812.040039062 443.343847656 m 1
 564 262.696191406 l 1
 658.536035156 -28.3999023438 l 1
 410.495996094 152.248242187 l 1
 162.455957031 -28.3999023438 l 1
 256.991992188 263.632128906 l 1
 8.951653125 443.343847656 l 1
 315.024023438 442.407910156 l 1
 410.495996094 734.439941406 l 1
 505.03203125 443.343847656 l 1
 812.040039062 443.343847656 l 1
EndSplineSet
Validated: 1
EndChar

StartChar: uni261C
Encoding: 9756 9756 350
Width: 2241
Flags: W
HStem: -39.8809 34.5928<702.366 803.644>
VStem: 65.4062 47.9922<389.495 407.811>
LayerCount: 2
Fore
SplineSet
65.4062 488.98 m 1
 133.471 493.169 171.866 495.579 238.634 514.306 c 1
 246.596 504.546 534.656 534.515 542.911 561.332 c 1
 564.898 551.482 577.512 547.037 605.929 570.229 c 1
 773.769 556.794 986.458 616.839 1106 648 c 1
 1329.25 569.701 1572.25 468.729 1696.18 430.638 c 1
 1739.57 483.052 1793.53 507.924 1848.05 516.793 c 1
 2110.43 547.303 l 1
 2163.02 255.056 2175.68 -29.6611 2148.35 -306.85 c 1
 1892.24 -297.519 l 1
 1875.45 -261.822 1858.65 -226.126 1841.85 -190.43 c 1
 1814.48 -179.761 1789.09 -165.358 1754.94 -149.172 c 1
 1614.8 -241.059 1469.34 -206.779 1327.96 -171.926 c 1
 1302.89 -235.181 1261.64 -288.312 1185.82 -267.69 c 1
 1164.81 -330.418 1107.45 -355.95 1072.25 -326.185 c 0
 999.4 -264.557 891.756 -230.288 835.198 -172.483 c 1
 682.232 -206.512 560.41 -112.538 687.913 48.1104 c 1
 660.334 112.992 745.543 185.467 777.889 271.683 c 1
 695.375 282.243 590.004 307.018 566.297 298.763 c 0
 515.511 281.073 363.284 309.172 334.218 317.119 c 1
 176.398 304.119 59.9014 331.849 65.4062 488.98 c 1
227.493 480.275 m 1
 178.401 472.663 150.689 468.371 101.594 460.757 c 1
 93.8691 413.082 244.447 408.912 227.493 480.275 c 1
1084.38 592.183 m 0
 825.397 554.269 996.286 546.32 636.788 522.399 c 0
 585.692 519 590.137 488.802 569.033 486.987 c 0
 550.55 485.4 544.591 511.314 526.415 507.695 c 0
 434.1 489.321 365.902 488.599 263.3 476.39 c 1
 250.997 394.928 192.292 410.334 113.398 407.811 c 1
 114.412 376.567 264.124 347.652 350.099 377.665 c 1
 407.623 368.682 461.089 357.379 523.575 380.384 c 1
 604.456 372.626 651.254 355.211 727.339 401.371 c 1
 807.605 356.047 974.055 358.16 1064.13 421.6 c 1
 1070.94 421.779 1071.33 413.38 1077.52 410.565 c 1
 1051.33 362.256 1084.46 312.087 1114.36 315.387 c 0
 1130.39 317.154 1149.22 354.088 1163.9 376.21 c 0
 1172.19 388.706 1208.8 379.251 1202.08 365.563 c 0
 1164.56 289.234 1183.03 221.194 1302.92 308.083 c 0
 1330.21 327.857 1391.28 329.565 1389.06 296.334 c 0
 1387.54 273.576 1345.13 302.372 1303.25 264.596 c 0
 1210.07 180.539 1123.04 118.563 1008.84 107.013 c 1
 996.464 98.4824 989.483 93.6709 977.105 85.1396 c 1
 876.257 142.62 705.042 54.8047 694.435 -5.28809 c 1
 757.921 -1.57617 796.29 11.3975 834.737 -28.0469 c 1
 861.688 11.0107 922.306 3.84277 985.483 11.0127 c 1
 998.435 5.33398 1005.74 2.13281 1018.69 -3.54395 c 1
 1031.07 4.98828 1038.05 9.79883 1050.42 18.3291 c 1
 1063.43 11.9795 1070.77 8.39844 1083.78 2.04883 c 1
 1093.29 11.6924 1098.66 17.1289 1108.17 26.7725 c 1
 1169 0.666992 1265.6 3.79102 1298.85 55.3369 c 0
 1307.77 69.1582 1331.21 74.7871 1353.92 73.9941 c 0
 1497.96 68.9609 1697.02 60.1641 1760.13 150.666 c 0
 1796.28 202.51 1766.13 361.801 1721.3 387.54 c 1
 1551.99 437.4 1391.01 515.096 1175.49 584.343 c 0
 1141.59 595.234 1119.66 597.348 1084.38 592.183 c 0
823.456 -100.385 m 1
 821.674 -60.501 792.91 -39.6387 757.787 -39.8809 c 0
 715.507 -40.1699 663.499 -75.8311 669.326 -101.442 c 0
 672.815 -116.764 791.04 -134.5 823.456 -100.385 c 1
1825.2 474.796 m 1
 1793.57 452.477 1775.72 439.887 1744.09 417.571 c 1
 1790.28 409.132 l 1
 1834.35 392.028 1910.85 90.5078 1840.19 -91.3711 c 1
 1844.61 -94.3838 1847.1 -96.085 1851.52 -99.1006 c 1
 1989.62 -17.6104 1923.24 389.222 1825.2 474.796 c 1
EndSplineSet
Validated: 33
EndChar

StartChar: uni261E
Encoding: 9758 9758 351
Width: 2241
Flags: HMW
LayerCount: 2
Fore
SplineSet
2162.17 488.98 m 1
 2167.68 331.849 2051.18 304.119 1893.36 317.119 c 1
 1864.29 309.172 1712.07 281.073 1661.28 298.763 c 0
 1637.57 307.018 1532.2 282.243 1449.69 271.683 c 1
 1482.03 185.467 1567.24 112.992 1539.66 48.1104 c 1
 1667.17 -112.538 1545.34 -206.512 1392.38 -172.483 c 1
 1335.82 -230.288 1228.18 -264.557 1155.32 -326.185 c 0
 1120.13 -355.95 1062.77 -330.418 1041.76 -267.69 c 1
 965.937 -288.312 924.688 -235.181 899.613 -171.926 c 1
 758.235 -206.779 612.779 -241.059 472.641 -149.172 c 1
 438.485 -165.358 413.094 -179.761 385.725 -190.43 c 1
 368.927 -226.126 352.131 -261.822 335.333 -297.519 c 1
 79.2285 -306.85 l 1
 51.9014 -29.6611 64.5586 255.056 117.149 547.303 c 1
 379.524 516.793 l 1
 434.047 507.924 488.01 483.052 531.394 430.638 c 1
 655.332 468.729 898.328 569.701 1121.58 648 c 1
 1241.12 616.839 1453.81 556.794 1621.65 570.229 c 1
 1650.07 547.037 1662.68 551.482 1684.67 561.332 c 1
 1692.92 534.515 1980.98 504.546 1988.94 514.306 c 1
 2055.71 495.579 2094.11 493.169 2162.17 488.98 c 1
2000.08 480.275 m 1
 1983.13 408.912 2133.71 413.082 2125.98 460.757 c 1
 2076.89 468.371 2049.18 472.663 2000.08 480.275 c 1
1143.19 592.183 m 0
 1107.92 597.348 1085.99 595.234 1052.09 584.343 c 0
 836.569 515.096 675.586 437.4 506.281 387.54 c 1
 461.443 361.801 431.295 202.51 467.448 150.666 c 0
 530.558 60.1641 729.622 68.9609 873.661 73.9941 c 0
 896.366 74.7871 919.808 69.1582 928.726 55.3369 c 0
 961.981 3.79102 1058.58 0.666992 1119.41 26.7725 c 1
 1128.92 17.1289 1134.29 11.6924 1143.8 2.04883 c 1
 1156.8 8.39844 1164.14 11.9795 1177.15 18.3291 c 1
 1189.53 9.79883 1196.51 4.98828 1208.89 -3.54395 c 1
 1221.83 2.13281 1229.14 5.33398 1242.09 11.0127 c 1
 1305.27 3.84277 1365.89 11.0107 1392.84 -28.0469 c 1
 1431.29 11.3975 1469.66 -1.57617 1533.14 -5.28809 c 1
 1522.54 54.8047 1351.32 142.62 1250.47 85.1396 c 1
 1238.09 93.6709 1231.11 98.4824 1218.74 107.013 c 1
 1104.54 118.563 1017.5 180.539 924.325 264.596 c 0
 882.445 302.372 840.035 273.576 838.518 296.334 c 0
 836.301 329.565 897.366 327.857 924.653 308.083 c 0
 1044.55 221.194 1063.02 289.234 1025.5 365.563 c 0
 1018.77 379.251 1055.38 388.706 1063.68 376.21 c 0
 1078.36 354.088 1097.19 317.154 1113.21 315.387 c 0
 1143.12 312.087 1176.25 362.256 1150.06 410.565 c 1
 1156.25 413.38 1156.63 421.779 1163.45 421.6 c 1
 1253.52 358.16 1419.97 356.047 1500.24 401.371 c 1
 1576.32 355.211 1623.12 372.626 1704 380.384 c 1
 1766.49 357.379 1819.95 368.682 1877.48 377.665 c 1
 1963.45 347.652 2113.17 376.567 2114.18 407.811 c 1
 2035.29 410.334 1976.58 394.928 1964.28 476.39 c 1
 1861.67 488.599 1793.48 489.321 1701.16 507.695 c 0
 1682.99 511.314 1677.03 485.4 1658.54 486.987 c 0
 1637.44 488.802 1641.88 519 1590.79 522.399 c 0
 1231.29 546.32 1402.18 554.269 1143.19 592.183 c 0
1404.12 -100.385 m 1
 1436.54 -134.5 1554.76 -116.764 1558.25 -101.442 c 0
 1564.08 -75.8311 1512.07 -40.1699 1469.79 -39.8809 c 0
 1434.67 -39.6387 1405.9 -60.501 1404.12 -100.385 c 1
402.373 474.796 m 1
 304.342 389.222 237.955 -17.6104 376.058 -99.1006 c 1
 380.473 -96.085 382.967 -94.3838 387.383 -91.3711 c 1
 316.725 90.5078 393.227 392.028 437.294 409.132 c 1
 483.483 417.571 l 1
 451.853 439.887 434.009 452.477 402.373 474.796 c 1
EndSplineSet
Validated: 33
EndChar

StartChar: uni268A
Encoding: 9866 9866 352
Width: 746
VWidth: 0
Flags: W
HStem: -9 132<30 716>
LayerCount: 2
Fore
SplineSet
30 -9 m 25
 30 123 l 25
 716 123 l 25
 716 -9 l 25
 30 -9 l 25
EndSplineSet
Validated: 1
EndChar

StartChar: uni211F
Encoding: 8479 8479 430
Width: 714
UnlinkRmOvrlpSave: 1
Flags: W
HStem: -39 74<738.442 804> -16 88<52 112.188 345.845 401.273> 287.034 85.9659<302.593 334.432> 618 74<41 110.093> 630 84<309.06 368.192>
VStem: 434 174<425.159 556.625>
LayerCount: 2
Fore
SplineSet
454.381 -78 m 1x2c
 530.503 198.297 611.918 497.405 660 714 c 1
 598.034 687.286 500.371 809.122 472 765 c 0
 425.548 682.696 359.742 776.223 432 825.578 c 0
 517.865 876.988 640 639 673 795.578 c 9
 694.84 788.558 707.16 784.598 729 777.578 c 1
 684.75 645.232 584.381 263.927 491.454 -90 c 1
 454.381 -78 l 1x2c
EndSplineSet
Refer: 43 82 N 1 0 0 1 0 0 2
EndChar

StartChar: uni2123
Encoding: 8483 8483 431
Width: 714
UnlinkRmOvrlpSave: 1
Flags: W
HStem: 621 72<301.734 378 559 632.885> 679 20<559 860.381>
VStem: 390 92<-33 61.1414>
LayerCount: 2
Fore
SplineSet
285.381 -78 m 1x20
 361.504 198.297 442.919 497.405 491 714 c 1
 429.034 687.286 331.371 809.122 303 765 c 0
 256.548 682.696 190.742 776.223 263 825.578 c 0
 348.865 876.988 471 639 504 795.578 c 9
 525.84 788.558 538.16 784.598 560 777.578 c 1
 515.75 645.232 415.382 263.927 322.454 -90 c 1
 285.381 -78 l 1x20
EndSplineSet
Refer: 55 86 N 1 0 0 1 0 0 2
EndChar

StartChar: estimated
Encoding: 8494 8494 432
Width: 752
VWidth: 0
Flags: W
HStem: -9 50.917<266.135 484.333> 310.923 51.15<191.384 562.454> 632.006 50.917<264.706 485.147>
VStem: 30.1973 161.187<217.349 310.923 362.073 455.702> 562.454 159.576<362.073 456.3>
LayerCount: 2
Fore
SplineSet
632.777 191.846 m 1
 676.861 166.441 l 1
 673.98 161.581 l 2
 613.377 59.3301 501.767 -9 376 -9 c 0
 189.553 -9 30.1973 142.604 30.1973 338.341 c 0
 30.1973 525.945 184.438 682.615 375.52 682.923 c 2
 376.044 682.923 l 2
 564.48 682.923 722.035 529.016 722.03 336.942 c 0
 722.03 329.967 721.813 323.039 721.4 316.168 c 2
 721.084 310.923 l 1
 191.384 310.923 l 1
 191.384 107.399 l 1
 242.467 66.2236 307.069 41.917 376 41.917 c 0
 483.087 41.917 578.216 100.053 629.964 187.113 c 2
 632.777 191.846 l 1
191.384 566.668 m 1
 191.384 362.073 l 1
 562.454 362.073 l 1
 562.454 565.158 l 1
 511.302 606.997 446.18 632.006 376.044 632.006 c 2
 375.598 632.006 l 2
 305.803 631.894 241.805 607.323 191.384 566.668 c 1
EndSplineSet
Validated: 33
EndChar

StartChar: bullet
Encoding: 8226 8226 436
Width: 446
Flags: W
HStem: 42.0508 447.898<131.012 316.057>
VStem: -0.949219 447.898<169.846 358.073>
LayerCount: 2
Fore
SplineSet
-0.949219 266 m 0
 -0.949219 401.303 111.025 489.949 223 489.949 c 0
 360.635 489.949 446.949 375.642 446.949 263.667 c 0
 446.949 144.694 353.637 42.0508 223 42.0508 c 0
 108.693 42.0508 -0.949219 133.03 -0.949219 266 c 0
EndSplineSet
Validated: 1
Position2: "cpsp-1" dx=0 dy=0 dh=10 dv=20
EndChar

StartChar: uni2023
Encoding: 8227 8227 437
Width: 614
Flags: W
HStem: -12.2598 21G<54.5965 109.1>
LayerCount: 2
Fore
SplineSet
567 321.641 m 9
 567 261 l 17
 523.04 236 421.969 191.97 345.04 146 c 0
 181.04 48 134.881 17.7136 83.3193 -12.2598 c 1
 40.1201 17.8203 l 17
 51.04 96 53 515 33.080078125 567.5 c 1
 90.8399 582.542 l 17
 118.089 559.458 263.04 474 335.04 434 c 0
 415.581 389.255 505.04 348 567 321.641 c 9
EndSplineSet
Validated: 33
EndChar

StartChar: dagger
Encoding: 8224 8224 438
Width: 442
Flags: W
HStem: 446 178<26.8849 82.4132 359.248 415.462>
VStem: 132 180<665.954 728.166> 196 50<-18 187.206>
LayerCount: 2
Fore
SplineSet
328 370 m 1xa0
 272 262 270 250 246 -18 c 1
 196 -18 l 1
 168 266 166.880859375 282.899414062 114 370 c 1
 170 434.967320261 180 452.352941176 196 510 c 1
 128 490 l 2
 67.7265602904 470 72.3636363636 446 44 446 c 3
 31.2875553099 446 5 500 5 534 c 3
 5 568 33.9580078125 624 46 624 c 3
 72.9736842105 624 74.4610090648 602 128 584 c 2
 196 564 l 1xa0
 174 623 l 2
 160 666.445566132 132 686.231707317 132 708 c 3
 132 724 188 747 222 747 c 3
 256 747 312 724 312 710 c 3xc0
 312 686.178571429 284 667.461904918 270 623 c 2
 248 564 l 1
 316 584 l 2
 374.879016486 604 369.947368421 626 398 626 c 3
 410.165039062 626 439 572 439 538 c 3
 439 504 409.348516555 448 396 448 c 3
 369.333333333 448 369.105763239 472 316 490 c 2
 246 510 l 1
 262 453.267973856 272 435.882352941 328 370 c 1xa0
EndSplineSet
Validated: 1
EndChar

StartChar: daggerdbl
Encoding: 8225 8225 439
Width: 442
Flags: W
HStem: -12 21G<203 237> 111 178<26.9813 82.474 360.512 415.554> 446 178<26.8791 82.4427 360.636 416.019>
VStem: 130 180<6.83379 70.996 664.498 726.328>
LayerCount: 2
Fore
SplineSet
130 369 m 1
 175.073170732 434.006493506 183.12195122 452.318181818 196 510 c 1
 128 490 l 2
 67.2763036309 470 73.025974026 446 45 446 c 3
 31.9619140625 446 5 500 5 534 c 3
 5 568 33.9580078125 624 46 624 c 3
 72.9736842105 624 64.6510109447 602 128 584 c 2
 196 564 l 1
 174 623 l 2
 160 660.19949423 132 684.743902439 132 706 c 3
 132 722.820512821 188 747 222 747 c 3
 256 747 312 724 312 710 c 3
 312 686.178571429 284 662.780317158 270 623 c 2
 248 564 l 1
 316 584 l 2
 374.847492516 604 370.605263158 626 399 626 c 3
 410.868330793 626 439 572 439 538 c 3
 439 504 410.038085938 448 397 448 c 3
 370 448 371.458721405 472 316 490 c 2
 246 510 l 1
 258.87804878 453.233766234 266.926829268 434.922077922 312 369 c 1
 266.926829268 303.878980892 258.87804878 282.78343949 246 225 c 1
 315 245 l 2
 375.621061695 265 369.974025974 289 398 289 c 3
 411.038085938 289 438 235 438 201 c 3
 438 167 408.335699314 111 396 111 c 3
 369.355263158 111 367.29088484 133 315 151 c 2
 246 171 l 1
 268 112 l 2
 282 71.5980479992 310 48.7682926829 310 27 c 3
 310 11 254 -12 220 -12 c 3
 186 -12 130 9.75675675676 130 23 c 3
 130 47.369047619 158 74.6752031071 172 112 c 2
 194 171 l 1
 127 151 l 2
 65.7065793014 131 72.3947368421 109 44 109 c 3
 32.1316692073 109 4 163 4 197 c 3
 4 231 32.9619140625 287 46 287 c 3
 73 287 71.8708762523 263 127 245 c 2
 196 225 l 1
 183.12195122 281.866242038 175.073170732 302.961783439 130 369 c 1
EndSplineSet
Validated: 1
EndChar

StartChar: uni0335
Encoding: 821 821 442
Width: 0
VWidth: 1159
Flags: W
HStem: 489.5 76<-337.5 -15.5>
VStem: -337.5 322<489.5 565.5>
LayerCount: 2
Fore
SplineSet
-337.5 565.5 m 25
 -15.5 565.5 l 25
 -15.5 489.5 l 25
 -337.5 489.5 l 25
 -337.5 565.5 l 25
EndSplineSet
Validated: 1
EndChar

StartChar: longs
Encoding: 383 383 446
Width: 357
VWidth: 1159
Flags: W
HStem: -6 36<34 97.3708 215.17 284.568> 1 32<191.619 282.018> 356 25<46 67.3182> 701 55<273.459 377.117>
VStem: 113 72<42.1466 356 403 602.768>
AnchorPoint: "Top" 262 748 basechar 0
AnchorPoint: "Bottom" 156 -15 basechar 0
LayerCount: 2
Fore
SplineSet
359 756 m 3x78
 391 756 441 745 466 723 c 1
 465 696 466 696 417 659 c 1
 378 677 347 701 309 701 c 3
 206 701 201 609 191 498 c 0
 187.339 461.394 185 339.326 185 293 c 3
 185 211 186 134 191 54 c 0
 192 39 198 34 214 33 c 0x78
 239 32 262 32 287 31 c 1
 284 -6 l 1xb8
 242 -1 182 1 140 1 c 3x78
 110 1 64 -2 34 -6 c 1
 33 30 l 1xb8
 44 31 58 31 69 33 c 0
 100 40 104 53 106 81 c 0
 111 133 114 201 114 266 c 3
 114 285.149 113 320.574 113 356 c 1
 46 356 l 1
 46 381 l 1
 113 403 l 1
 113 439.562 113 481.75 113 493 c 3
 113 601 156 657 224 704 c 0
 263 731 300 756 359 756 c 3x78
EndSplineSet
Validated: 1
Substitution2: "case-1" S
EndChar

StartChar: yen
Encoding: 165 165 452
Width: 463
VWidth: 1159
UnlinkRmOvrlpSave: 1
Flags: W
HStem: -4.67871 54.0273<130.569 149.11 335.844 355.58> 151.576 78.2003<68.3145 408.685> 280.226 78.2003<68.3145 408.685> 561.542 51.3799<13.0312 48.5638 215.516 226.54 270.486 295.418 416.454 449>
VStem: 68.3145 340.37<280.226 358.427> 68.3145 340.37<151.576 229.777> 167.261 135.403<88.951 379.015>
LayerCount: 2
Fore
SplineSet
232.944335938 560.241210938 m 1xf2
 239.377562067 560.318694323 216.114485669 560.301930661 215.469726562 558.01171875 c 0
 214.249731799 553.678245192 214.719358797 548.494438812 216.337890625 544.190429688 c 0
 225.607356659 519.541012423 245.48319263 482.338355923 260 461 c 1
 262.895334468 466.069938557 272.344972934 480.989583576 274.894 486.096 c 0
 279.434383303 495.191661704 303 534 293.466796875 548.5625 c 0
 286.4874114 559.223900963 276.736781833 560.486422107 268.19140625 561.541992188 c 1
 270.818359375 612.921875 l 1
 295.599043784 609.146526104 407.85501598 602.814972212 449 612.588109375 c 1
 449 556.440109375 l 1
 424 554 403.921154307 531.976679112 366.791992188 494.862304688 c 0
 354.925231572 483.00027033 316.656895493 426.086943035 302.663835938 389.667023438 c 1
 301.521842639 338.8163498 298.007882472 278.786188909 318.935257813 111.222703125 c 0
 324.750308316 64.6621518602 355.254209145 57.4462671066 361.986328125 54.521484375 c 1
 355.580078125 -1.142578125 l 1
 286.787818973 7.16309848101 202.339994352 10.7812113587 132.485351562 -4.6787109375 c 1
 117.694335938 49.3486328125 l 1
 129.051934412 54.9999271042 163.704696627 61.1910367102 167.261257812 133.779303125 c 0
 167.745620798 143.66499539 166 318 163.117835937 337.751023437 c 1
 150.231486592 365.409160325 137.899717041 417.989829626 53.396484375 534.030273438 c 0
 36.7380149627 556.905802844 13.7448483078 558.319983954 8.099609375 562.014648438 c 1
 13.03125 613.416992188 l 1
 55.3549403531 609.880155066 184.70640696 605.604142992 226.540039062 612.426757812 c 1
 232.944335938 560.241210938 l 1xf2
EndSplineSet
Refer: 453 -1 N 0.9 0 0 0.85 443.25 -108.95 2
Refer: 453 -1 N 0.9 0 0 0.85 443.25 19.7003 2
EndChar

StartChar: eth
Encoding: 240 240 454
Width: 471
VWidth: 1159
UnlinkRmOvrlpSave: 1
Flags: W
HStem: -5 49<172.89 302.553> 359 46<174.141 312.123> 700 27.453<74.4455 86.7927>
VStem: 28 64<133.432 266.724> 366 69<130.061 315.66>
LayerCount: 2
Fore
SplineSet
348.139 315.39 m 1
 309.311 349.295 235.815 359 222 359 c 0
 198 359 92 331.005 92 226 c 0
 92 129.917 150.98 44 252 44 c 0
 332.374 44 366 128.15 366 202 c 0
 366 235.619 359.775 274.394 348.139 315.39 c 1
319.727 395.21 m 1
 297.195 448.096 267.132 501.537 231.091 549.926 c 1
 113 477 l 1
 97 506 l 1
 210.377 576.358 l 1
 168.161 627.531 119.003 671.266 65 700 c 1
 69.0967 706.582 77.2373 727.453 77.2373 727.453 c 1
 145.386 707.325 209.364 664.636 263.844 609.538 c 1
 379 681 l 1
 398 653 l 1
 287.162 584.553 l 1
 376.496 483.21 435 349.111 435 235 c 0
 435 113.963 360.284 -5 193 -5 c 0
 102.911 -5 28 65.9238 28 171 c 0
 28 326.39 176 405 264 405 c 0
 275.736 405 298.098 401.774 319.727 395.21 c 1
EndSplineSet
Substitution2: "case-1" Eth
EndChar

StartChar: Uni0336
Encoding: 65556 -1 456
Width: 0
VWidth: 1159
Flags: W
HStem: 509.5 36<-818.5 -32.5>
LayerCount: 2
Fore
SplineSet
-818.5 563.5 m 25
 -32.5 563.5 l 25
 -32.5 491.5 l 25
 -818.5 491.5 l 25
 -818.5 563.5 l 25
EndSplineSet
Validated: 1
EndChar

StartChar: quotereversed
Encoding: 8219 8219 463
Width: 201
VWidth: 1159
Flags: W
VStem: -14.2998 225.6<601.953 655.972>
LayerCount: 2
Fore
SplineSet
177.5 401.91015625 m 1
 19 454 -14.2998046875 621.97265625 -14.2998046875 630.900390625 c 3
 -14.2998046875 640.5 -9.5 648.5 -1.5 651.700195312 c 0
 32.099609375 669.299804688 60.900390625 694.900390625 78.5 728.5 c 0
 81.7001953125 736.5 91.2998046875 742.900390625 100.900390625 742.900390625 c 3
 110.5 742.900390625 120.099609375 736.5 123.299804688 728.5 c 0
 140.899414062 694.900390625 166.5 669.299804688 200.099609375 651.700195312 c 0
 208.099609375 648.5 211.299804688 640.5 211.299804688 630.900390625 c 3
 211.299804688 621.30078125 208.099609375 610.100585938 200.099609375 606.900390625 c 0
 175.295898438 595.235351562 149.311523438 579.329101562 137.5 556 c 0
 121.5 521.672851562 170.642578125 475.1640625 209.5 451.91015625 c 1
 177.5 401.91015625 l 1
EndSplineSet
Validated: 33
Position2: "cpsp-1" dx=0 dy=0 dh=10 dv=20
EndChar

StartChar: uni20B9
Encoding: 8377 8377 467
Width: 539
VWidth: 1159
UnlinkRmOvrlpSave: 1
Flags: W
HStem: -33 37<438.45 490> 322 45<41 147.579> 492.095 42.999<42.25 496.25> 685.094 20G<41.5 496.25>
VStem: 297 87<441.267 575.707>
LayerCount: 2
Fore
SplineSet
42.25 705.094 m 25
 496.25 705.094 l 25
 496.25 662.095 l 25
 42.25 662.095 l 25
 42.25 705.094 l 25
42.25 535.094 m 25
 496.25 535.094 l 25
 496.25 492.095 l 25
 42.25 492.095 l 25
 42.25 535.094 l 25
41.5 705 m 1
 80.2881 705 96.5903 705 141 705 c 0
 274 705 384 622 384 519 c 0
 384 432 314 373 234 343 c 1
 324.192 140 395.438 6 497 4 c 1
 490 -33 l 1
 347.099 -38 207.409 153 148 323 c 1
 139 322 131 322 124 322 c 0
 91.5904 322 73.4096 324.4 41 325 c 1
 41 369 l 9
 73.2426 368.5 89.7574 367 122 367 c 3
 268 367 297 455 297 508 c 3
 297 568 236 663 120 663 c 3
 95.4844 663 45.6632 663 42.5 663 c 1
 41.5 705 l 1
EndSplineSet
EndChar

StartChar: eng
Encoding: 331 331 468
Width: 499
VWidth: 1159
Flags: W
HStem: -7 21G<208.5 230.353> -5 33<20.3636 70.2898> 335 29<32 79.6511> 338 61<245.574 353.747> 396 20G<129 175>
VStem: 95 75<72.7464 318.176 330 331.265> 379 69<-91.4785 313.154>
LayerCount: 2
Fore
SplineSet
379 143 m 3x16
 379 187 376 253 374 271 c 0
 369 310 348 338 293 338 c 3
 245 338 203 326 170 308 c 1
 168 224 161 107 161 71 c 3
 161 41 174 37 194 32 c 0
 203 30 222 28 232 27 c 1
 228 -7 l 1x96
 189 -1 159 4 117 4 c 3
 87 4 51 -1 21 -5 c 1
 18 28 l 1
 29 30 35 31 46 33 c 0
 69 39 81 49 87 76 c 0
 94 107 95 167 95 199 c 3
 95 219 93 288 86 308 c 0
 77 334 72 336 54 336 c 3
 44 336 41 335 32 335 c 1
 30 364 l 1
 67 371 104 375 154 416 c 1x6e
 175 401 l 1
 170 383 167 357 167 330 c 1
 215 361 267 399 330 399 c 3
 403 399 448 359 448 288 c 3
 448 255 446 219 446 183 c 3
 446 80.0143 445 -34.4143 445 -84 c 3
 445 -134 433 -165 419 -186 c 0
 397 -220 363 -249 329 -267 c 0
 314 -274 282 -298 262 -316 c 1
 244 -294 l 1
 269 -273 288 -258 316 -225 c 0
 337 -199 353 -166 362 -140 c 0
 371.562 -110.021 379 -38.072 379 143 c 3x16
EndSplineSet
Validated: 1
Substitution2: "case-1" Eng
EndChar

StartChar: Eng
Encoding: 330 330 469
Width: 863
VWidth: 1159
Flags: W
HStem: -10 44<32 96.238> 665 37<780.205 840> 673 38<608.263 685.298>
VStem: 105 55<63.5964 311.035> 113 56<364.701 560>
LayerCount: 2
Fore
SplineSet
755 0 m 3xc8
 755 -92 694 -151 625 -200 c 0
 600 -217 575 -235 550 -251 c 9
 525 -218 l 1
 548 -207 567 -196 583 -182 c 0
 588 -178 593 -175 597 -171 c 0
 643.129 -130.678 660.071 -79.1809 670.66 -21 c 0
 683 46.8 658.328 97.5469 612 139.091 c 0
 467.896 283.034 321.026 422.806 169 560 c 1xc8
 160 154 l 2
 158 49 194 41 285 31 c 1
 277 -15 l 1
 182 16 100 -3 32 -10 c 1
 27 34 l 1
 85 34 103 45 105 93 c 0xd0
 114 250 115 416 113 581 c 0
 112 624 77 659 20 658 c 1
 22 702 l 1xc8
 61 698 113 695 154 694 c 0
 169 694 170 690 177 683 c 0
 326.792 523.458 481.299 370.2 644 223.228 c 0
 667.155 202.311 690.86 176.949 707 154 c 1
 716 285.255 718 416.51 717 555 c 0
 716 677 664 666 605 673 c 1
 609 711 l 1xa8
 701 697 769 698 840 702 c 1
 845 665 l 1
 796 659 775 661 771 619 c 0
 756 449 751 268 753 86 c 0
 753 63 755 43 755 0 c 3xc8
EndSplineSet
Validated: 33
Position2: "cpsp-1" dx=0 dy=0 dh=10 dv=20
EndChar

StartChar: circumcombhigh
Encoding: 65558 -1 472
Width: 0
VWidth: 1159
Flags: W
HStem: 441.078 148.603
VStem: -335.78 276.56
LayerCount: 2
Fore
SplineSet
-59.2197 471.56 m 1
 -103.571 441.078 l 1
 -197.636 478.333 l 1
 -291.428 441.078 l 1
 -335.78 471.56 l 1
 -233.364 589.681 l 1
 -161.636 589.681 l 1
 -59.2197 471.56 l 1
EndSplineSet
Validated: 1
EndChar

StartChar: a.pcap
Encoding: 65568 -1 645
Width: 486
VWidth: 1159
Flags: W
HStem: -12.5947 21G<146.354 164.974 262.379 283.653> -5.94336 50.5723<-8.97018 43.1873 454.588 488.095> 406.374 20G<220.019 281.574>
VStem: 219.85 61.7246<337.179 425.722>
LayerCount: 2
Fore
SplineSet
163.295898438 130.553710938 m 1x30
 187.6701399 124.999999999 238.29095016 128.999999999 248.100585938 136.0625 c 1
 234.69046073 149.682217029 237.960755612 163.424634212 197.684570312 187.018554688 c 1
 184.189534783 172.629594445 168.441671252 143.916558692 163.295898438 130.553710938 c 1x30
267.534179688 -12.5947265625 m 1xb0
 267.534179688 -12.5947265625 258.845911407 21.6201107336 254.883789062 36.4794921875 c 1
 261.665530662 39.7734268883 284.862304688 48.6322275803 284.862304688 61.44921875 c 3
 284.862304688 68.3058602476 282.004156125 71.6167859437 279.530273438 77.1962890625 c 1
 268.817502055 89.9556364308 149.096627538 98.0038129907 137.48046875 88.1865234375 c 1
 134.210934779 81.8296438606 129.818264227 78.8243921479 129.80078125 72.1640625 c 0
 129.75703639 55.4989837155 156.483644753 45.3205132467 166.802734375 45.6728515625 c 1
 164.017578125 -12.5947265625 l 1xb0
 128.689782076 -1.43751292752 26.8045693931 0.91893378502 -8.0634765625 -5.943359375 c 1
 -8.38568143635 -2.7167977401 -12.8329487082 26.4042970156 -14.4677734375 44.62890625 c 1x70
 14.8866971083 51.5946279367 39.0852252157 56.014282749 47.4228515625 70.1123046875 c 0
 113.355478125 180.163023165 180.012327709 284.123823837 216.869140625 377.0078125 c 0
 219.999695368 384.999727223 220.188173999 390.969004723 219.849609375 426.374023438 c 1
 281.57421875 425.721679688 l 1
 282.307710766 400.106590249 280.19095319 393.745994749 285.32421875 378.807617188 c 0
 327.028006616 263.193179651 376.811827547 172.556679704 454.3515625 58.0859375 c 0
 458.893206128 51.0477349156 495.329785078 38.3017196312 490.440429688 42.2392578125 c 1
 490.278427418 38.8524642606 488.804406782 10.2372787411 487.650390625 -5.3603515625 c 1
 435.250347822 2.87792086866 299.771585431 1.10350865754 267.534179688 -12.5947265625 c 1xb0
EndSplineSet
Validated: 33
EndChar

StartChar: b.pcap
Encoding: 65569 -1 646
Width: 457
VWidth: 1159
Flags: W
HStem: -4.71582 54.9824<14.9336 55.2779 209.919 275.786> 185.554 3.466<218.784 219.2> 352 53.3281<15.0343 55.7804 207.084 259.938>
VStem: 67.082 134.328<62.6983 189.02 227.067 344.283> 273.3 134.599<242.004 339.707> 282.691 156.688<54.0613 166.243>
LayerCount: 2
Fore
SplineSet
11.154296875 43.5654296875 m 1xf4
 50 47 53 58 59.4013671875 89.826171875 c 0
 60.1145248978 93.1998001353 67.08203125 123.635002953 67.08203125 168.267578125 c 1
 67.08203125 228.356615985 67.0239540902 271.173683242 66.86328125 275.875976562 c 0
 65.6947276212 310.075172376 57 342 38.2939453125 348.452148438 c 0
 33.4058828968 350.138153574 11.8818432972 355.097287172 7.2275390625 356.067382812 c 1
 16.2587890625 405.649414062 l 1
 26.1152244308 404.843440719 67.2389135342 399.5078125 102.682617188 399.5078125 c 1
 151.272414505 399.5078125 230.46187396 405.328125 276.502929688 405.328125 c 1
 358.440983979 405.328125 407.8984375 339.754178622 407.8984375 297.864257812 c 3xf8
 407.8984375 259.539280805 377 230 364.37890625 219.223632812 c 1
 385.897272916 203.423478205 439.379882812 161.561573967 439.379882812 104.469726562 c 1
 439.379882812 38.9274497173 362.982748328 -4.7158203125 249.993164062 -4.7158203125 c 1
 210.07875734 -4.7158203125 148.718670345 -1.3837890625 105.333984375 -1.3837890625 c 1
 66.274484375 -1.3837890625 23.4169796875 -3.55174482873 14.93359375 -3.8740234375 c 1
 11.154296875 43.5654296875 l 1xf4
221.465820312 227.233398438 m 3
 250.086560276 227.233398438 273.299804688 237.109721668 273.299804688 281.3984375 c 3
 273.299804688 304.677242928 263.109609582 352 222 352 c 3
 213.256177962 352 215.560294678 351 214 351 c 0
 206.067994473 351 207.133194355 320.68521555 206.192382812 312.97265625 c 0
 204 295 203.268482066 231.567404503 202.940429688 227.067382812 c 1
 207.118624453 227.067382812 212.130915263 227.233398438 221.465820312 227.233398438 c 3
218.78415625 185.55353125 m 1
 227.516207965 189.17953125 245.095683267 189.01953125 201.41015625 189.01953125 c 1
 201.838127443 158.671945473 202.922429517 129.12594959 204.543945312 108.64453125 c 0
 206.510061637 85.7804905843 208.284345024 71.5787384347 209.86328125 62.2578125 c 0
 210.590484278 57.5951465347 240.939551521 50.2666015625 244.67578125 50.2666015625 c 3
 274.127169861 50.2666015625 282.69140625 73.057207349 282.69140625 93.357421875 c 3xf4
 282.69140625 142.657817579 269.957439919 185.417531167 218.78415625 185.55353125 c 1
EndSplineSet
Validated: 1
EndChar

StartChar: c.pcap
Encoding: 65570 -1 647
Width: 515
VWidth: 1159
Flags: W
HStem: -11.7861 56.5762<272.556 378.389> 360.04 54.9082<241.068 366.481> 387.447 20G<463.185 495.333>
VStem: 31.002 172.01<128.842 283.457> 446.012 41.2617<111.814 132.928>
LayerCount: 2
Fore
SplineSet
31.001953125 199.567382812 m 7xd8
 31.001953125 306.076236781 128.347337735 414.948242188 326.18359375 414.948242188 c 3xd8
 351.575178217 414.948242188 388.048240568 410.650216414 425.487304688 401.91015625 c 0
 443.651713552 397.444885947 456 399 470.370117188 407.447265625 c 1xb8
 504.139648438 380.391601562 l 1
 481.92006349 349.256665813 471.042684309 333.9678038 464.176757812 311.490234375 c 0
 452.83392169 274.356223902 453.338754333 274.766444398 415.510742188 274.606445312 c 1
 411.54146504 279.000158504 400.754060033 303.389416433 386.173828125 320.299804688 c 0
 359.483438048 349.544306063 335.510330854 360.040039062 295.725585938 360.040039062 c 3
 242.877630167 360.040039062 203.01171875 311.934341446 203.01171875 228.036132812 c 7
 203.01171875 116.194484863 274.048359096 44.7900390625 324.961914062 44.7900390625 c 3
 359.928833053 44.7900390625 415.341690373 84.5013739752 446.01171875 142.25390625 c 1
 487.2734375 131.022460938 l 1
 480.888018582 86.8381271145 477.631997576 70.8401451721 469.778320312 25.5185546875 c 1
 425.646838035 5.42284517114 353.161426732 -11.7861328125 289.189453125 -11.7861328125 c 3
 179.647713579 -11.7861328125 31.001953125 63.1151411508 31.001953125 199.567382812 c 7xd8
EndSplineSet
Validated: 33
EndChar

StartChar: d.pcap
Encoding: 65571 -1 648
Width: 554
VWidth: 1159
Flags: W
HStem: -12.8525 50.0664<31.3122 65.0543> -10.623 60.2285<236.881 306.762> 344.093 58.3252<29.7949 62.9518 232.391 294.404>
VStem: 349.052 165.448<108.232 283.405>
LayerCount: 2
Fore
SplineSet
255.540039062 49.60546875 m 3x70
 273.203294866 49.60546875 349.051757812 58.9845545013 349.051757812 195.268554688 c 3
 349.051757812 300.114257812 277.246815619 344.092773438 257.74609375 344.092773438 c 3
 255 344.092773438 245.136061135 341.138074192 241.090820312 336.890625 c 0
 236.923719752 332.5152247 232.132957251 328.469443096 230.955078125 315.995117188 c 0
 223.017848015 231.935901779 216.008789062 184.3046875 227.637695312 100.770507812 c 0
 228.033203125 91.5048828125 233.306640625 79.6318359375 238.0234375 68.208984375 c 0
 241 61 246.924523311 49.60546875 255.540039062 49.60546875 c 3x70
29.794921875 398.083984375 m 1
 59.76171875 395.458007812 98.0234375 390.849609375 127.669921875 390.849609375 c 1
 177.8203125 390.849609375 204.950195312 402.41796875 254.616210938 402.41796875 c 1
 461.713867188 402.41796875 514.5 275.211914062 514.5 199.372070312 c 1
 514.5 37.2490234375 360.2265625 -10.623046875 240.969726562 -10.623046875 c 1x70
 198.870117188 -10.623046875 174.8125 -3.12890625 131.90625 -3.12890625 c 1
 79.81640625 -3.12890625 55.0634765625 -7.5888671875 31.7021484375 -12.8525390625 c 1
 28.9130859375 37.2138671875 l 1xb0
 49.75390625 40.4775390625 66 41 74.759765625 91.86328125 c 0
 88.6863661586 172.727613713 85.2947910538 221.254017211 68.9404296875 301.189453125 c 0
 61 340 55.91015625 342.44921875 28.3203125 344.723632812 c 1
 29.794921875 398.083984375 l 1
EndSplineSet
Validated: 33
EndChar

StartChar: e.pcap
Encoding: 65572 -1 649
Width: 469
VWidth: 1159
Flags: W
HStem: -11.2402 45.9648<22.927 45.2423> 178.394 47.2803<206.494 270.87> 367.924 37.4062<18.7607 42.776>
VStem: 308.271 53.7119<137.946 157.004>
LayerCount: 2
Fore
SplineSet
18.7607421875 405.330078125 m 1
 139.307644215 394.453758321 387.811402691 400.905948039 408.965820312 408.784179688 c 1
 435.523707148 388.460747417 411.121250553 362.623327703 401.6796875 285.206054688 c 1
 361.958007812 281.428710938 l 1
 359.000011019 288.000051545 349.447781552 306.925313627 343.08203125 315.291992188 c 0
 317.585292408 346.960302022 239.065185589 342.343164467 233.969726562 336.673828125 c 0
 230 332 224.298853119 320.103508201 223.672851562 317.99609375 c 0
 213.986143103 285.386782218 207.646162629 256.497963445 206.494140625 225.673828125 c 1
 239.399724296 229.339671297 245.570859327 229.613350294 274.49609375 234.439453125 c 0
 301.976152056 241.690429424 305.214859372 264.184512146 311.357421875 276.799804688 c 1
 361.233398438 267.606445312 l 1
 350.852305972 234.836967365 355.0902869 172.783161655 361.982421875 139.528320312 c 1
 308.270507812 127.385742188 l 1
 305.3359375 141.045898438 283.552178087 163.006483788 272.3203125 167.541992188 c 0
 241.134313461 175.375637261 225.186414165 178.061178355 206.172851562 178.393554688 c 1
 204.961743562 127.867004229 208.533475261 91.2372939805 214.337890625 80 c 0
 218.695332685 71.564336691 224.182565103 66.7616416449 224.557617188 66.59375 c 0
 253.218560069 53.7637110761 271.269297804 61.9999472369 308.923828125 81.96875 c 0
 381.351548232 120.37833432 383.379885326 125.006087614 401.119140625 140.762695312 c 1
 439.01953125 131.408203125 l 1
 428.684611388 89.1400687566 418.267856658 31.3646153094 410.274414062 -7.802734375 c 1
 287.920419815 -4.763674375 126.051182033 7.937505625 24.90234375 -11.240234375 c 1
 11.931640625 34.724609375 l 1
 35.7236194246 47.1127044108 55.9999862099 59.061529907 61.880859375 84.4189453125 c 24
 78.9998957754 168.999903077 70.3426438316 275.498697253 66.95703125 305.599609375 c 0
 62.1582391914 348.264852875 50.0507467277 350.843744739 12.1943359375 367.923828125 c 1
 18.7607421875 405.330078125 l 1
EndSplineSet
Validated: 33
EndChar

StartChar: f.pcap
Encoding: 65573 -1 650
Width: 446
VWidth: 1159
Flags: W
HStem: -8.11035 45.9648<32.1338 55.4818> 359.216 41.0361<21.3359 51.8892> 402.26 20G<390.715 425.368>
VStem: 73.7568 144.886<113.506 162.65 218.624 339.528> 290.59 46.2139<97.2968 139.931 245.916 284.7> 370.729 49.0342<228.641 282.716>
LayerCount: 2
Fore
SplineSet
293.3125 -11.3427734375 m 1
 212.244119496 4.75786666107 133.46277172 4.75786666107 32.1337890625 -8.1103515625 c 1
 19.1611328125 37.8544921875 l 1
 57.5272930098 46.5053385682 68.5401998457 66.3341583214 75.0341796875 112.451171875 c 1
 80.2295105267 132.948021904 77.8520413539 283.073461285 73.7568359375 310.057617188 c 0
 69.6088015145 337.389874346 44.8693805865 350.980643248 14.447265625 359.215820312 c 1
 21.3359375 400.251953125 l 1
 143.175607757 391.818328352 383 392 398.4296875 422.259765625 c 1
 452.305964506 393.925100841 425.934025047 357.863429881 419.763671875 228.640625 c 1
 370.729492188 224.860351562 l 1
 368.458337604 233 358.882603079 282.400352061 331.087890625 311.778320312 c 0
 295.326815669 349.576434844 266.578758641 348.88571301 239.450195312 339.814453125 c 0
 228.75944081 336.239674347 226.090533309 323.685893578 225.560546875 321.66796875 c 0
 216.531439474 287.289617111 217.024762925 249.714452787 216.30078125 218.624023438 c 1
 220.307819804 218.908672715 237.064089058 221.693180876 240.92578125 222.782226562 c 0
 274.496022798 232.249456197 281.704101562 280.188476562 286.01953125 293.67578125 c 1
 330.841796875 284.700195312 l 1
 326.142578125 239.00390625 327.756682303 145.517453605 336.803710938 99.111328125 c 1
 290.58984375 87.1318359375 l 1
 279.941610997 145.225148853 256.628375835 151.127139115 240.92578125 158.328125 c 0
 234.786323378 161.143592803 224.651657241 163 218.642578125 162.650390625 c 1
 220.909203435 130.435739894 220.907955006 128.394538807 223.624023438 115.262695312 c 0
 229.441301579 87.1368995004 237.687844838 47.5116827594 301.354492188 47.4599609375 c 1
 293.3125 -11.3427734375 l 1
EndSplineSet
Validated: 33
EndChar

StartChar: g.pcap
Encoding: 65574 -1 651
Width: 548
VWidth: 1159
Flags: W
HStem: -18 55.4004<270.547 328.821> 169.4 41.3994<291.5 327.573> 363 52<241.333 376.972>
VStem: 35 167<129.814 286.53> 431.601 43.3994<289.839 312.276>
LayerCount: 2
Fore
SplineSet
35 204 m 3
 35 355.535242815 212.531622549 415 310 415 c 3
 378.713145627 415 399.223714784 401.139917086 412.100585938 400.600585938 c 0
 420.606279268 400.244335938 420.500325521 403.000585937 424.700195312 409.600585938 c 1
 461.100585938 408.400390625 l 1
 475 291 l 1
 431.600585938 283.799804688 l 1
 395.322645399 346.75380609 341.368226803 363 301 363 c 3
 214.732588189 363 202 278.495900665 202 239 c 3
 202 126.71667326 262.280678957 37.400390625 318.099609375 37.400390625 c 3
 325.199044027 37.400390625 325.353977545 45.0793586139 328.200195312 52.400390625 c 0
 331.342635972 60.4833661875 333.182142692 76.4773616388 333.299804688 77.599609375 c 0
 334.699707031 89.7856264126 336.099609375 104.320361946 336.099609375 119.400390625 c 0
 336.099609375 133.673117898 328.960074054 157.944762938 307.599609375 164.400390625 c 0
 300.361580983 166.587890625 295.651703933 167.149414062 288.700195312 169.400390625 c 1
 291.5 210.799804688 l 1
 373.953080442 204.800455729 464.489796221 205.400390625 504.099609375 209 c 1
 508.299804688 180.200195312 l 1
 497.551367903 175.325225361 486.52544975 167.521997298 485.900390625 160.799804688 c 0
 483.100390625 128.025772095 481.824843011 98.4952846046 478.900390625 74.599609375 c 0
 477.823793126 66.5171017776 483.202850483 46.8771779818 496.599609375 38 c 1
 492.400390625 10.7998046875 l 1
 435.663819181 2.57128906249 317.881569602 -18 279.099609375 -18 c 3
 130.969618161 -18 35 73.3987347147 35 204 c 3
EndSplineSet
Validated: 33
EndChar

StartChar: h.pcap
Encoding: 65575 -1 652
Width: 584
VWidth: 1159
Flags: W
HStem: -9.9248 46.2871<242.418 273.34 328.538 353.985> -8.17773 54.5117<27.0326 61.2792> 166.587 55.002<220.49 377.674> 356.958 49.7441<26.8379 66.3255 236.113 277.068 327.054 365.274>
VStem: 377.674 150.162<60.0072 117.55 223.04 347.338>
LayerCount: 2
Fore
SplineSet
26.837890625 406.702148438 m 1x78
 114.429553838 402.439032813 186.300580746 396.062666067 277.068359375 404.536132812 c 1
 279.854492188 356.10546875 l 1
 297.874104096 359.495706719 243.000048481 351.999840688 235.73828125 334.420898438 c 24
 217.999914219 293.536843345 224.246245922 265.438877743 220.490234375 221.588867188 c 1
 377.673828125 223.040039062 l 1
 376.945747082 246.476451916 374.530262594 274.833429958 372.19921875 306.887695312 c 0
 369.566369015 340.635684628 357.999616158 354.527373463 320.649414062 361.756835938 c 1
 327.053710938 406.5703125 l 1
 399.384840593 396.288190668 483.156551978 396.450210561 560.775390625 410.642578125 c 1
 569.139648438 362.211914062 l 1
 550.197199647 363.804314116 533.683786832 345.93721778 527.8359375 319.048828125 c 0
 517.379307099 223.602742646 519.144281385 110.893519086 523.206054688 88.0673828125 c 0
 536.532228081 46.8458086623 547.000054658 40.0000355753 567.330078125 37.6015625 c 1
 567.330078125 37.6015625 561.086133854 5.36915278566 562.078125 -8.5 c 1
 502.297016971 1.19633359275 399.616488395 2.845751667 330.078125 -9.9248046875 c 1
 319.893554688 36.3623046875 l 1xb8
 349.999842109 45.0000184994 357.851774432 56.0538581135 369.139648438 92.337890625 c 0
 374.615939356 121.206572248 376.085000543 133.831443227 377.673828125 165.13671875 c 1
 218.209960938 166.586914062 l 1
 216.607688122 137.638105308 217.950596436 117.21572411 224.8125 88.5341796875 c 0
 234.01191204 47.1244551951 261.999795228 45.0000410915 278.877929688 39.2490234375 c 1
 278.877929688 39.2490234375 273.785942765 4.52834279816 272.793945312 -9.3427734375 c 1
 194.255934464 0.616272049377 93.6023845235 2.52350138977 28.2978515625 -8.177734375 c 1
 28.2978515625 -8.177734375 21.2470125267 28.5019651565 19.2666015625 46.333984375 c 1
 50.9999644661 53.0000473665 65.5805388313 58.7685719563 69.705078125 91.7587890625 c 0
 84.5644935899 204.123777719 78.0871299085 297.762919268 74.52734375 316.921875 c 0
 68.4882748682 351.301032974 27.7675471809 356.510221633 23.05859375 356.958007812 c 1
 26.837890625 406.702148438 l 1x78
EndSplineSet
Validated: 37
EndChar

StartChar: i.pcap
Encoding: 65576 -1 653
Width: 331
VWidth: 1159
Flags: W
HStem: -10.0029 52.3691<23.3186 60.022 253.778 296.007> 350.563 55.6641<27.1064 81.0613 246.836 289.048>
VStem: 17.6299 279.853
LayerCount: 2
Fore
SplineSet
27.1064453125 408.135742188 m 1
 104.69194989 395.267338922 206.654135544 397.173541874 289.047851562 406.227539062 c 1
 290.696289062 350.563476562 l 1
 283.000061374 348.999978663 251.000316555 341.999883131 246.610351562 333.389648438 c 1
 228.834999666 295.588844047 212.186482194 274.036079101 233.2883125 108.35346875 c 1
 238.579616484 77.0937774474 251 53 297.482421875 41.6357421875 c 1
 296.006835938 -9.0986328125 l 1
 221 0 92 4 24.1962890625 -10.0029296875 c 1
 17.6298828125 42.3662109375 l 1
 60 53 74.9023788647 68.6239485962 85.3583125 109.092760938 c 1
 100.492989036 182.884022348 99.6044419032 286.955282652 81.91796875 332.225585938 c 1
 75.9999719683 345.000020452 33.9999948088 350.000007053 24.4541015625 352.631835938 c 1
 27.1064453125 408.135742188 l 1
EndSplineSet
Validated: 33
EndChar

StartChar: j.pcap
Encoding: 65577 -1 654
Width: 316
VWidth: 1355
Flags: W
HStem: 388.648 20G<16.7214 297.723>
VStem: 98.5061 148.57<-67.2769 216.921>
LayerCount: 2
Fore
SplineSet
79.91796875 298.818359375 m 0
 64.1158890464 351.773006704 27.8610666658 356.000011379 13.580078125 356.438476562 c 1
 18.671875 408.6484375 l 1
 108.131448247 395.458007812 203.507219932 399.755859375 296.721679688 408.6484375 c 1
 299.509765625 352.984375 l 1
 282.256301481 353.999909668 259.056050488 366.609216727 244.57421875 301.91796875 c 0
 231.174066724 244.792620248 235.744118572 194.900427006 235.622117188 130.078 c 3
 235.622117188 34.7987625 247.075804688 -2.54880221399 247.075804688 -34.52343625 c 3
 247.075804688 -65.587971875 185.018452769 -100.732129605 129.339921875 -128.013765625 c 0
 103.34869272 -140.749073869 82.7173304794 -150.694969479 61.5878 -158.886 c 1
 47.0782 -158.886 13.9082 -106.45 13.9082 -106.45 c 1
 18.0520236191 -96.6805539659 49.9075570741 -85.6948750941 56 -81 c 1
 63 -77 l 1
 113 -48 98.5061171875 -6.02577297195 98.5061171875 37.2821953125 c 3
 98.5061171875 98.9621378713 91.4608473549 257.015408248 79.91796875 298.818359375 c 0
EndSplineSet
Validated: 33
EndChar

StartChar: k.pcap
Encoding: 65578 -1 655
Width: 491
VWidth: 1159
Flags: W
HStem: -7 34.9277<267.85 275.158> -2.78125 44.3047<9.15527 39.7129> 363.964 41.1943<14.8398 37.5894 224.796 254.157 274.402 300.19 437.998 463.66>
LayerCount: 2
Fore
SplineSet
274.40234375 402.248046875 m 1x60
 314.34956305 397.528979919 420.291992188 399.17578125 462.536132812 407.810546875 c 1
 474.032226562 360.692382812 l 1
 469.33203125 360.491210938 404.233072579 327.219755343 395.837890625 320.32421875 c 0
 350.384756069 282.990144926 336.315712992 271.962294829 300.65625 244.1015625 c 1
 438.069335938 87.029296875 l 1
 443 80 472 48 486.959960938 27.095703125 c 1
 481.545898438 -5.875 l 1
 461.153320312 -4.9375 406.278320312 -1.3916015625 390.026367188 -1.3916015625 c 0
 367.904296875 -1.3916015625 289.83203125 -4.0908203125 269 -7 c 1
 263.26171875 27.927734375 l 1xa0
 278.999999999 34 275.837890624 48.5771484375 272.799804688 64.8984375 c 1
 268.798828125 82.5769126237 244.258789062 114.283714027 195.24609375 159.404296875 c 1
 195.24609375 124.176757812 199.267578125 114.821289062 201.57421875 91.208984375 c 0
 204.678668222 59.4297787118 232.385742188 45.53515625 249.038085938 34.8369140625 c 1
 247.1875 21.099609375 244.31640625 5.583984375 243.784179688 -5.8525390625 c 1
 182.616210938 1.6162109375 89.2109374998 4.203125 9.1552734375 -2.78125 c 1
 5.2138671875 41.5234375 l 1
 20.5693359375 35.0400390625 42.6880268722 57.4178237887 51.4794921875 89.3720703125 c 0
 68.7138671875 152.013671875 72.7958984375 220.735351562 58.2744140625 295.053710938 c 0
 50.2314453125 336.216796875 36.0927734375 356.517578125 6.798828125 363.963867188 c 1
 14.83984375 405.158203125 l 1
 79.4687500001 397.529296875 190.53515625 399.435546875 253.723632812 405.578125 c 1
 257.985351562 362.424804688 l 1
 240.129882812 365.513671874 219 348 208.295898438 306.271484375 c 0
 200.080705196 274.245646657 196.51953125 258.696289062 195.24609375 221.776367188 c 1
 239.244140625 261.798828125 283.107578217 296.908880168 295.595703125 311.76171875 c 0
 300 317 303 327 303 336 c 3
 303 353.720045147 280 362 272.766601562 364.854492188 c 1
 274.40234375 402.248046875 l 1x60
EndSplineSet
Validated: 33
EndChar

StartChar: l.pcap
Encoding: 65579 -1 656
Width: 465
VWidth: 1159
Flags: W
HStem: -4.62305 50.172<38.7988 67.7554> 0.616211 66.3838<246.549 333.719> 353.026 52.874<252.731 280.204>
VStem: 84.3603 145.494<80.2594 329.788> 398.346 45.9639<120.255 137.028>
LayerCount: 2
Fore
SplineSet
280.204101562 405.900390625 m 5xb8
 285.133789062 353.026367188 l 5
 281.085967079 353.42122859 247.921756907 355.281966135 239.696289062 287.611328125 c 4
 235.469243386 251.98766023 229.8543125 181.58911864 229.8543125 161.604078125 c 3
 229.8543125 116.346219012 248.873139195 73.6725728018 264 68 c 0
 266.666666667 67 272.409512557 67 278 67 c 3
 316.522344338 67 391.934693493 124.999851288 398.345703125 146.221679688 c 1
 444.309570312 137.028320312 l 1
 447.460100462 81.9919777721 433.922445773 67.1765656543 413.408203125 -28.1318359375 c 1
 384.539934559 -12.3417687021 382.569061782 -6.80653080191 356.223632812 -4.048828125 c 0
 348.489853157 -3.35379189999 289.549533414 0.6162109375 221.885742188 0.6162109375 c 0x78
 85.5625331174 0.6162109375 51.9237415324 -4.623046875 38.798828125 -4.623046875 c 1
 32.55466875 45.5489125 l 1
 58.9755890625 55.72455 76.0838875 61.898353125 80.8183125 111.45515625 c 0
 81.9406053157 123.202568896 83.4601043215 131.574838257 84.3603125 173.084 c 0
 85.810300178 241.53211831 78.9383052203 298.149960199 78.4765625 302.412109375 c 4
 73.8379595224 344.235386938 61.0000387816 345.999749027 29.7939453125 348.366210938 c 5
 34.7255859375 407.970703125 l 5
 98.2666003406 394.940708741 223.987802978 398.69296995 280.204101562 405.900390625 c 5xb8
EndSplineSet
Validated: 33
EndChar

StartChar: m.pcap
Encoding: 65580 -1 657
Width: 648
VWidth: 1159
Flags: W
HStem: -7.53027 53.1992<180.004 218.306 377.188 415.533> 352.656 56.8164<23.5258 68.6951 575.772 614.324>
VStem: 78.4385 80.1094<113.467 188.247> 276.275 54.8105<0.352539 104.111> 427.152 133.028<81.2795 191.241>
LayerCount: 2
Fore
SplineSet
623.809570312 -6.61328125 m 1
 564.636979886 2.1806433977 453.012545278 2.92476842983 378.047851562 -8.1962890625 c 1
 371.322265625 42.0302734375 l 1
 421.155864137 38.2874306091 427.15234375 70.5580697753 427.15234375 152.727539062 c 3
 427.15234375 164.536782059 426.708529405 177.651062395 419.971679688 191.908203125 c 1
 404.487710059 179.236501978 387.666428469 161.557812096 358.541992188 120.173828125 c 4
 343.492108331 84.3417339536 329.062196173 32.8466957253 331.0859375 0.3525390625 c 1
 276.275390625 0.3525390625 l 1
 279.558030644 49.7167382743 265.378256394 92.155322883 241.682617188 125.57421875 c 1
 244.543417888 122.994207293 197.295131262 183.000317508 181.778320312 192.428710938 c 1
 168.000029636 163.000249186 158.547851562 150.612091274 158.547851562 120.653320312 c 3
 158.547851562 65.1580356672 202.233745606 50.6347460621 224.874023438 45.6689453125 c 1
 218.305664062 -7.5302734375 l 1
 166.727568198 -0.482743612543 79.8662160207 2.10307966907 16.19140625 -7.8525390625 c 1
 12.919921875 45.1865234375 l 1
 42.5879981085 46.475085978 71.9140814334 66.6117252104 78.4384765625 113.466796875 c 1
 78.4844756061 110.437609079 102.486328125 206.99236106 102.486328125 225.166015625 c 3
 102.486328125 258.63629264 97.5479005007 280.003578113 85.181640625 309.005859375 c 0
 72.8023893627 338.038609013 54 339 14.7373046875 352.65625 c 1
 24.7607421875 409.47265625 l 1
 79.104648855 402.999414117 175.809636181 395.859642103 234.270507812 400.443359375 c 1
 252.016225189 402.176488057 253.010416065 384.654266089 258.498046875 371.465820312 c 0
 277 327 310.383030725 294.332522433 356.041992188 244.209960938 c 1
 368.000407177 254.760102394 444.175183508 395.265357026 445.030273438 396.864257812 c 0
 448.262532081 402.908137774 454.106760888 406.509961745 459.571289062 405.622070312 c 0
 502.128218555 398.707304412 571.930266388 401.496420056 614.32421875 404.977539062 c 1
 619.576171875 352.607421875 l 1
 590.266573045 361.639981993 560.009184272 326.318049206 560.180664062 270.641601562 c 0
 560.351833562 215.065899817 559.430009649 173.85411397 562.112304688 155.10546875 c 0
 574.33941909 69.6406609218 595.724404174 53.0000190001 625.283203125 49.375 c 1
 623.809570312 -6.61328125 l 1
EndSplineSet
Validated: 33
EndChar

StartChar: n.pcap
Encoding: 65581 -1 658
Width: 564
VWidth: 1159
Flags: W
HStem: -10.2471 60.0879<21.1582 54.4217 171.289 200.573> 356.018 50.5479<367.093 408.486 514.656 543.754> 388.009 20G<14.1994 45.2387>
VStem: 80.584 73.5244<76.6503 229.465> 422.33 86.1045<238.161 343.58>
LayerCount: 2
Fore
SplineSet
15.0263671875 408.008789062 m 1xb8
 75.4509519514 398.942692134 144.286437224 398.297937033 194.486328125 401.888671875 c 0
 204.176230992 402.6226793 206.507640132 398.074921078 210.129882812 394.196289062 c 0
 288.818962054 309.937444768 339.176453065 270.398092829 420 236 c 1
 422 242.257305633 422.330078125 253.238629308 422.330078125 260.883789062 c 3
 422.330078125 345.39087274 395 356 362.428710938 356.017578125 c 1
 367.842773438 406.565429688 l 1xd8
 430.985807311 398.258645902 492.802635605 398.518310037 543.75390625 401.008789062 c 1
 550.16015625 352.576171875 l 1
 522.105350872 349.686062491 510.448621841 344.950132911 508.434570312 298.938476562 c 0
 505.247985975 226.139930248 501.166015625 114.551921281 501.166015625 34.2412109375 c 3
 501.166015625 19.6133791715 508.402263394 1.77148451471 515.3125 -11.5380859375 c 1
 466.72265625 -25.9853515625 l 1
 458.656682 -12.0000152151 431.729139739 20.1104155973 423.299804688 27.333984375 c 0
 341.879756152 97.1073789375 252.783758651 167.627441424 163.9921875 229.939453125 c 1
 163 220.57826917 154.108398438 161.712644703 154.108398438 148.998046875 c 3
 154.108398438 127.682047564 149.000422061 60.3632106517 209.854492188 49.8408203125 c 1
 199.348632812 -10.2470703125 l 1
 142.051638815 9.08497137191 65.6973249906 -2.29393259817 21.158203125 -6.8525390625 c 1
 14.4296875 51.0927734375 l 1
 41.2841368798 46.9867107513 64.4158805715 70.758078476 71.3671875 113.657226562 c 0
 81.0659842116 173.5121748 80.583984375 214.89451312 80.583984375 296.227539062 c 3
 80.583984375 305.322943976 24.1866388655 350.789801178 13 359 c 1
 15.0263671875 408.008789062 l 1xb8
EndSplineSet
Validated: 33
EndChar

StartChar: o.pcap
Encoding: 65582 -1 659
Width: 589
VWidth: 1159
Flags: HMW
LayerCount: 2
Fore
SplineSet
270.208007812 352.182617188 m 7
 224.463983285 352.182617188 191.764648438 319.691514952 191.764648438 248.25 c 3
 191.764648438 151.478541021 255.143078712 52.787109375 315.8359375 52.787109375 c 3
 367.716042207 52.787109375 389.104492188 86.2503881232 389.104492188 158.865234375 c 3
 389.104492188 273.945462413 322.784582162 352.182617188 270.208007812 352.182617188 c 7
307.841796875 411.71484375 m 7
 449.359399139 411.71484375 553.120117188 310.455932901 553.120117188 199.889648438 c 3
 553.120117188 83.7684796873 452.742564087 -10.7832075 291.8743125 -10.7832075 c 3
 115.004041152 -10.7832075 31.375 114.334371828 31.375 200.213867188 c 3
 31.375 328.604759089 148.325638702 411.71484375 307.841796875 411.71484375 c 7
EndSplineSet
Validated: 1
EndChar

StartChar: p.pcap
Encoding: 65583 -1 660
Width: 454
VWidth: 1159
Flags: W
HStem: 134.489 41.876<214.256 235.281> 346.458 53.3744<20.579 62.7888> 356.746 46.8359<219.824 259.838>
VStem: 282.164 153.336<199.318 328.493>
LayerCount: 2
Fore
SplineSet
235.069335938 179.33203125 m 1xb0
 247.763671875 179.33203125 282.1640625 186.596679688 282.1640625 255.4453125 c 1
 282.1640625 306.345703125 257.873640692 340.034759617 250.549804688 346.530273438 c 0
 241 355 239.923828125 356.74609375 230.587890625 356.74609375 c 1
 224.073242188 356.74609375 220.509280627 340.799337138 219.744140625 334.215820312 c 0
 216 302 212.01953125 240.193359375 212.709960938 176.365234375 c 1
 220 176 239.974609375 179.33203125 235.069335938 179.33203125 c 1xb0
20.5790046875 399.832039063 m 1xd0
 39.2803671875 398.3436875 80.2471171875 397.1803125 107.251960938 397.1803125 c 1
 150.772851563 397.1803125 228.258789062 403.58203125 271.456054688 403.58203125 c 1xb0
 370.715820312 403.58203125 435.5 322.682617188 435.5 265.7890625 c 1
 435.5 151.0703125 298.583984375 134.489257812 214.255859375 134.489257812 c 1
 214.6953125 134.125488826 213.89453125 133.972023784 214.1640625 133.109375 c 1
 216.305664062 104.880211834 217.2683429 90.2320884992 223.049804688 79.515625 c 0
 237 58 257.588390625 40.8436875 292.542195312 46.9364734375 c 1
 287.450195312 -12.8525465625 l 1
 204.101484375 -1.73242875 114.373046875 0.0146484375 23.767578125 -16.927734375 c 1
 15.382878125 31.84773125 l 1
 46 46 68.931029383 65.0834231416 72.9140625 89.1005859375 c 0
 82.36328125 146.078125 80.914297527 231.206510086 69.029296875 306.681640625 c 0
 65.359375 329.987304688 51.263728125 345.874 18.509765625 346.4576875 c 1
 20.5790046875 399.832039063 l 1xd0
EndSplineSet
Validated: 33
EndChar

StartChar: q.pcap
Encoding: 65584 -1 661
Width: 564
VWidth: 1187
Flags: W
HStem: -171.458 90.054<534.517 681.646> 357.126 56.0059<205.11 299.239>
VStem: 28.2939 158.424<130.938 298.311> 364.145 163.562<126.226 271.2>
LayerCount: 2
Fore
SplineSet
253.845703125 357.125976562 m 3
 209.752352821 357.125976562 186.717773438 331.430903336 186.717773438 261.272460938 c 7
 186.717773438 79.2064382838 269.180963536 54.775390625 305.3984375 54.775390625 c 3
 336.414403189 54.775390625 364.14453125 80.4100206133 364.14453125 146.93359375 c 3
 364.14453125 294.136646128 294.978365934 357.125976562 253.845703125 357.125976562 c 3
413 21 m 1
 486.54838412 -45.5551075152 552.919361723 -81.403765625 649.1056875 -81.403765625 c 1
 699.615992188 -81.403765625 767.222367187 -76.0399453125 783.9763125 -68.5204734375 c 1
 799.0703125 -110.362273437 l 1
 768.98115625 -127.34078125 627.6290625 -171.457765625 541.4056875 -171.457765625 c 1
 420.41178125 -171.457765625 332.959828125 -96.0087640625 216.926 -14.4570325 c 1
 135.827439609 4.66018582177 28.2939453125 94.9025373851 28.2939453125 210.268554688 c 1
 28.2939453125 354.549381 164.358081878 413.131835938 287.66796875 413.131835938 c 3
 403.20699222 413.131835938 527.706054688 339.549144876 527.706054688 211.59375 c 1
 527.706054688 112.586195531 439.833177168 32.8231862172 413 21 c 1
EndSplineSet
Validated: 1
EndChar

StartChar: r.pcap
Encoding: 65585 -1 662
Width: 528
VWidth: 1159
Flags: W
HStem: -15.5947 48.2695<465.873 507.427> -9.01465 56.6562<30.5127 69.2753 228.431 261.196> 352.404 48.268<23.3038 66.5512> 387.44 20G<227.501 302.435>
VStem: 286.628 149.282<226.68 333.851>
LayerCount: 2
Fore
SplineSet
211.301757812 208.244140625 m 1x08
 218.027683989 208.199476012 220.626845914 208.078125 226.284179688 208.078125 c 1
 226.284179688 208.078125 286.627929688 220.512644089 286.627929688 268.391601562 c 3
 286.627929688 304.782132769 262.962686066 350.363372157 241 353 c 1
 238.199380034 351.941506279 231.006725556 346.548005169 225.290039062 337.412109375 c 0
 212.237261629 311.791996528 207.511981174 247.438473137 211.301757812 208.244140625 c 1x08
23.3037703125 400.672390625 m 1x68
 60.7060359375 400.089726563 89.210978125 399.508039062 133.08184375 399.508039062 c 1
 179.410500313 399.508039062 201.325567277 407.440429688 253.67578125 407.440429688 c 1
 351.194815358 407.440429688 435.91015625 357.354520846 435.91015625 293.475585938 c 1
 435.91015625 240.242460226 401.584466442 197.074829019 374 184 c 1
 447.059304293 85.9465390991 451.356575924 29.4056603407 516.780273438 32.6748046875 c 1
 507.426757812 -15.5947265625 l 1x98
 375.241064059 -31.4988081106 295.500270463 15.6341960971 220.736328125 160.053710938 c 1
 218.616369257 161.570361504 216.425505413 162.366210938 214.350585938 162.366210938 c 1
 214.531851479 163.166331468 205.349551619 165.352035723 205.301757812 166.255859375 c 1
 210.175724469 132.208802836 211.891358084 104.74892409 222.431640625 77.7822265625 c 0
 227.350985674 66.670959575 245 49 270.120117188 47.6416015625 c 1
 259.938476562 -9.0146484375 l 1
 186.292879201 1.68558395272 104.506065087 2.8506400967 30.5126953125 -7.107421875 c 1
 21.1572265625 46.416015625 l 1
 60 45 70.8046423784 61.0783972603 76.92384375 82.0009703125 c 1
 89.1520546875 184.504351563 91.3964765625 212.979265625 81.10584375 293.715882813 c 1
 70.6689578125 336.125367188 54.861328125 351.541796875 23.3037703125 352.404390625 c 1
 23.3037703125 400.672390625 l 1x68
EndSplineSet
Validated: 33
EndChar

StartChar: s.pcap
Encoding: 65586 -1 663
Width: 435
VWidth: 1159
Flags: W
HStem: -9.59961 59.5996<152.541 263.151> 365 44<175.947 277.14>
VStem: 42 130<242.269 332.607> 266 135<66.2921 169.712> 334 47<276.719 312.668>
LayerCount: 2
Fore
SplineSet
24 135.599609375 m 1xf0
 75 142.799804688 l 1
 75 142.799804688 95.4312685147 119.375616215 114 100 c 0
 138.451171875 74.486328125 190 50 217.5 50 c 3
 248.431640625 50 266 59.6412257827 266 83 c 3xf0
 266 126.133308736 206.086563305 141.445866388 152 158 c 0
 76.6028044003 181.076623354 42 219.538318241 42 265 c 3
 42 333.400108008 105.49642696 409 239 409 c 3
 267.775641026 409 290.574007505 402.011577433 303 400 c 0
 316.41015625 397.10546875 331 394 341.25 410.19921875 c 1
 386.25 399.399414062 l 1
 370 374 374 342 381 312 c 0
 387.161909178 285.591817809 381 264.727183053 334 272 c 1xe8
 329.206597222 293.844016798 316.48828125 309.1171875 302 324 c 0
 276.782226562 345.448242188 247.581302472 365 213 365 c 3
 204.623494466 365 172 358.746312734 172 328 c 3
 172 276.649459631 214.715756342 274.317984378 280 256 c 0
 347.070203486 237.180896479 401 197.423824199 401 142 c 3
 401 78.5020899976 357.078079754 -9.599609375 203.75 -9.599609375 c 3
 174.77734375 -9.599609375 130.583522696 7.0458984375 104.75 7.0458984375 c 3
 85.061881632 7.0458984375 92.5734375 1.60792807032 80.75 -8.400390625 c 1
 32.75 -3.599609375 l 1
 33.0627244971 45.9096665442 32.1249438757 58.8248045735 24 135.599609375 c 1xf0
EndSplineSet
Validated: 33
EndChar

StartChar: t.pcap
Encoding: 65587 -1 664
Width: 492
VWidth: 1159
Flags: W
HStem: 330.556 71.0967<91.5698 169.03 328.615 388.33> 397.482 21.5137G<58.0266 78.3863 440.047 473.957>
LayerCount: 2
Fore
SplineSet
147.141601562 401.65234375 m 0x80
 234.186017778 396.035401678 325.200483448 397.846671565 414.401367188 401.19140625 c 0
 428.345450238 401.714262709 437.217479617 408.16040712 442.875976562 417.482421875 c 1
 476.030273438 396.1484375 l 1
 464.087377476 356.635654902 451.467616001 324.061659495 449 264 c 1
 396.440429688 271.879882812 l 1
 403.654717654 317 366.193342874 324.804500364 333.758789062 330.129882812 c 1
 313 263.197949757 319.448510584 196.348468865 325.5703125 106.641601562 c 0
 328.165276137 67.9352739507 334.62309179 48.0899861929 379.961914062 51.220703125 c 1
 371.412109375 -5.7578125 l 1
 298.419662702 6.36611187242 185.1390326 2.2919223779 118.591796875 -11.5771484375 c 1
 108.41015625 53.1416015625 l 1
 152.352330746 50.9257066874 158.796273969 86.854412598 160.618164062 91.7900390625 c 0
 174.779192985 140.781917955 188.746289986 298.428695444 158.926757812 330.555664062 c 1x80
 133.927343313 329.999977796 119.669252247 327.352400624 108 320 c 0
 90.4991178597 308.973286888 77.1329821987 301.037944058 56 269 c 1
 12 286 l 1
 32.1066417009 331.33986376 53.1812184186 394.168635611 62.8720703125 418.99609375 c 1x40
 93.9004408992 416.834090721 117.858528003 403.541969013 147.141601562 401.65234375 c 0x80
EndSplineSet
Validated: 37
EndChar

StartChar: u.pcap
Encoding: 65588 -1 665
Width: 569
VWidth: 1159
Flags: W
HStem: -12.3682 76.6386<236.535 386.962> 351.271 51.8867<24.8945 66.853 232.958 272.678 340.16 397.406 502.408 555.034>
VStem: 73.8818 143.526<84.5493 339.531> 407.396 76.3584<79.2839 334.412>
LayerCount: 2
Fore
SplineSet
24.89453125 403.158203125 m 1
 82.1280985023 398.75946968 198.821998737 398.599361655 272.677734375 402.99609375 c 1
 278.091796875 355.717773438 l 1
 252.628252508 354.505975801 226.122015646 347.324846786 221.0234375 280.526367188 c 0
 220.36065361 271.777784925 217.408203125 147.671207985 217.408203125 146.32421875 c 3
 217.408203125 123.26821427 224.820295012 101.30681333 233.826171875 89.32421875 c 0
 246.598274235 72.330545969 272.823167377 64.2704734375 313.94415625 64.2704734375 c 3
 330.092691786 64.2704734375 371.013497527 66.9435696592 383.169921875 76.955078125 c 0
 403.674467329 93.8417402326 407.395507812 103.097903702 407.395507812 148.068359375 c 3
 407.395507812 192.058130375 406.572475087 264.388809249 402.381835938 311.266601562 c 0
 399.188997653 346.763832307 369.946708337 359.241511288 337.856445312 351.271484375 c 1
 340.16015625 403.158203125 l 1
 385.521850729 398.600341932 521.477330211 395.785321107 555.034179688 402.478515625 c 1
 558.973632812 350.938476562 l 1
 530.488800752 362.213594197 502.830676329 346.372048656 496.93359375 312.572265625 c 0
 495.893833938 306.576810705 483.75390625 259.494080643 483.75390625 146.088867188 c 3
 483.75390625 99.1062424395 467.133102613 63.9349245761 439.534179688 37.638671875 c 0
 404.547889075 4.30373552564 340.750570685 -12.3681665625 263.07815625 -12.3681665625 c 3
 190.318272671 -12.3681665625 136.423158564 0.919518068654 108.484375 31.955078125 c 0
 86.3921384045 56.4960512156 73.8818359375 85.7120784639 73.8818359375 124.114257812 c 3
 73.8818359375 129.448001181 75.0181693919 289.133351867 74.453125 293.717773438 c 0
 68.5152111355 341.6100548 64.8532405263 343.569590671 18.650390625 351.271484375 c 1
 24.89453125 403.158203125 l 1
EndSplineSet
Validated: 33
EndChar

StartChar: v.pcap
Encoding: 65589 -1 666
Width: 568
VWidth: 1159
Flags: W
HStem: 361.624 40.248<9.50169 46.1923 240.627 273.958> 387.482 20G<529.894 553.781>
VStem: 246.83 61.498<-28.2744 49.4441>
LayerCount: 2
Fore
SplineSet
274.279296875 401.872070312 m 1xa0
 273.958007812 361.624023438 l 1xa0
 263.005941541 363.573600029 246.18524209 361.476505436 240.345703125 356.536132812 c 0
 226.338454121 353.677921669 236.169481576 336.770274545 232.55859375 344.348632812 c 1
 228.526601771 358.722677197 331.348631589 162.053562106 326.806640625 183.940429688 c 1
 317.426720786 157.756733912 385.313476562 324.985437717 385.313476562 340.708007812 c 3
 385.313476562 344.707735432 378.140692075 348.711933624 371.856445312 352.065429688 c 0
 367.207975373 354.546067003 340.739978165 360.569874815 341.629882812 360.671875 c 1
 342.94140625 407 l 1
 409.450950315 397.777739878 508.733618984 399.0388818 551.053710938 407.482421875 c 1x60
 557.620117188 359.333984375 l 1
 545.241248262 367.639617812 502.402168942 343.661767638 455.442382812 277.71875 c 0
 443.516403931 260.971784773 344.809712487 108.108462873 316.721679688 34.8232421875 c 0
 310.58140473 18.1523826707 308.970306481 -7.69723511164 308.328125 -28.2744140625 c 1
 246.830078125 -28.4345703125 l 1
 247.20217999 -8.20515608074 244.213600174 6.29290641591 234.138671875 32.916015625 c 0
 213.303679546 79.4345112319 157.12898722 180.969771069 84.9833984375 295.51953125 c 0
 52.4930146527 347.106856369 19.0915485868 365.303323302 3.5361328125 361.936523438 c 1
 10.4248046875 403.520507812 l 1
 113.782635726 392.397693578 168.409967491 398.799519508 274.279296875 401.872070312 c 1xa0
EndSplineSet
Validated: 37
EndChar

